%TF.GenerationSoftware,KiCad,Pcbnew,9.0.1*%
%TF.CreationDate,2025-07-20T14:02:16+01:00*%
%TF.ProjectId,pcb_suiveur,7063625f-7375-4697-9665-75722e6b6963,rev?*%
%TF.SameCoordinates,Original*%
%TF.FileFunction,Copper,L2,Bot*%
%TF.FilePolarity,Positive*%
%FSLAX46Y46*%
G04 Gerber Fmt 4.6, Leading zero omitted, Abs format (unit mm)*
G04 Created by KiCad (PCBNEW 9.0.1) date 2025-07-20 14:02:16*
%MOMM*%
%LPD*%
G01*
G04 APERTURE LIST*
G04 Aperture macros list*
%AMRoundRect*
0 Rectangle with rounded corners*
0 $1 Rounding radius*
0 $2 $3 $4 $5 $6 $7 $8 $9 X,Y pos of 4 corners*
0 Add a 4 corners polygon primitive as box body*
4,1,4,$2,$3,$4,$5,$6,$7,$8,$9,$2,$3,0*
0 Add four circle primitives for the rounded corners*
1,1,$1+$1,$2,$3*
1,1,$1+$1,$4,$5*
1,1,$1+$1,$6,$7*
1,1,$1+$1,$8,$9*
0 Add four rect primitives between the rounded corners*
20,1,$1+$1,$2,$3,$4,$5,0*
20,1,$1+$1,$4,$5,$6,$7,0*
20,1,$1+$1,$6,$7,$8,$9,0*
20,1,$1+$1,$8,$9,$2,$3,0*%
G04 Aperture macros list end*
%TA.AperFunction,ComponentPad*%
%ADD10C,2.600000*%
%TD*%
%TA.AperFunction,ComponentPad*%
%ADD11C,2.200000*%
%TD*%
%TA.AperFunction,ComponentPad*%
%ADD12RoundRect,0.249999X0.850001X-0.850001X0.850001X0.850001X-0.850001X0.850001X-0.850001X-0.850001X0*%
%TD*%
%TA.AperFunction,ComponentPad*%
%ADD13O,1.050000X2.250000*%
%TD*%
%TA.AperFunction,ComponentPad*%
%ADD14O,1.050000X1.850000*%
%TD*%
%TA.AperFunction,ComponentPad*%
%ADD15RoundRect,0.249999X-0.850001X0.850001X-0.850001X-0.850001X0.850001X-0.850001X0.850001X0.850001X0*%
%TD*%
%TA.AperFunction,ComponentPad*%
%ADD16C,1.498000*%
%TD*%
%TA.AperFunction,ComponentPad*%
%ADD17R,1.498000X1.498000*%
%TD*%
%TA.AperFunction,HeatsinkPad*%
%ADD18C,0.600000*%
%TD*%
%TA.AperFunction,ViaPad*%
%ADD19C,0.600000*%
%TD*%
%TA.AperFunction,Conductor*%
%ADD20C,0.200000*%
%TD*%
%TA.AperFunction,Conductor*%
%ADD21C,0.600000*%
%TD*%
G04 APERTURE END LIST*
D10*
%TO.P,H1,1*%
%TO.N,N/C*%
X170500000Y-40000000D03*
%TD*%
%TO.P,H2,1*%
%TO.N,N/C*%
X125500000Y-40000000D03*
%TD*%
%TO.P,H4,1*%
%TO.N,N/C*%
X170500000Y-146500000D03*
%TD*%
D11*
%TO.P,J4_battery3,2,Pin_2*%
%TO.N,Net-(J4_battery3-Pin_2)*%
X156460000Y-114000000D03*
D12*
%TO.P,J4_battery3,1,Pin_1*%
%TO.N,GND*%
X156460000Y-116540000D03*
%TD*%
D13*
%TO.P,P1,SH4*%
%TO.N,N/C*%
X154445000Y-146812500D03*
%TO.P,P1,SH3*%
X143205000Y-146812500D03*
D14*
%TO.P,P1,SH2*%
X154445000Y-142812500D03*
%TO.P,P1,SH1*%
X143205000Y-142812500D03*
%TD*%
D11*
%TO.P,J2,2,Pin_2*%
%TO.N,Net-(D2-K)*%
X128000000Y-78040000D03*
D15*
%TO.P,J2,1,Pin_1*%
%TO.N,Net-(D1-K)*%
X128000000Y-75500000D03*
%TD*%
D16*
%TO.P,SW2,4*%
%TO.N,/EN*%
X165075000Y-56525000D03*
%TO.P,SW2,3*%
%TO.N,GND*%
X160575000Y-56525000D03*
%TO.P,SW2,2*%
%TO.N,/EN*%
X165075000Y-63025000D03*
D17*
%TO.P,SW2,1*%
%TO.N,GND*%
X160575000Y-63025000D03*
%TD*%
D10*
%TO.P,H3,1*%
%TO.N,N/C*%
X125500000Y-146500000D03*
%TD*%
D11*
%TO.P,J3,2,Pin_2*%
%TO.N,Net-(D5-A)*%
X168000000Y-75500000D03*
D12*
%TO.P,J3,1,Pin_1*%
%TO.N,Net-(D7-A)*%
X168000000Y-78040000D03*
%TD*%
D16*
%TO.P,SW1,4*%
%TO.N,/BOOT*%
X134825000Y-63525000D03*
%TO.P,SW1,3*%
%TO.N,GND*%
X139325000Y-63525000D03*
%TO.P,SW1,2*%
%TO.N,/BOOT*%
X134825000Y-57025000D03*
D17*
%TO.P,SW1,1*%
%TO.N,GND*%
X139325000Y-57025000D03*
%TD*%
D18*
%TO.P,U1,19,GND*%
%TO.N,GND*%
X150125000Y-46825000D03*
X150125000Y-47925000D03*
X150675000Y-46275000D03*
X150675000Y-47375000D03*
X150675000Y-48475000D03*
X151225000Y-46825000D03*
X151225000Y-47925000D03*
X151775000Y-46275000D03*
X151775000Y-47375000D03*
X151775000Y-48475000D03*
X152325000Y-46825000D03*
X152325000Y-47925000D03*
%TD*%
D19*
%TO.N,*%
X129500000Y-67500000D03*
X135500000Y-75500000D03*
X132500000Y-87000000D03*
X135500000Y-79000000D03*
X166500000Y-143500000D03*
X134000000Y-85500000D03*
X124000000Y-105000000D03*
X129000000Y-144000000D03*
X124500000Y-138000000D03*
X160500000Y-85000000D03*
X127500000Y-102000000D03*
X161000000Y-72000000D03*
X127500000Y-104000000D03*
X124500000Y-111500000D03*
X126000000Y-85000000D03*
X124000000Y-97500000D03*
X149325000Y-98775000D03*
X171000000Y-89500000D03*
X124000000Y-94000000D03*
X124000000Y-91000000D03*
X125500000Y-88000000D03*
X171000000Y-85000000D03*
%TO.N,3.3V*%
X154825000Y-71775000D03*
X144775000Y-70775000D03*
%TO.N,GND*%
X160500000Y-89500000D03*
X154000000Y-117000000D03*
X156500000Y-105500000D03*
X160000000Y-136000000D03*
X152750000Y-127500000D03*
X135500000Y-40500000D03*
X132000000Y-122000000D03*
X130000000Y-128000000D03*
X141000000Y-106000000D03*
X134500000Y-67500000D03*
X131000000Y-77000000D03*
X148500000Y-72000000D03*
X152325000Y-110775000D03*
X129500000Y-129000000D03*
X144500000Y-138500000D03*
X129000000Y-77000000D03*
X147000000Y-42000000D03*
X144500000Y-134000000D03*
X154500000Y-53000000D03*
X148500000Y-41000000D03*
X133500000Y-46000000D03*
X158500000Y-120500000D03*
X136000000Y-48500000D03*
X142000000Y-122000000D03*
X136000000Y-59000000D03*
X163500000Y-51500000D03*
X164500000Y-77000000D03*
X165000000Y-99500000D03*
X149825000Y-50775000D03*
X139825000Y-65275000D03*
X135500000Y-124500000D03*
X142000000Y-88000000D03*
X165000000Y-89500000D03*
X153000000Y-104500000D03*
X143500000Y-132500000D03*
X129500000Y-109000000D03*
X134500000Y-128000000D03*
X149285000Y-78275000D03*
X155500000Y-145000000D03*
X141000000Y-107500000D03*
X164898959Y-93398959D03*
X141000000Y-119000000D03*
X134500000Y-133500000D03*
X161250000Y-122500000D03*
X131500000Y-52000000D03*
X141000000Y-117500000D03*
X156317500Y-92767500D03*
X156000000Y-142000000D03*
X165000000Y-123500000D03*
X139500000Y-49500000D03*
X150000000Y-72500000D03*
X145000000Y-41000000D03*
X164500000Y-88500000D03*
X163500000Y-59000000D03*
X171500000Y-107000000D03*
X156500000Y-136000000D03*
X141500000Y-58000000D03*
X158000000Y-89500000D03*
X151500000Y-72500000D03*
X134000000Y-42000000D03*
X156000000Y-107000000D03*
X151000000Y-41500000D03*
X162500000Y-112000000D03*
X145475000Y-51775000D03*
X136000000Y-60500000D03*
X145000000Y-139500000D03*
X154000000Y-120000000D03*
X130500000Y-107500000D03*
X125000000Y-125000000D03*
X161000000Y-88500000D03*
X153500000Y-49500000D03*
X152750000Y-127500000D03*
X155500000Y-60000000D03*
X142500000Y-134000000D03*
X153000000Y-137500000D03*
X136000000Y-133500000D03*
X129000000Y-112000000D03*
X150000000Y-52500000D03*
X141000000Y-108500000D03*
X157500000Y-40500000D03*
X160175000Y-106460000D03*
X149500000Y-86500000D03*
X140500000Y-59500000D03*
X165500000Y-106500000D03*
X153500000Y-46500000D03*
X143500000Y-47500000D03*
X151500000Y-86000000D03*
X152750000Y-127500000D03*
X158500000Y-91500000D03*
X140000000Y-69000000D03*
X131500000Y-48500000D03*
X165500000Y-133000000D03*
X145500000Y-101500000D03*
X165000000Y-91500000D03*
X166101041Y-97601041D03*
X146500000Y-110500000D03*
X141500000Y-68500000D03*
X130000000Y-73000000D03*
X159000000Y-128000000D03*
X140500000Y-68000000D03*
X155500000Y-52500000D03*
X131000000Y-109000000D03*
X140500000Y-87000000D03*
X130500000Y-127000000D03*
X145500000Y-109500000D03*
X140500000Y-138500000D03*
X140500000Y-120500000D03*
X157000000Y-88500000D03*
X164500000Y-101000000D03*
X153000000Y-79500000D03*
X146500000Y-104500000D03*
X154500000Y-89500000D03*
X155500000Y-62000000D03*
X151500000Y-81000000D03*
X148500000Y-89500000D03*
X140000000Y-122500000D03*
X153000000Y-89500000D03*
X134000000Y-59000000D03*
X151000000Y-112000000D03*
X149500000Y-67000000D03*
X135500000Y-122500000D03*
X156000000Y-119500000D03*
X153500000Y-54500000D03*
X163500000Y-53500000D03*
X135000000Y-39500000D03*
X141500000Y-56000000D03*
X162500000Y-47500000D03*
X156000000Y-146500000D03*
X161000000Y-59000000D03*
X153000000Y-45000000D03*
X166000000Y-58000000D03*
X137000000Y-121000000D03*
X154500000Y-140500000D03*
X153000000Y-139500000D03*
X139500000Y-53500000D03*
X153000000Y-81500000D03*
X131000000Y-55000000D03*
X135500000Y-138500000D03*
X130000000Y-110500000D03*
X124500000Y-114500000D03*
X157000000Y-121000000D03*
%TO.N,/BOOT*%
X150325000Y-55275000D03*
%TO.N,GND*%
X127500000Y-137000000D03*
X152500000Y-120500000D03*
X166500000Y-88500000D03*
%TO.N,/EN*%
X150825000Y-62775000D03*
%TO.N,+3.3V*%
X153825000Y-109275000D03*
%TO.N,GND*%
X133000000Y-43500000D03*
%TO.N,/BOOT*%
X134325000Y-64775000D03*
%TO.N,/EN*%
X143325000Y-43775000D03*
%TO.N,GND*%
X135500000Y-121000000D03*
X134000000Y-61000000D03*
X124500000Y-108500000D03*
X139500000Y-51000000D03*
X145500000Y-111000000D03*
X132500000Y-68000000D03*
X139000000Y-133500000D03*
X140000000Y-132500000D03*
X135000000Y-88500000D03*
X165000000Y-39500000D03*
X148500000Y-114500000D03*
X139825000Y-65275000D03*
X158500000Y-129500000D03*
X159000000Y-126500000D03*
X152750000Y-127500000D03*
X146500000Y-112000000D03*
%TO.N,/BOOT*%
X145325000Y-64275000D03*
X156325000Y-41275000D03*
X148325000Y-59775000D03*
X136375000Y-68275000D03*
%TO.N,/EN*%
X158175000Y-70275000D03*
%TO.N,VBUS*%
X136825000Y-83125000D03*
%TO.N,+Vbat*%
X142000000Y-112500000D03*
%TO.N,Net-(D2-K)*%
X130375000Y-96560000D03*
%TO.N,Net-(D7-A)*%
X162500000Y-100000000D03*
X162575000Y-101025000D03*
%TO.N,VBUS*%
X138759576Y-83158315D03*
%TO.N,/RTS*%
X145325000Y-67275000D03*
%TO.N,Net-(D1-K)*%
X130000000Y-100000000D03*
%TO.N,Net-(D5-A)*%
X168325000Y-100775000D03*
%TO.N,/RTS*%
X147325000Y-66775000D03*
%TO.N,/SENSE_A*%
X139325000Y-47775000D03*
%TO.N,Net-(P1-CC)*%
X139309953Y-83967435D03*
X147825000Y-140275000D03*
%TO.N,VBUS*%
X136000000Y-115500000D03*
X139325000Y-79775000D03*
%TO.N,+Vbat*%
X137500000Y-117500000D03*
%TO.N,Net-(D5-A)*%
X168000000Y-97000000D03*
%TO.N,+Vbat*%
X144325000Y-108775000D03*
%TO.N,+3.3V*%
X145825000Y-58275000D03*
%TO.N,Net-(D1-K)*%
X130375000Y-100260000D03*
%TO.N,/SENSE_A*%
X141515000Y-47175000D03*
%TO.N,Net-(D2-K)*%
X130375000Y-96560000D03*
%TO.N,+Vbat*%
X136325000Y-110275000D03*
%TO.N,GND*%
X134500000Y-54500000D03*
X146500000Y-89000000D03*
X153500000Y-101000000D03*
X134500000Y-41000000D03*
X153000000Y-83500000D03*
X131000000Y-112500000D03*
X143500000Y-107500000D03*
X163500000Y-135500000D03*
X154825000Y-86775000D03*
X142500000Y-119000000D03*
X141500000Y-61000000D03*
X134500000Y-52000000D03*
X165351041Y-98351041D03*
X146325000Y-79775000D03*
X163000000Y-61000000D03*
X124500000Y-131500000D03*
X150000000Y-110000000D03*
X166000000Y-60000000D03*
X143500000Y-140500000D03*
X134500000Y-50000000D03*
X155000000Y-74500000D03*
X153500000Y-41000000D03*
X152750000Y-124500000D03*
X142500000Y-139500000D03*
X152750000Y-127500000D03*
X131500000Y-75000000D03*
X129128959Y-80371041D03*
X131000000Y-138500000D03*
X142000000Y-144500000D03*
X166000000Y-107000000D03*
X141000000Y-69000000D03*
X165000000Y-122000000D03*
X155500000Y-138500000D03*
%TO.N,/IN1*%
X146825000Y-92775000D03*
%TO.N,Net-(P1-D-)*%
X150085000Y-80362500D03*
%TO.N,/IN2*%
X141515000Y-44175000D03*
%TO.N,/IN4*%
X160825000Y-109775000D03*
%TO.N,/ENA*%
X139659167Y-109438308D03*
%TO.N,/IN2*%
X139850205Y-108461726D03*
%TO.N,Net-(P1-CC)*%
X141825000Y-84925000D03*
%TO.N,/RX_TX*%
X156675000Y-50275000D03*
%TO.N,Net-(P1-D+)*%
X148185000Y-80362500D03*
%TO.N,/ENB*%
X159926000Y-109638658D03*
%TO.N,/TX_RX*%
X157825000Y-54775000D03*
%TO.N,/GPIO9*%
X143475000Y-52275000D03*
%TO.N,Net-(P1-D-)*%
X142690693Y-84910973D03*
%TO.N,/IN1*%
X159015000Y-45675000D03*
%TO.N,/IN3*%
X158675000Y-109274782D03*
%TO.N,/GPIO9*%
X143566714Y-56597475D03*
%TO.N,/ENA*%
X142825000Y-45275000D03*
%TO.N,/IN3*%
X160975000Y-48775000D03*
%TO.N,/GPIO8*%
X144394338Y-56791233D03*
%TO.N,/IN4*%
X160325000Y-47275000D03*
%TO.N,/RX_TX*%
X156444527Y-56234027D03*
X157362585Y-58524974D03*
%TO.N,/GPIO8*%
X143475000Y-50775000D03*
%TO.N,Net-(P1-D-)*%
X145738040Y-82798953D03*
%TO.N,Net-(P1-CC)*%
X149825000Y-140275000D03*
%TO.N,/TX_RX*%
X157825000Y-54775000D03*
X158175000Y-58275000D03*
%TO.N,/ENB*%
X161525363Y-53575000D03*
%TO.N,Net-(P1-D-)*%
X140012002Y-83488236D03*
X145738040Y-82798952D03*
%TO.N,Net-(U4-UD-)*%
X151497500Y-78087500D03*
%TO.N,Net-(P1-D+)*%
X145262882Y-82046464D03*
%TO.N,Net-(U4-UD-)*%
X150135000Y-75725000D03*
X149635000Y-74225000D03*
%TO.N,Net-(P1-D+)*%
X139975000Y-82568457D03*
X142725000Y-83148878D03*
%TO.N,Net-(Q3-C)*%
X146025000Y-118325000D03*
%TO.N,Net-(FB1-Pad1)*%
X145635000Y-85210000D03*
%TO.N,Net-(J4_battery3-Pin_2)*%
X152000000Y-113500000D03*
%TO.N,Net-(FB1-Pad1)*%
X142325000Y-82275000D03*
%TO.N,Net-(J4_battery3-Pin_2)*%
X129000000Y-118000000D03*
%TO.N,/SENSE_B*%
X143075000Y-86525000D03*
X141825000Y-48775000D03*
%TO.N,Net-(FB1-Pad1)*%
X140325000Y-81275000D03*
%TO.N,Net-(J4_battery3-Pin_2)*%
X131000000Y-119000000D03*
%TO.N,Net-(FB1-Pad1)*%
X144825000Y-82775000D03*
%TO.N,Net-(Q3-C)*%
X146025000Y-118325000D03*
%TO.N,*%
X127500000Y-99500000D03*
X171000000Y-81500000D03*
X160500000Y-79500000D03*
X124000000Y-101500000D03*
X260500000Y-89500000D03*
%TD*%
D20*
%TO.N,3.3V*%
X146931501Y-70775000D02*
X144775000Y-70775000D01*
X151294628Y-71244628D02*
X147401129Y-71244628D01*
X154825000Y-71775000D02*
X151825000Y-71775000D01*
X151825000Y-71775000D02*
X151294628Y-71244628D01*
X147401129Y-71244628D02*
X146931501Y-70775000D01*
%TO.N,GND*%
X145475000Y-51625000D02*
X145475000Y-51775000D01*
X152325000Y-110775000D02*
X155325000Y-110775000D01*
D21*
X130000000Y-122000000D02*
X129000000Y-123000000D01*
X156500000Y-116500000D02*
X156500000Y-119000000D01*
D20*
X158825000Y-110275000D02*
X159276000Y-109824000D01*
D21*
X161325000Y-121325000D02*
X161325000Y-122425000D01*
D20*
X155325000Y-110775000D02*
X158080794Y-113530794D01*
X159276000Y-109824000D02*
X159276000Y-108469374D01*
X152325000Y-110775000D02*
X152825000Y-110275000D01*
X154825000Y-86775000D02*
X156325000Y-88275000D01*
X158080794Y-113530794D02*
X158080794Y-114919206D01*
X156325000Y-92775000D02*
X156317500Y-92767500D01*
D21*
X156500000Y-116500000D02*
X161325000Y-121325000D01*
D20*
X160175000Y-107570374D02*
X160175000Y-106460000D01*
D21*
X129000000Y-123000000D02*
X129000000Y-127000000D01*
D20*
X156325000Y-88275000D02*
X156325000Y-92775000D01*
X152825000Y-110275000D02*
X158825000Y-110275000D01*
X159276000Y-108469374D02*
X160175000Y-107570374D01*
X158080794Y-114919206D02*
X156500000Y-116500000D01*
D21*
X132000000Y-122000000D02*
X130000000Y-122000000D01*
X161325000Y-122425000D02*
X161250000Y-122500000D01*
D20*
X146325000Y-50775000D02*
X145475000Y-51625000D01*
D21*
X146325000Y-79775000D02*
X147825000Y-78275000D01*
X156500000Y-119000000D02*
X156000000Y-119500000D01*
D20*
X149825000Y-50775000D02*
X146325000Y-50775000D01*
D21*
X129000000Y-127000000D02*
X130000000Y-128000000D01*
X147825000Y-78275000D02*
X149285000Y-78275000D01*
%TO.N,+3.3V*%
X143975000Y-82237995D02*
X143975000Y-83273528D01*
D20*
%TO.N,/EN*%
X149825000Y-63775000D02*
X149825000Y-65775000D01*
X149825000Y-65775000D02*
X150325000Y-66275000D01*
X150325000Y-66275000D02*
X153325000Y-66275000D01*
D21*
%TO.N,+3.3V*%
X145825000Y-58275000D02*
X145825000Y-60275000D01*
D20*
%TO.N,/EN*%
X144825000Y-54775000D02*
X144825000Y-45275000D01*
X153325000Y-66275000D02*
X157325000Y-70275000D01*
D21*
%TO.N,+3.3V*%
X143825000Y-86977082D02*
X143825000Y-105775000D01*
X144325000Y-85042767D02*
X143925000Y-85442767D01*
D20*
%TO.N,/EN*%
X150825000Y-60775000D02*
X144825000Y-54775000D01*
D21*
%TO.N,+3.3V*%
X146825000Y-108775000D02*
X153325000Y-108775000D01*
X153325000Y-108775000D02*
X153825000Y-109275000D01*
D20*
%TO.N,/EN*%
X150825000Y-62775000D02*
X149825000Y-63775000D01*
D21*
%TO.N,+3.3V*%
X144325000Y-83623528D02*
X144325000Y-85042767D01*
D20*
%TO.N,/EN*%
X143325000Y-43775000D02*
X143575000Y-44025000D01*
X150825000Y-62775000D02*
X150825000Y-60775000D01*
X157325000Y-70275000D02*
X158175000Y-70275000D01*
X144825000Y-45275000D02*
X143325000Y-43775000D01*
D21*
%TO.N,+3.3V*%
X143925000Y-62175000D02*
X143925000Y-82187995D01*
X143925000Y-85442767D02*
X143925000Y-86877082D01*
X143825000Y-105775000D02*
X146825000Y-108775000D01*
X143925000Y-82187995D02*
X143975000Y-82237995D01*
%TO.N,VBUS*%
X139325000Y-82016375D02*
X139125000Y-82216375D01*
X139125000Y-82792891D02*
X138759576Y-83158315D01*
X136000000Y-115500000D02*
X136000000Y-113950000D01*
X132325000Y-110275000D02*
X132325000Y-88775000D01*
X139125000Y-82216375D02*
X139125000Y-82792891D01*
X132325000Y-88775000D02*
X136825000Y-84275000D01*
X136000000Y-113950000D02*
X132325000Y-110275000D01*
X136825000Y-84275000D02*
X136825000Y-83125000D01*
%TO.N,+3.3V*%
X143975000Y-83273528D02*
X144325000Y-83623528D01*
%TO.N,+Vbat*%
X142325000Y-108775000D02*
X139825000Y-111275000D01*
X136325000Y-110275000D02*
X136825000Y-110775000D01*
X137500000Y-117500000D02*
X142000000Y-113000000D01*
X139825000Y-111275000D02*
X137325000Y-111275000D01*
%TO.N,+3.3V*%
X145825000Y-60275000D02*
X143925000Y-62175000D01*
X143925000Y-86877082D02*
X143825000Y-86977082D01*
%TO.N,VBUS*%
X132325000Y-88775000D02*
X132325000Y-89775000D01*
X139325000Y-79775000D02*
X139325000Y-82016375D01*
D20*
%TO.N,/BOOT*%
X145325000Y-64275000D02*
X148325000Y-61275000D01*
X155325000Y-50275000D02*
X155325000Y-41775000D01*
X134325000Y-64775000D02*
X136325000Y-66775000D01*
X155325000Y-41775000D02*
X155825000Y-41275000D01*
X148325000Y-59775000D02*
X148325000Y-61275000D01*
X136325000Y-68275000D02*
X136375000Y-68275000D01*
X136325000Y-66775000D02*
X136325000Y-68275000D01*
X155825000Y-41275000D02*
X156325000Y-41275000D01*
X150325000Y-55275000D02*
X155325000Y-50275000D01*
%TO.N,/SENSE_B*%
X142825000Y-81936522D02*
X143375000Y-82486522D01*
X141825000Y-48775000D02*
X142825000Y-49775000D01*
D21*
%TO.N,Net-(J4_battery3-Pin_2)*%
X130000000Y-118000000D02*
X131000000Y-119000000D01*
X131000000Y-119000000D02*
X130868628Y-119000000D01*
D20*
%TO.N,/SENSE_B*%
X143375000Y-82486522D02*
X143375000Y-85144239D01*
D21*
%TO.N,Net-(J4_battery3-Pin_2)*%
X152460000Y-113960000D02*
X152000000Y-113500000D01*
D20*
%TO.N,/SENSE_B*%
X142825000Y-49775000D02*
X142825000Y-81936522D01*
D21*
%TO.N,Net-(J4_battery3-Pin_2)*%
X156500000Y-113960000D02*
X152460000Y-113960000D01*
D20*
%TO.N,/SENSE_B*%
X143075000Y-85444239D02*
X143075000Y-86525000D01*
X143375000Y-85144239D02*
X143075000Y-85444239D01*
D21*
%TO.N,Net-(J4_battery3-Pin_2)*%
X129000000Y-118000000D02*
X130000000Y-118000000D01*
%TO.N,Net-(D1-K)*%
X126862951Y-81000000D02*
X128000000Y-81000000D01*
%TO.N,Net-(D2-K)*%
X131325000Y-103581502D02*
X131325000Y-97510000D01*
X130000000Y-96500000D02*
X130315000Y-96500000D01*
%TO.N,Net-(D5-A)*%
X169637049Y-80500000D02*
X169500000Y-80500000D01*
X168325000Y-100775000D02*
X168325000Y-100710000D01*
%TO.N,Net-(D1-K)*%
X128000000Y-81000000D02*
X128000000Y-98000000D01*
%TO.N,Net-(D7-A)*%
X168000000Y-78040000D02*
X168000000Y-94500000D01*
%TO.N,Net-(D5-A)*%
X169500000Y-80500000D02*
X169500000Y-95500000D01*
X168000000Y-75500000D02*
X168982951Y-75500000D01*
X168000000Y-97000000D02*
X168000000Y-96735000D01*
%TO.N,+Vbat*%
X144325000Y-108775000D02*
X142325000Y-108775000D01*
%TO.N,Net-(D1-K)*%
X124359000Y-77583951D02*
X124359000Y-78496049D01*
X126561000Y-76939000D02*
X125003951Y-76939000D01*
%TO.N,Net-(D2-K)*%
X131325000Y-97510000D02*
X130375000Y-96560000D01*
X128000000Y-78040000D02*
X130000000Y-80040000D01*
%TO.N,Net-(D1-K)*%
X128000000Y-98000000D02*
X130000000Y-100000000D01*
%TO.N,Net-(D7-A)*%
X168000000Y-94500000D02*
X162500000Y-100000000D01*
%TO.N,+Vbat*%
X142000000Y-113000000D02*
X142000000Y-112500000D01*
%TO.N,Net-(D5-A)*%
X171641000Y-77583951D02*
X171641000Y-78496049D01*
%TO.N,Net-(D2-K)*%
X130315000Y-96500000D02*
X130375000Y-96560000D01*
%TO.N,Net-(D5-A)*%
X171641000Y-78496049D02*
X169637049Y-80500000D01*
%TO.N,+Vbat*%
X137325000Y-111275000D02*
X136325000Y-110275000D01*
%TO.N,Net-(D1-K)*%
X125003951Y-76939000D02*
X124359000Y-77583951D01*
%TO.N,Net-(D5-A)*%
X170658049Y-76601000D02*
X171641000Y-77583951D01*
X170083951Y-76601000D02*
X170658049Y-76601000D01*
X169500000Y-95500000D02*
X168000000Y-97000000D01*
%TO.N,Net-(D1-K)*%
X128000000Y-75500000D02*
X126561000Y-76939000D01*
%TO.N,Net-(D2-K)*%
X130000000Y-80040000D02*
X130000000Y-96500000D01*
%TO.N,Net-(D5-A)*%
X168982951Y-75500000D02*
X170083951Y-76601000D01*
%TO.N,Net-(D1-K)*%
X124359000Y-78496049D02*
X126862951Y-81000000D01*
D20*
%TO.N,/RTS*%
X146825000Y-67275000D02*
X145325000Y-67275000D01*
X147325000Y-66775000D02*
X146825000Y-67275000D01*
%TO.N,/SENSE_A*%
X141325000Y-47775000D02*
X141825000Y-47275000D01*
X141825000Y-47275000D02*
X141615000Y-47275000D01*
X139325000Y-47775000D02*
X141325000Y-47775000D01*
X141615000Y-47275000D02*
X141515000Y-47175000D01*
%TO.N,/ENA*%
X137875000Y-46225000D02*
X137875000Y-82557966D01*
%TO.N,Net-(P1-CC)*%
X140267518Y-84925000D02*
X141825000Y-84925000D01*
%TO.N,/ENA*%
X137875000Y-82557966D02*
X137709576Y-82723391D01*
%TO.N,Net-(P1-CC)*%
X147825000Y-140275000D02*
X149825000Y-140275000D01*
%TO.N,/ENA*%
X142825000Y-44275000D02*
X141825000Y-43275000D01*
X138045824Y-108625000D02*
X139094239Y-108625000D01*
X137709576Y-82723391D02*
X137709576Y-83593240D01*
X139094239Y-108625000D02*
X139659167Y-109189928D01*
X137709576Y-83593240D02*
X137875000Y-83758663D01*
X141825000Y-43275000D02*
X140825000Y-43275000D01*
X139659167Y-109189928D02*
X139659167Y-109438308D01*
X137875000Y-83758663D02*
X137875000Y-108454176D01*
X137875000Y-108454176D02*
X138045824Y-108625000D01*
X140825000Y-43275000D02*
X137875000Y-46225000D01*
%TO.N,Net-(P1-CC)*%
X139309953Y-83967435D02*
X140267518Y-84925000D01*
%TO.N,/ENA*%
X142825000Y-45275000D02*
X142825000Y-44275000D01*
%TO.N,/IN1*%
X157325000Y-53275000D02*
X157325000Y-46775000D01*
%TO.N,/GPIO8*%
X144325000Y-51775000D02*
X143475000Y-50925000D01*
X143475000Y-50925000D02*
X143475000Y-50775000D01*
%TO.N,/IN1*%
X157325000Y-46775000D02*
X158325000Y-45775000D01*
%TO.N,/IN3*%
X160675000Y-54474389D02*
X160675000Y-53305761D01*
%TO.N,/IN1*%
X158915000Y-45775000D02*
X159015000Y-45675000D01*
X154325000Y-77775000D02*
X156825000Y-75275000D01*
%TO.N,/IN3*%
X159725000Y-58440686D02*
X159725000Y-58109314D01*
X160675000Y-53305761D02*
X161055761Y-52925000D01*
%TO.N,/IN1*%
X146825000Y-92775000D02*
X154325000Y-85275000D01*
%TO.N,/IN3*%
X159525000Y-107509314D02*
X159525000Y-58640686D01*
%TO.N,/IN1*%
X158825000Y-74775000D02*
X158825000Y-54275000D01*
%TO.N,/IN3*%
X161055761Y-52925000D02*
X161594239Y-52925000D01*
%TO.N,/GPIO8*%
X144394338Y-56791233D02*
X144325000Y-56721895D01*
%TO.N,/IN3*%
X161594239Y-52925000D02*
X161975000Y-52544239D01*
%TO.N,/ENB*%
X161500000Y-96585787D02*
X161500000Y-99185787D01*
%TO.N,/IN3*%
X159525000Y-55624389D02*
X160675000Y-54474389D01*
X158675000Y-108359314D02*
X159525000Y-107509314D01*
%TO.N,/IN1*%
X156825000Y-75275000D02*
X158325000Y-75275000D01*
%TO.N,/IN3*%
X159525000Y-57909314D02*
X159525000Y-55624389D01*
%TO.N,/IN1*%
X154325000Y-85275000D02*
X154325000Y-77775000D01*
X158325000Y-54275000D02*
X157325000Y-53275000D01*
%TO.N,/IN3*%
X161975000Y-49775000D02*
X160975000Y-48775000D01*
%TO.N,/IN1*%
X158825000Y-54275000D02*
X158325000Y-54275000D01*
%TO.N,/ENB*%
X161925708Y-53975345D02*
X161925708Y-96160078D01*
%TO.N,/GPIO8*%
X144325000Y-56721895D02*
X144325000Y-51775000D01*
%TO.N,/IN1*%
X158325000Y-45775000D02*
X158915000Y-45775000D01*
%TO.N,/ENB*%
X160825000Y-108275000D02*
X159926000Y-109174000D01*
%TO.N,/IN3*%
X158675000Y-109274782D02*
X158675000Y-108359314D01*
%TO.N,/ENB*%
X161525363Y-53575000D02*
X161925708Y-53975345D01*
%TO.N,/IN3*%
X159525000Y-58640686D02*
X159725000Y-58440686D01*
X161975000Y-52544239D02*
X161975000Y-49775000D01*
%TO.N,/IN1*%
X158325000Y-75275000D02*
X158825000Y-74775000D01*
%TO.N,/IN3*%
X159725000Y-58109314D02*
X159525000Y-57909314D01*
%TO.N,/IN2*%
X138275000Y-83592978D02*
X138275000Y-107725000D01*
%TO.N,/IN4*%
X162375000Y-49325000D02*
X160325000Y-47275000D01*
%TO.N,/ENB*%
X161925708Y-96160078D02*
X161500000Y-96585787D01*
%TO.N,/IN4*%
X162375000Y-52709924D02*
X162375000Y-49325000D01*
%TO.N,/ENB*%
X161500000Y-99185787D02*
X160825000Y-99860787D01*
%TO.N,/IN2*%
X138109576Y-82889076D02*
X138109576Y-83427554D01*
X138275000Y-107725000D02*
X138775000Y-108225000D01*
X139613479Y-108225000D02*
X139850205Y-108461726D01*
X138109576Y-83427554D02*
X138275000Y-83592978D01*
%TO.N,/ENB*%
X160825000Y-99860787D02*
X160825000Y-108275000D01*
X159926000Y-109174000D02*
X159926000Y-109638658D01*
%TO.N,/IN4*%
X162325708Y-52759217D02*
X162375000Y-52709924D01*
%TO.N,/IN2*%
X141215000Y-44175000D02*
X138275000Y-47115000D01*
X138775000Y-108225000D02*
X139613479Y-108225000D01*
%TO.N,/IN4*%
X161225000Y-100026472D02*
X161900000Y-99351472D01*
X161225000Y-109375000D02*
X161225000Y-100026472D01*
%TO.N,/GPIO9*%
X143566714Y-56597475D02*
X143325000Y-56355761D01*
%TO.N,/IN2*%
X138275000Y-47115000D02*
X138275000Y-82723652D01*
%TO.N,/IN4*%
X160825000Y-109775000D02*
X161225000Y-109375000D01*
X162325708Y-96325764D02*
X162325708Y-52759217D01*
%TO.N,/GPIO9*%
X143325000Y-56355761D02*
X143325000Y-52425000D01*
X143325000Y-52425000D02*
X143475000Y-52275000D01*
%TO.N,/IN4*%
X161900000Y-99351472D02*
X161900000Y-96751472D01*
X161900000Y-96751472D02*
X162325708Y-96325764D01*
%TO.N,/IN2*%
X138275000Y-82723652D02*
X138109576Y-82889076D01*
X141515000Y-44175000D02*
X141215000Y-44175000D01*
%TO.N,/RX_TX*%
X156825000Y-55853555D02*
X156825000Y-50425000D01*
X156444527Y-57394527D02*
X157362585Y-58312585D01*
X156444527Y-56234027D02*
X156825000Y-55853555D01*
X156825000Y-50425000D02*
X156675000Y-50275000D01*
X157362585Y-58312585D02*
X157362585Y-58524974D01*
X156444527Y-56234027D02*
X156444527Y-57394527D01*
%TO.N,/TX_RX*%
X157825000Y-54775000D02*
X158325000Y-55275000D01*
%TO.N,Net-(U4-UD-)*%
X151497500Y-78087500D02*
X151497500Y-77087500D01*
X151497500Y-77087500D02*
X150135000Y-75725000D01*
%TO.N,Net-(P1-D-)*%
X147648548Y-82798952D02*
X145738040Y-82798952D01*
X142690693Y-84771178D02*
X142690693Y-84910973D01*
%TO.N,Net-(U4-UD-)*%
X150135000Y-75725000D02*
X149986438Y-75873562D01*
%TO.N,/TX_RX*%
X158325000Y-55275000D02*
X158325000Y-58125000D01*
%TO.N,Net-(P1-D-)*%
X140012002Y-83488236D02*
X141407751Y-83488236D01*
%TO.N,/TX_RX*%
X158325000Y-58125000D02*
X158175000Y-58275000D01*
%TO.N,Net-(P1-D-)*%
X141407751Y-83488236D02*
X142690693Y-84771178D01*
X150085000Y-80362500D02*
X147648548Y-82798952D01*
%TO.N,Net-(P1-D+)*%
X140081543Y-82675000D02*
X141857783Y-82675000D01*
X141857783Y-82675000D02*
X142331661Y-83148878D01*
X146501036Y-82046464D02*
X145262882Y-82046464D01*
X139975000Y-82568457D02*
X140081543Y-82675000D01*
X142331661Y-83148878D02*
X142725000Y-83148878D01*
X148185000Y-80362500D02*
X146501036Y-82046464D01*
%TO.N,Net-(FB1-Pad1)*%
X145825000Y-85275000D02*
X145700000Y-85275000D01*
X145825000Y-83775000D02*
X145825000Y-85275000D01*
X144825000Y-82775000D02*
X145825000Y-83775000D01*
X140325000Y-81275000D02*
X141325000Y-82275000D01*
X141325000Y-82275000D02*
X142325000Y-82275000D01*
X145700000Y-85275000D02*
X145635000Y-85210000D01*
%TD*%
%TA.AperFunction,Conductor*%
%TO.N,GND*%
G36*
X149175892Y-60024668D02*
G01*
X149184512Y-60023072D01*
X149209224Y-60033175D01*
X149235097Y-60039779D01*
X149245896Y-60048168D01*
X149249185Y-60049513D01*
X149251048Y-60052170D01*
X149259505Y-60058740D01*
X150188181Y-60987416D01*
X150221666Y-61048739D01*
X150224500Y-61075097D01*
X150224500Y-62195234D01*
X150204815Y-62262273D01*
X150203602Y-62264125D01*
X150115609Y-62395814D01*
X150115602Y-62395827D01*
X150055264Y-62541498D01*
X150055261Y-62541508D01*
X150024362Y-62696848D01*
X149991977Y-62758759D01*
X149990426Y-62760337D01*
X149456286Y-63294478D01*
X149344481Y-63406282D01*
X149344479Y-63406284D01*
X149324769Y-63440425D01*
X149305096Y-63474500D01*
X149265423Y-63543215D01*
X149224499Y-63695943D01*
X149224499Y-63695945D01*
X149224499Y-63864046D01*
X149224500Y-63864059D01*
X149224500Y-65688330D01*
X149224499Y-65688348D01*
X149224499Y-65854054D01*
X149224498Y-65854054D01*
X149265424Y-66006789D01*
X149265425Y-66006790D01*
X149286455Y-66043214D01*
X149286456Y-66043216D01*
X149344475Y-66143709D01*
X149344479Y-66143714D01*
X149344480Y-66143716D01*
X149456284Y-66255520D01*
X149456285Y-66255521D01*
X149956284Y-66755520D01*
X149956286Y-66755521D01*
X149956290Y-66755524D01*
X150017048Y-66790602D01*
X150093216Y-66834577D01*
X150245943Y-66875501D01*
X150245945Y-66875501D01*
X150411654Y-66875501D01*
X150411670Y-66875500D01*
X153024903Y-66875500D01*
X153091942Y-66895185D01*
X153112584Y-66911819D01*
X156840139Y-70639374D01*
X156840149Y-70639385D01*
X156844479Y-70643715D01*
X156844480Y-70643716D01*
X156956284Y-70755520D01*
X157043095Y-70805639D01*
X157043097Y-70805641D01*
X157093213Y-70834576D01*
X157093215Y-70834577D01*
X157245942Y-70875500D01*
X157245943Y-70875500D01*
X157595234Y-70875500D01*
X157662273Y-70895185D01*
X157664125Y-70896398D01*
X157795814Y-70984390D01*
X157795827Y-70984397D01*
X157941498Y-71044735D01*
X157941503Y-71044737D01*
X158096153Y-71075499D01*
X158096156Y-71075500D01*
X158096158Y-71075500D01*
X158100500Y-71075500D01*
X158167539Y-71095185D01*
X158213294Y-71147989D01*
X158224500Y-71199500D01*
X158224500Y-74474901D01*
X158215856Y-74504337D01*
X158209333Y-74534327D01*
X158205577Y-74539344D01*
X158204815Y-74541940D01*
X158188182Y-74562582D01*
X158112584Y-74638181D01*
X158051261Y-74671666D01*
X158024902Y-74674500D01*
X156911669Y-74674500D01*
X156911653Y-74674499D01*
X156904057Y-74674499D01*
X156745943Y-74674499D01*
X156638587Y-74703265D01*
X156593210Y-74715424D01*
X156593209Y-74715425D01*
X156543096Y-74744359D01*
X156543095Y-74744360D01*
X156499689Y-74769420D01*
X156456285Y-74794479D01*
X156456282Y-74794481D01*
X153844481Y-77406282D01*
X153844480Y-77406284D01*
X153810170Y-77465711D01*
X153765423Y-77543215D01*
X153724499Y-77695943D01*
X153724499Y-77695945D01*
X153724499Y-77864046D01*
X153724500Y-77864059D01*
X153724500Y-84974902D01*
X153704815Y-85041941D01*
X153688181Y-85062583D01*
X146810339Y-91940425D01*
X146749016Y-91973910D01*
X146746850Y-91974361D01*
X146591508Y-92005261D01*
X146591498Y-92005264D01*
X146445827Y-92065602D01*
X146445814Y-92065609D01*
X146314711Y-92153210D01*
X146314707Y-92153213D01*
X146203213Y-92264707D01*
X146203210Y-92264711D01*
X146115609Y-92395814D01*
X146115602Y-92395827D01*
X146055264Y-92541498D01*
X146055261Y-92541510D01*
X146024500Y-92696153D01*
X146024500Y-92853846D01*
X146055261Y-93008489D01*
X146055264Y-93008501D01*
X146115602Y-93154172D01*
X146115609Y-93154185D01*
X146203210Y-93285288D01*
X146203213Y-93285292D01*
X146314707Y-93396786D01*
X146314711Y-93396789D01*
X146445814Y-93484390D01*
X146445827Y-93484397D01*
X146591498Y-93544735D01*
X146591503Y-93544737D01*
X146746153Y-93575499D01*
X146746156Y-93575500D01*
X146746158Y-93575500D01*
X146903844Y-93575500D01*
X146903845Y-93575499D01*
X147058497Y-93544737D01*
X147204179Y-93484394D01*
X147335289Y-93396789D01*
X147446789Y-93285289D01*
X147534394Y-93154179D01*
X147594737Y-93008497D01*
X147614113Y-92911085D01*
X147625638Y-92853150D01*
X147658023Y-92791239D01*
X147659518Y-92789716D01*
X154805520Y-85643716D01*
X154884577Y-85506784D01*
X154925501Y-85354057D01*
X154925501Y-85195942D01*
X154925501Y-85188347D01*
X154925500Y-85188329D01*
X154925500Y-78075097D01*
X154945185Y-78008058D01*
X154961819Y-77987416D01*
X157037416Y-75911819D01*
X157098739Y-75878334D01*
X157125097Y-75875500D01*
X158238331Y-75875500D01*
X158238347Y-75875501D01*
X158245943Y-75875501D01*
X158404054Y-75875501D01*
X158404057Y-75875501D01*
X158556785Y-75834577D01*
X158610019Y-75803842D01*
X158693716Y-75755520D01*
X158721153Y-75728082D01*
X158730903Y-75721471D01*
X158753404Y-75714255D01*
X158774142Y-75702932D01*
X158786058Y-75703784D01*
X158797436Y-75700136D01*
X158820263Y-75706230D01*
X158843834Y-75707916D01*
X158853399Y-75715076D01*
X158864941Y-75718158D01*
X158880850Y-75735627D01*
X158899767Y-75749788D01*
X158903941Y-75760981D01*
X158911987Y-75769815D01*
X158915926Y-75793113D01*
X158924184Y-75815252D01*
X158924500Y-75824098D01*
X158924500Y-107209216D01*
X158904815Y-107276255D01*
X158888181Y-107296897D01*
X158194481Y-107990596D01*
X158194479Y-107990598D01*
X158183694Y-108009280D01*
X158174907Y-108024500D01*
X158115423Y-108127529D01*
X158074499Y-108280257D01*
X158074499Y-108280259D01*
X158074499Y-108448360D01*
X158074500Y-108448373D01*
X158074500Y-108695016D01*
X158054815Y-108762055D01*
X158053602Y-108763907D01*
X157965609Y-108895596D01*
X157965602Y-108895609D01*
X157905264Y-109041280D01*
X157905261Y-109041292D01*
X157874500Y-109195935D01*
X157874500Y-109353628D01*
X157905261Y-109508271D01*
X157905264Y-109508283D01*
X157965602Y-109653954D01*
X157965609Y-109653967D01*
X158053210Y-109785070D01*
X158053213Y-109785074D01*
X158164707Y-109896568D01*
X158164711Y-109896571D01*
X158295814Y-109984172D01*
X158295827Y-109984179D01*
X158441498Y-110044517D01*
X158441503Y-110044519D01*
X158596153Y-110075281D01*
X158596156Y-110075282D01*
X158596158Y-110075282D01*
X158753844Y-110075282D01*
X158753845Y-110075281D01*
X158908497Y-110044519D01*
X159054179Y-109984176D01*
X159054189Y-109984169D01*
X159058154Y-109982050D01*
X159126555Y-109967797D01*
X159191802Y-109992788D01*
X159219726Y-110022508D01*
X159304210Y-110148946D01*
X159304213Y-110148950D01*
X159415707Y-110260444D01*
X159415711Y-110260447D01*
X159546814Y-110348048D01*
X159546827Y-110348055D01*
X159674862Y-110401088D01*
X159692503Y-110408395D01*
X159842226Y-110438177D01*
X159847153Y-110439157D01*
X159847156Y-110439158D01*
X159847158Y-110439158D01*
X160004844Y-110439158D01*
X160004845Y-110439157D01*
X160159497Y-110408395D01*
X160204802Y-110389628D01*
X160274268Y-110382160D01*
X160321144Y-110401088D01*
X160445814Y-110484390D01*
X160445827Y-110484397D01*
X160591498Y-110544735D01*
X160591503Y-110544737D01*
X160746153Y-110575499D01*
X160746156Y-110575500D01*
X160746158Y-110575500D01*
X160903844Y-110575500D01*
X160903845Y-110575499D01*
X161058497Y-110544737D01*
X161204179Y-110484394D01*
X161335289Y-110396789D01*
X161446789Y-110285289D01*
X161534394Y-110154179D01*
X161537079Y-110147698D01*
X161579725Y-110044739D01*
X161594737Y-110008497D01*
X161625500Y-109853842D01*
X161625500Y-109853840D01*
X161625637Y-109853152D01*
X161658021Y-109791241D01*
X161659516Y-109789719D01*
X161705520Y-109743716D01*
X161784577Y-109606784D01*
X161822066Y-109466873D01*
X161825500Y-109454058D01*
X161825500Y-109295943D01*
X161825500Y-101706941D01*
X161845185Y-101639902D01*
X161897989Y-101594147D01*
X161967147Y-101584203D01*
X162030703Y-101613228D01*
X162037181Y-101619260D01*
X162064707Y-101646786D01*
X162064711Y-101646789D01*
X162195814Y-101734390D01*
X162195827Y-101734397D01*
X162273356Y-101766510D01*
X162341503Y-101794737D01*
X162496153Y-101825499D01*
X162496156Y-101825500D01*
X162496158Y-101825500D01*
X162653844Y-101825500D01*
X162653845Y-101825499D01*
X162808497Y-101794737D01*
X162954179Y-101734394D01*
X163085289Y-101646789D01*
X163196789Y-101535289D01*
X163284394Y-101404179D01*
X163344737Y-101258497D01*
X163375500Y-101103842D01*
X163375500Y-100946158D01*
X163375500Y-100946155D01*
X163375499Y-100946153D01*
X163362696Y-100881789D01*
X163344737Y-100791503D01*
X163344367Y-100790609D01*
X163298971Y-100681012D01*
X163298969Y-100681009D01*
X163284394Y-100645821D01*
X163274593Y-100631153D01*
X167524500Y-100631153D01*
X167524500Y-100853846D01*
X167555261Y-101008489D01*
X167555264Y-101008501D01*
X167615602Y-101154172D01*
X167615609Y-101154185D01*
X167703210Y-101285288D01*
X167703213Y-101285292D01*
X167814707Y-101396786D01*
X167814711Y-101396789D01*
X167945814Y-101484390D01*
X167945827Y-101484397D01*
X168091498Y-101544735D01*
X168091503Y-101544737D01*
X168246153Y-101575499D01*
X168246156Y-101575500D01*
X168246158Y-101575500D01*
X168403844Y-101575500D01*
X168403845Y-101575499D01*
X168558497Y-101544737D01*
X168704179Y-101484394D01*
X168835289Y-101396789D01*
X168946789Y-101285289D01*
X169034394Y-101154179D01*
X169094737Y-101008497D01*
X169125500Y-100853842D01*
X169125500Y-100631158D01*
X169125500Y-100631155D01*
X169125499Y-100631153D01*
X169101457Y-100510289D01*
X169094737Y-100476503D01*
X169094735Y-100476498D01*
X169034397Y-100330827D01*
X169034390Y-100330814D01*
X168946789Y-100199711D01*
X168946786Y-100199707D01*
X168835292Y-100088213D01*
X168835288Y-100088210D01*
X168704185Y-100000609D01*
X168704172Y-100000602D01*
X168558501Y-99940264D01*
X168558489Y-99940261D01*
X168403845Y-99909500D01*
X168403842Y-99909500D01*
X168246158Y-99909500D01*
X168246155Y-99909500D01*
X168091510Y-99940261D01*
X168091498Y-99940264D01*
X167945827Y-100000602D01*
X167945814Y-100000609D01*
X167814711Y-100088210D01*
X167814707Y-100088213D01*
X167703213Y-100199707D01*
X167703210Y-100199711D01*
X167615609Y-100330814D01*
X167615602Y-100330827D01*
X167555264Y-100476498D01*
X167555261Y-100476510D01*
X167524500Y-100631153D01*
X163274593Y-100631153D01*
X163219850Y-100549224D01*
X163218304Y-100546649D01*
X163210215Y-100515630D01*
X163200636Y-100485037D01*
X163201457Y-100482043D01*
X163200674Y-100479040D01*
X163210638Y-100448575D01*
X163219120Y-100417656D01*
X163221900Y-100414142D01*
X163222394Y-100412633D01*
X163224364Y-100411028D01*
X163236931Y-100395146D01*
X166987819Y-96644257D01*
X167049142Y-96610773D01*
X167118834Y-96615757D01*
X167174767Y-96657629D01*
X167199184Y-96723093D01*
X167199500Y-96731939D01*
X167199500Y-97078846D01*
X167230261Y-97233489D01*
X167230264Y-97233501D01*
X167290602Y-97379172D01*
X167290609Y-97379185D01*
X167378210Y-97510288D01*
X167378213Y-97510292D01*
X167489707Y-97621786D01*
X167489711Y-97621789D01*
X167620814Y-97709390D01*
X167620827Y-97709397D01*
X167766498Y-97769735D01*
X167766503Y-97769737D01*
X167921153Y-97800499D01*
X167921156Y-97800500D01*
X167921158Y-97800500D01*
X168078844Y-97800500D01*
X168078845Y-97800499D01*
X168233497Y-97769737D01*
X168379179Y-97709394D01*
X168510289Y-97621789D01*
X170121788Y-96010290D01*
X170121789Y-96010289D01*
X170209394Y-95879179D01*
X170241337Y-95802060D01*
X170252061Y-95776170D01*
X170252062Y-95776168D01*
X170269736Y-95733500D01*
X170269739Y-95733490D01*
X170300499Y-95578847D01*
X170300500Y-95578845D01*
X170300500Y-90227350D01*
X170320185Y-90160311D01*
X170372989Y-90114556D01*
X170442147Y-90104612D01*
X170493391Y-90124248D01*
X170620814Y-90209390D01*
X170620827Y-90209397D01*
X170766498Y-90269735D01*
X170766503Y-90269737D01*
X170921153Y-90300499D01*
X170921156Y-90300500D01*
X170921158Y-90300500D01*
X171078844Y-90300500D01*
X171078845Y-90300499D01*
X171233497Y-90269737D01*
X171379179Y-90209394D01*
X171510289Y-90121789D01*
X171621789Y-90010289D01*
X171709394Y-89879179D01*
X171760939Y-89754738D01*
X171804779Y-89700334D01*
X171871074Y-89678269D01*
X171938773Y-89695548D01*
X171986384Y-89746685D01*
X171999500Y-89802190D01*
X171999500Y-145153846D01*
X171979815Y-145220885D01*
X171927011Y-145266640D01*
X171857853Y-145276584D01*
X171794297Y-145247559D01*
X171787819Y-145241527D01*
X171689704Y-145143412D01*
X171689697Y-145143406D01*
X171502454Y-144999730D01*
X171502453Y-144999729D01*
X171502450Y-144999727D01*
X171420957Y-144952677D01*
X171298056Y-144881719D01*
X171298045Y-144881714D01*
X171079993Y-144791394D01*
X170852010Y-144730306D01*
X170618020Y-144699501D01*
X170618017Y-144699500D01*
X170618011Y-144699500D01*
X170381989Y-144699500D01*
X170381983Y-144699500D01*
X170381979Y-144699501D01*
X170147989Y-144730306D01*
X169920006Y-144791394D01*
X169701954Y-144881714D01*
X169701943Y-144881719D01*
X169497545Y-144999730D01*
X169310302Y-145143406D01*
X169310295Y-145143412D01*
X169143412Y-145310295D01*
X169143406Y-145310302D01*
X168999730Y-145497545D01*
X168881719Y-145701943D01*
X168881714Y-145701954D01*
X168791394Y-145920006D01*
X168730306Y-146147989D01*
X168699501Y-146381979D01*
X168699500Y-146381995D01*
X168699500Y-146618004D01*
X168699501Y-146618020D01*
X168730306Y-146852010D01*
X168791394Y-147079993D01*
X168881714Y-147298045D01*
X168881719Y-147298056D01*
X168952677Y-147420957D01*
X168999727Y-147502450D01*
X168999729Y-147502453D01*
X168999730Y-147502454D01*
X169143406Y-147689697D01*
X169143412Y-147689704D01*
X169241527Y-147787819D01*
X169275012Y-147849142D01*
X169270028Y-147918834D01*
X169228156Y-147974767D01*
X169162692Y-147999184D01*
X169153846Y-147999500D01*
X155497429Y-147999500D01*
X155430390Y-147979815D01*
X155384635Y-147927011D01*
X155374691Y-147857853D01*
X155382868Y-147828047D01*
X155396156Y-147795967D01*
X155431091Y-147711627D01*
X155470500Y-147513503D01*
X155470500Y-146111497D01*
X155431091Y-145913373D01*
X155353786Y-145726744D01*
X155353784Y-145726741D01*
X155353782Y-145726737D01*
X155241558Y-145558781D01*
X155098718Y-145415941D01*
X154930762Y-145303717D01*
X154930752Y-145303712D01*
X154744127Y-145226409D01*
X154744119Y-145226407D01*
X154546007Y-145187000D01*
X154546003Y-145187000D01*
X154343997Y-145187000D01*
X154343992Y-145187000D01*
X154145880Y-145226407D01*
X154145872Y-145226409D01*
X153959247Y-145303712D01*
X153959237Y-145303717D01*
X153791281Y-145415941D01*
X153791278Y-145415944D01*
X153712181Y-145495042D01*
X153650858Y-145528527D01*
X153581166Y-145523543D01*
X153525233Y-145481671D01*
X153500816Y-145416207D01*
X153500500Y-145407361D01*
X153500500Y-144434110D01*
X153500500Y-144434108D01*
X153466392Y-144306814D01*
X153400500Y-144192686D01*
X153307314Y-144099500D01*
X153250250Y-144066554D01*
X153193187Y-144033608D01*
X153129539Y-144016554D01*
X153065892Y-143999500D01*
X144565892Y-143999500D01*
X144434108Y-143999500D01*
X144306812Y-144033608D01*
X144192686Y-144099500D01*
X144192683Y-144099502D01*
X144099502Y-144192683D01*
X144099500Y-144192686D01*
X144033608Y-144306812D01*
X143999500Y-144434108D01*
X143999500Y-145278021D01*
X143979815Y-145345060D01*
X143927011Y-145390815D01*
X143857853Y-145400759D01*
X143806610Y-145381124D01*
X143690760Y-145303716D01*
X143690752Y-145303712D01*
X143504127Y-145226409D01*
X143504119Y-145226407D01*
X143306007Y-145187000D01*
X143306003Y-145187000D01*
X143103997Y-145187000D01*
X143103992Y-145187000D01*
X142905880Y-145226407D01*
X142905872Y-145226409D01*
X142719247Y-145303712D01*
X142719237Y-145303717D01*
X142551281Y-145415941D01*
X142408441Y-145558781D01*
X142296217Y-145726737D01*
X142296212Y-145726747D01*
X142218909Y-145913372D01*
X142218907Y-145913380D01*
X142179500Y-146111492D01*
X142179500Y-147513507D01*
X142218907Y-147711619D01*
X142218909Y-147711627D01*
X142267132Y-147828047D01*
X142274601Y-147897517D01*
X142243326Y-147959996D01*
X142183237Y-147995648D01*
X142152571Y-147999500D01*
X126846154Y-147999500D01*
X126779115Y-147979815D01*
X126733360Y-147927011D01*
X126723416Y-147857853D01*
X126752441Y-147794297D01*
X126758473Y-147787819D01*
X126856587Y-147689704D01*
X126856592Y-147689699D01*
X127000273Y-147502450D01*
X127118284Y-147298049D01*
X127208606Y-147079993D01*
X127269693Y-146852014D01*
X127300500Y-146618011D01*
X127300500Y-146381989D01*
X127269693Y-146147986D01*
X127208606Y-145920007D01*
X127118284Y-145701951D01*
X127118282Y-145701948D01*
X127118280Y-145701943D01*
X127035625Y-145558782D01*
X127000273Y-145497550D01*
X126926003Y-145400759D01*
X126856593Y-145310302D01*
X126856587Y-145310295D01*
X126689704Y-145143412D01*
X126689697Y-145143406D01*
X126502454Y-144999730D01*
X126502453Y-144999729D01*
X126502450Y-144999727D01*
X126420957Y-144952677D01*
X126298056Y-144881719D01*
X126298045Y-144881714D01*
X126079993Y-144791394D01*
X125852010Y-144730306D01*
X125618020Y-144699501D01*
X125618017Y-144699500D01*
X125618011Y-144699500D01*
X125381989Y-144699500D01*
X125381983Y-144699500D01*
X125381979Y-144699501D01*
X125147989Y-144730306D01*
X124920006Y-144791394D01*
X124701954Y-144881714D01*
X124701943Y-144881719D01*
X124497545Y-144999730D01*
X124310302Y-145143406D01*
X124310295Y-145143412D01*
X124212181Y-145241527D01*
X124150858Y-145275012D01*
X124081166Y-145270028D01*
X124025233Y-145228156D01*
X124000816Y-145162692D01*
X124000500Y-145153846D01*
X124000500Y-143921153D01*
X128199500Y-143921153D01*
X128199500Y-144078846D01*
X128230261Y-144233489D01*
X128230264Y-144233501D01*
X128290602Y-144379172D01*
X128290609Y-144379185D01*
X128378210Y-144510288D01*
X128378213Y-144510292D01*
X128489707Y-144621786D01*
X128489711Y-144621789D01*
X128620814Y-144709390D01*
X128620827Y-144709397D01*
X128766498Y-144769735D01*
X128766503Y-144769737D01*
X128921153Y-144800499D01*
X128921156Y-144800500D01*
X128921158Y-144800500D01*
X129078844Y-144800500D01*
X129078845Y-144800499D01*
X129233497Y-144769737D01*
X129379179Y-144709394D01*
X129510289Y-144621789D01*
X129621789Y-144510289D01*
X129709394Y-144379179D01*
X129769737Y-144233497D01*
X129800500Y-144078842D01*
X129800500Y-143921158D01*
X129800500Y-143921155D01*
X129800499Y-143921153D01*
X129769738Y-143766510D01*
X129769737Y-143766503D01*
X129741471Y-143698262D01*
X129709397Y-143620827D01*
X129709390Y-143620814D01*
X129621789Y-143489711D01*
X129621786Y-143489707D01*
X129510292Y-143378213D01*
X129510288Y-143378210D01*
X129379185Y-143290609D01*
X129379172Y-143290602D01*
X129233501Y-143230264D01*
X129233489Y-143230261D01*
X129078845Y-143199500D01*
X129078842Y-143199500D01*
X128921158Y-143199500D01*
X128921155Y-143199500D01*
X128766510Y-143230261D01*
X128766498Y-143230264D01*
X128620827Y-143290602D01*
X128620814Y-143290609D01*
X128489711Y-143378210D01*
X128489707Y-143378213D01*
X128378213Y-143489707D01*
X128378210Y-143489711D01*
X128290609Y-143620814D01*
X128290602Y-143620827D01*
X128230264Y-143766498D01*
X128230261Y-143766510D01*
X128199500Y-143921153D01*
X124000500Y-143921153D01*
X124000500Y-142311492D01*
X142179500Y-142311492D01*
X142179500Y-143313507D01*
X142218907Y-143511619D01*
X142218909Y-143511627D01*
X142296212Y-143698252D01*
X142296217Y-143698262D01*
X142408441Y-143866218D01*
X142551281Y-144009058D01*
X142719237Y-144121282D01*
X142719241Y-144121284D01*
X142719244Y-144121286D01*
X142905873Y-144198591D01*
X143081359Y-144233497D01*
X143103992Y-144237999D01*
X143103996Y-144238000D01*
X143103997Y-144238000D01*
X143306004Y-144238000D01*
X143306005Y-144237999D01*
X143504127Y-144198591D01*
X143690756Y-144121286D01*
X143858718Y-144009058D01*
X144001558Y-143866218D01*
X144113786Y-143698256D01*
X144191091Y-143511627D01*
X144230500Y-143313503D01*
X144230500Y-142311497D01*
X144230499Y-142311492D01*
X153419500Y-142311492D01*
X153419500Y-143313507D01*
X153458907Y-143511619D01*
X153458909Y-143511627D01*
X153536212Y-143698252D01*
X153536217Y-143698262D01*
X153648441Y-143866218D01*
X153791281Y-144009058D01*
X153959237Y-144121282D01*
X153959241Y-144121284D01*
X153959244Y-144121286D01*
X154145873Y-144198591D01*
X154321359Y-144233497D01*
X154343992Y-144237999D01*
X154343996Y-144238000D01*
X154343997Y-144238000D01*
X154546004Y-144238000D01*
X154546005Y-144237999D01*
X154744127Y-144198591D01*
X154930756Y-144121286D01*
X155098718Y-144009058D01*
X155241558Y-143866218D01*
X155353786Y-143698256D01*
X155431091Y-143511627D01*
X155449087Y-143421153D01*
X165699500Y-143421153D01*
X165699500Y-143578846D01*
X165730261Y-143733489D01*
X165730264Y-143733501D01*
X165790602Y-143879172D01*
X165790609Y-143879185D01*
X165878210Y-144010288D01*
X165878213Y-144010292D01*
X165989707Y-144121786D01*
X165989711Y-144121789D01*
X166120814Y-144209390D01*
X166120827Y-144209397D01*
X166266498Y-144269735D01*
X166266503Y-144269737D01*
X166421153Y-144300499D01*
X166421156Y-144300500D01*
X166421158Y-144300500D01*
X166578844Y-144300500D01*
X166578845Y-144300499D01*
X166733497Y-144269737D01*
X166879179Y-144209394D01*
X167010289Y-144121789D01*
X167121789Y-144010289D01*
X167209394Y-143879179D01*
X167269737Y-143733497D01*
X167300500Y-143578842D01*
X167300500Y-143421158D01*
X167300500Y-143421155D01*
X167300499Y-143421153D01*
X167291957Y-143378210D01*
X167269737Y-143266503D01*
X167269735Y-143266498D01*
X167209397Y-143120827D01*
X167209390Y-143120814D01*
X167121789Y-142989711D01*
X167121786Y-142989707D01*
X167010292Y-142878213D01*
X167010288Y-142878210D01*
X166879185Y-142790609D01*
X166879172Y-142790602D01*
X166733501Y-142730264D01*
X166733489Y-142730261D01*
X166578845Y-142699500D01*
X166578842Y-142699500D01*
X166421158Y-142699500D01*
X166421155Y-142699500D01*
X166266510Y-142730261D01*
X166266498Y-142730264D01*
X166120827Y-142790602D01*
X166120814Y-142790609D01*
X165989711Y-142878210D01*
X165989707Y-142878213D01*
X165878213Y-142989707D01*
X165878210Y-142989711D01*
X165790609Y-143120814D01*
X165790602Y-143120827D01*
X165730264Y-143266498D01*
X165730261Y-143266510D01*
X165699500Y-143421153D01*
X155449087Y-143421153D01*
X155470500Y-143313503D01*
X155470500Y-142311497D01*
X155431091Y-142113373D01*
X155353786Y-141926744D01*
X155353784Y-141926741D01*
X155353782Y-141926737D01*
X155241558Y-141758781D01*
X155098718Y-141615941D01*
X154930762Y-141503717D01*
X154930752Y-141503712D01*
X154744127Y-141426409D01*
X154744119Y-141426407D01*
X154546007Y-141387000D01*
X154546003Y-141387000D01*
X154343997Y-141387000D01*
X154343992Y-141387000D01*
X154145880Y-141426407D01*
X154145872Y-141426409D01*
X153959247Y-141503712D01*
X153959237Y-141503717D01*
X153791281Y-141615941D01*
X153648441Y-141758781D01*
X153536217Y-141926737D01*
X153536212Y-141926747D01*
X153458909Y-142113372D01*
X153458907Y-142113380D01*
X153419500Y-142311492D01*
X144230499Y-142311492D01*
X144191091Y-142113373D01*
X144113786Y-141926744D01*
X144113784Y-141926741D01*
X144113782Y-141926737D01*
X144001558Y-141758781D01*
X143858718Y-141615941D01*
X143690762Y-141503717D01*
X143690752Y-141503712D01*
X143504127Y-141426409D01*
X143504119Y-141426407D01*
X143306007Y-141387000D01*
X143306003Y-141387000D01*
X143103997Y-141387000D01*
X143103992Y-141387000D01*
X142905880Y-141426407D01*
X142905872Y-141426409D01*
X142719247Y-141503712D01*
X142719237Y-141503717D01*
X142551281Y-141615941D01*
X142408441Y-141758781D01*
X142296217Y-141926737D01*
X142296212Y-141926747D01*
X142218909Y-142113372D01*
X142218907Y-142113380D01*
X142179500Y-142311492D01*
X124000500Y-142311492D01*
X124000500Y-140196153D01*
X147024500Y-140196153D01*
X147024500Y-140353846D01*
X147055261Y-140508489D01*
X147055264Y-140508501D01*
X147115602Y-140654172D01*
X147115609Y-140654185D01*
X147203210Y-140785288D01*
X147203213Y-140785292D01*
X147314707Y-140896786D01*
X147314711Y-140896789D01*
X147445814Y-140984390D01*
X147445827Y-140984397D01*
X147591498Y-141044735D01*
X147591503Y-141044737D01*
X147746153Y-141075499D01*
X147746156Y-141075500D01*
X147746158Y-141075500D01*
X147903844Y-141075500D01*
X147903845Y-141075499D01*
X148058497Y-141044737D01*
X148204179Y-140984394D01*
X148204185Y-140984390D01*
X148335875Y-140896398D01*
X148402553Y-140875520D01*
X148404766Y-140875500D01*
X149245234Y-140875500D01*
X149312273Y-140895185D01*
X149314125Y-140896398D01*
X149445814Y-140984390D01*
X149445827Y-140984397D01*
X149591498Y-141044735D01*
X149591503Y-141044737D01*
X149746153Y-141075499D01*
X149746156Y-141075500D01*
X149746158Y-141075500D01*
X149903844Y-141075500D01*
X149903845Y-141075499D01*
X150058497Y-141044737D01*
X150204179Y-140984394D01*
X150335289Y-140896789D01*
X150446789Y-140785289D01*
X150534394Y-140654179D01*
X150594737Y-140508497D01*
X150625500Y-140353842D01*
X150625500Y-140196158D01*
X150625500Y-140196155D01*
X150625499Y-140196153D01*
X150594738Y-140041510D01*
X150594737Y-140041503D01*
X150594735Y-140041498D01*
X150534397Y-139895827D01*
X150534390Y-139895814D01*
X150446789Y-139764711D01*
X150446786Y-139764707D01*
X150335292Y-139653213D01*
X150335288Y-139653210D01*
X150204185Y-139565609D01*
X150204172Y-139565602D01*
X150058501Y-139505264D01*
X150058489Y-139505261D01*
X149903845Y-139474500D01*
X149903842Y-139474500D01*
X149746158Y-139474500D01*
X149746155Y-139474500D01*
X149591510Y-139505261D01*
X149591498Y-139505264D01*
X149445827Y-139565602D01*
X149445814Y-139565609D01*
X149314125Y-139653602D01*
X149247447Y-139674480D01*
X149245234Y-139674500D01*
X148404766Y-139674500D01*
X148337727Y-139654815D01*
X148335875Y-139653602D01*
X148204185Y-139565609D01*
X148204172Y-139565602D01*
X148058501Y-139505264D01*
X148058489Y-139505261D01*
X147903845Y-139474500D01*
X147903842Y-139474500D01*
X147746158Y-139474500D01*
X147746155Y-139474500D01*
X147591510Y-139505261D01*
X147591498Y-139505264D01*
X147445827Y-139565602D01*
X147445814Y-139565609D01*
X147314711Y-139653210D01*
X147314707Y-139653213D01*
X147203213Y-139764707D01*
X147203210Y-139764711D01*
X147115609Y-139895814D01*
X147115602Y-139895827D01*
X147055264Y-140041498D01*
X147055261Y-140041510D01*
X147024500Y-140196153D01*
X124000500Y-140196153D01*
X124000500Y-138845134D01*
X124020185Y-138778095D01*
X124072989Y-138732340D01*
X124142147Y-138722396D01*
X124171950Y-138730572D01*
X124266503Y-138769737D01*
X124421153Y-138800499D01*
X124421156Y-138800500D01*
X124421158Y-138800500D01*
X124578844Y-138800500D01*
X124578845Y-138800499D01*
X124733497Y-138769737D01*
X124879179Y-138709394D01*
X125010289Y-138621789D01*
X125121789Y-138510289D01*
X125209394Y-138379179D01*
X125269737Y-138233497D01*
X125300500Y-138078842D01*
X125300500Y-137921158D01*
X125300500Y-137921155D01*
X125300499Y-137921153D01*
X125269738Y-137766510D01*
X125269737Y-137766503D01*
X125269735Y-137766498D01*
X125209397Y-137620827D01*
X125209390Y-137620814D01*
X125121789Y-137489711D01*
X125121786Y-137489707D01*
X125010292Y-137378213D01*
X125010288Y-137378210D01*
X124879185Y-137290609D01*
X124879172Y-137290602D01*
X124733501Y-137230264D01*
X124733489Y-137230261D01*
X124578845Y-137199500D01*
X124578842Y-137199500D01*
X124421158Y-137199500D01*
X124421155Y-137199500D01*
X124266510Y-137230261D01*
X124266507Y-137230261D01*
X124171952Y-137269427D01*
X124102482Y-137276895D01*
X124040003Y-137245619D01*
X124004351Y-137185530D01*
X124000500Y-137154865D01*
X124000500Y-117921153D01*
X128199500Y-117921153D01*
X128199500Y-118078846D01*
X128230261Y-118233489D01*
X128230264Y-118233501D01*
X128290602Y-118379172D01*
X128290609Y-118379185D01*
X128378210Y-118510288D01*
X128378213Y-118510292D01*
X128489707Y-118621786D01*
X128489711Y-118621789D01*
X128620814Y-118709390D01*
X128620827Y-118709397D01*
X128758693Y-118766502D01*
X128766503Y-118769737D01*
X128921153Y-118800499D01*
X128921156Y-118800500D01*
X128921158Y-118800500D01*
X129078842Y-118800500D01*
X129617060Y-118800500D01*
X129684099Y-118820185D01*
X129704741Y-118836819D01*
X130079660Y-119211738D01*
X130106540Y-119251966D01*
X130159232Y-119379175D01*
X130159237Y-119379185D01*
X130246838Y-119510288D01*
X130246841Y-119510292D01*
X130358335Y-119621786D01*
X130358339Y-119621789D01*
X130489442Y-119709390D01*
X130489455Y-119709397D01*
X130635126Y-119769735D01*
X130635131Y-119769737D01*
X130789781Y-119800499D01*
X130789784Y-119800500D01*
X130789786Y-119800500D01*
X131078844Y-119800500D01*
X131078845Y-119800499D01*
X131233498Y-119769738D01*
X131379179Y-119709394D01*
X131510290Y-119621789D01*
X131621789Y-119510290D01*
X131709394Y-119379179D01*
X131769738Y-119233498D01*
X131800500Y-119078843D01*
X131800500Y-118921158D01*
X131769738Y-118766503D01*
X131709394Y-118620821D01*
X131709392Y-118620818D01*
X131709390Y-118620814D01*
X131621789Y-118489711D01*
X131621786Y-118489707D01*
X130553232Y-117421153D01*
X136699500Y-117421153D01*
X136699500Y-117578846D01*
X136730261Y-117733489D01*
X136730264Y-117733501D01*
X136790602Y-117879172D01*
X136790609Y-117879185D01*
X136878210Y-118010288D01*
X136878213Y-118010292D01*
X136989707Y-118121786D01*
X136989711Y-118121789D01*
X137120814Y-118209390D01*
X137120827Y-118209397D01*
X137266498Y-118269735D01*
X137266503Y-118269737D01*
X137421153Y-118300499D01*
X137421156Y-118300500D01*
X137421158Y-118300500D01*
X137578844Y-118300500D01*
X137578845Y-118300499D01*
X137733497Y-118269737D01*
X137790434Y-118246153D01*
X145224500Y-118246153D01*
X145224500Y-118403846D01*
X145255261Y-118558489D01*
X145255264Y-118558501D01*
X145315602Y-118704172D01*
X145315609Y-118704185D01*
X145403210Y-118835288D01*
X145403213Y-118835292D01*
X145514707Y-118946786D01*
X145514711Y-118946789D01*
X145645814Y-119034390D01*
X145645827Y-119034397D01*
X145791498Y-119094735D01*
X145791503Y-119094737D01*
X145946153Y-119125499D01*
X145946156Y-119125500D01*
X145946158Y-119125500D01*
X146103844Y-119125500D01*
X146103845Y-119125499D01*
X146258497Y-119094737D01*
X146404179Y-119034394D01*
X146535289Y-118946789D01*
X146646789Y-118835289D01*
X146734394Y-118704179D01*
X146794737Y-118558497D01*
X146825500Y-118403842D01*
X146825500Y-118246158D01*
X146825500Y-118246155D01*
X146825499Y-118246153D01*
X146804874Y-118142466D01*
X146794737Y-118091503D01*
X146761099Y-118010292D01*
X146734397Y-117945827D01*
X146734390Y-117945814D01*
X146646789Y-117814711D01*
X146646786Y-117814707D01*
X146535292Y-117703213D01*
X146535288Y-117703210D01*
X146404185Y-117615609D01*
X146404172Y-117615602D01*
X146258501Y-117555264D01*
X146258489Y-117555261D01*
X146103845Y-117524500D01*
X146103842Y-117524500D01*
X145946158Y-117524500D01*
X145946155Y-117524500D01*
X145791510Y-117555261D01*
X145791498Y-117555264D01*
X145645827Y-117615602D01*
X145645814Y-117615609D01*
X145514711Y-117703210D01*
X145514707Y-117703213D01*
X145403213Y-117814707D01*
X145403210Y-117814711D01*
X145315609Y-117945814D01*
X145315602Y-117945827D01*
X145255264Y-118091498D01*
X145255261Y-118091510D01*
X145224500Y-118246153D01*
X137790434Y-118246153D01*
X137879179Y-118209394D01*
X138010289Y-118121789D01*
X138121789Y-118010289D01*
X142621789Y-113510289D01*
X142681348Y-113421153D01*
X151199500Y-113421153D01*
X151199500Y-113578846D01*
X151230261Y-113733489D01*
X151230264Y-113733501D01*
X151290602Y-113879172D01*
X151290609Y-113879185D01*
X151378210Y-114010288D01*
X151378213Y-114010292D01*
X151838211Y-114470289D01*
X151949711Y-114581789D01*
X151949712Y-114581790D01*
X152080817Y-114669392D01*
X152080819Y-114669392D01*
X152080821Y-114669394D01*
X152202361Y-114719737D01*
X152202362Y-114719738D01*
X152226498Y-114729735D01*
X152226503Y-114729737D01*
X152226507Y-114729737D01*
X152226508Y-114729738D01*
X152381154Y-114760500D01*
X152381157Y-114760500D01*
X152381158Y-114760500D01*
X154975224Y-114760500D01*
X154981869Y-114762451D01*
X154988690Y-114761233D01*
X155014963Y-114772169D01*
X155042263Y-114780185D01*
X155048344Y-114786063D01*
X155053195Y-114788082D01*
X155063172Y-114800395D01*
X155077201Y-114813954D01*
X155081931Y-114820792D01*
X155091130Y-114838845D01*
X155159897Y-114933495D01*
X155160721Y-114934686D01*
X155171262Y-114966541D01*
X155182542Y-114998153D01*
X155182204Y-114999604D01*
X155182672Y-115001018D01*
X155174319Y-115033510D01*
X155166716Y-115066207D01*
X155165505Y-115067800D01*
X155165277Y-115068688D01*
X155163765Y-115070090D01*
X155146426Y-115092913D01*
X155017680Y-115221659D01*
X154925645Y-115370869D01*
X154925640Y-115370880D01*
X154870494Y-115537302D01*
X154860000Y-115640013D01*
X154860000Y-116290000D01*
X155969252Y-116290000D01*
X155947482Y-116327708D01*
X155910000Y-116467591D01*
X155910000Y-116612409D01*
X155947482Y-116752292D01*
X155969252Y-116790000D01*
X154860001Y-116790000D01*
X154860001Y-117439986D01*
X154870494Y-117542696D01*
X154870494Y-117542698D01*
X154925640Y-117709119D01*
X154925645Y-117709130D01*
X155017680Y-117858340D01*
X155017683Y-117858344D01*
X155141655Y-117982316D01*
X155141659Y-117982319D01*
X155290869Y-118074354D01*
X155290880Y-118074359D01*
X155457302Y-118129505D01*
X155560019Y-118139999D01*
X156209999Y-118139999D01*
X156210000Y-118139998D01*
X156210000Y-117030747D01*
X156247708Y-117052518D01*
X156387591Y-117090000D01*
X156532409Y-117090000D01*
X156672292Y-117052518D01*
X156710000Y-117030747D01*
X156710000Y-118139999D01*
X157359972Y-118139999D01*
X157359986Y-118139998D01*
X157462696Y-118129505D01*
X157462698Y-118129505D01*
X157629119Y-118074359D01*
X157629130Y-118074354D01*
X157778340Y-117982319D01*
X157778344Y-117982316D01*
X157902316Y-117858344D01*
X157902319Y-117858340D01*
X157994354Y-117709130D01*
X157994359Y-117709119D01*
X158049505Y-117542697D01*
X158059999Y-117439986D01*
X158059999Y-116982781D01*
X158079683Y-116915742D01*
X158132487Y-116869987D01*
X158201646Y-116860043D01*
X158265202Y-116889068D01*
X158285917Y-116914985D01*
X158287221Y-116914114D01*
X158378210Y-117050288D01*
X158378213Y-117050292D01*
X158489707Y-117161786D01*
X158489711Y-117161789D01*
X158620814Y-117249390D01*
X158620827Y-117249397D01*
X158766498Y-117309735D01*
X158766503Y-117309737D01*
X158921153Y-117340499D01*
X158921156Y-117340500D01*
X158921158Y-117340500D01*
X159078844Y-117340500D01*
X159078845Y-117340499D01*
X159233497Y-117309737D01*
X159379179Y-117249394D01*
X159510289Y-117161789D01*
X159621789Y-117050289D01*
X159709394Y-116919179D01*
X159769737Y-116773497D01*
X159800500Y-116618842D01*
X159800500Y-116461158D01*
X159800500Y-116461155D01*
X159800499Y-116461153D01*
X159769738Y-116306510D01*
X159769737Y-116306503D01*
X159769735Y-116306498D01*
X159709397Y-116160827D01*
X159709390Y-116160814D01*
X159621789Y-116029711D01*
X159621786Y-116029707D01*
X159510292Y-115918213D01*
X159510288Y-115918210D01*
X159379185Y-115830609D01*
X159379172Y-115830602D01*
X159233501Y-115770264D01*
X159233489Y-115770261D01*
X159078845Y-115739500D01*
X159078842Y-115739500D01*
X158921158Y-115739500D01*
X158921155Y-115739500D01*
X158766510Y-115770261D01*
X158766498Y-115770264D01*
X158620827Y-115830602D01*
X158620814Y-115830609D01*
X158489711Y-115918210D01*
X158489707Y-115918213D01*
X158378213Y-116029707D01*
X158378210Y-116029711D01*
X158287221Y-116165886D01*
X158284886Y-116164326D01*
X158244294Y-116205573D01*
X158176141Y-116220970D01*
X158110484Y-116197077D01*
X158068167Y-116141479D01*
X158059999Y-116097219D01*
X158059999Y-115640028D01*
X158059998Y-115640012D01*
X158049505Y-115537303D01*
X158049505Y-115537301D01*
X157994359Y-115370880D01*
X157994354Y-115370869D01*
X157902319Y-115221659D01*
X157902316Y-115221655D01*
X157773574Y-115092913D01*
X157740089Y-115031590D01*
X157745073Y-114961898D01*
X157760934Y-114932349D01*
X157828870Y-114838845D01*
X157943241Y-114614379D01*
X158021090Y-114374785D01*
X158026357Y-114341531D01*
X158056286Y-114278396D01*
X158115597Y-114241464D01*
X158185460Y-114242462D01*
X158243692Y-114281071D01*
X158263391Y-114313476D01*
X158290602Y-114379173D01*
X158290609Y-114379185D01*
X158378210Y-114510288D01*
X158378213Y-114510292D01*
X158489707Y-114621786D01*
X158489711Y-114621789D01*
X158620814Y-114709390D01*
X158620827Y-114709397D01*
X158745972Y-114761233D01*
X158766503Y-114769737D01*
X158920630Y-114800395D01*
X158921153Y-114800499D01*
X158921156Y-114800500D01*
X158921158Y-114800500D01*
X159078844Y-114800500D01*
X159078845Y-114800499D01*
X159233497Y-114769737D01*
X159379179Y-114709394D01*
X159510289Y-114621789D01*
X159621789Y-114510289D01*
X159709394Y-114379179D01*
X159769737Y-114233497D01*
X159800500Y-114078842D01*
X159800500Y-113921158D01*
X159800500Y-113921155D01*
X159800499Y-113921153D01*
X159769738Y-113766510D01*
X159769737Y-113766503D01*
X159756062Y-113733489D01*
X159709397Y-113620827D01*
X159709390Y-113620814D01*
X159621789Y-113489711D01*
X159621786Y-113489707D01*
X159510292Y-113378213D01*
X159510288Y-113378210D01*
X159379185Y-113290609D01*
X159379172Y-113290602D01*
X159233501Y-113230264D01*
X159233489Y-113230261D01*
X159078845Y-113199500D01*
X159078842Y-113199500D01*
X158921158Y-113199500D01*
X158921155Y-113199500D01*
X158766510Y-113230261D01*
X158766498Y-113230264D01*
X158620827Y-113290602D01*
X158620814Y-113290609D01*
X158489711Y-113378210D01*
X158489707Y-113378213D01*
X158378213Y-113489707D01*
X158378210Y-113489711D01*
X158290609Y-113620814D01*
X158290602Y-113620827D01*
X158263391Y-113686523D01*
X158219550Y-113740927D01*
X158153256Y-113762992D01*
X158085557Y-113745713D01*
X158037946Y-113694576D01*
X158026357Y-113658469D01*
X158026103Y-113656866D01*
X158021090Y-113625215D01*
X157943241Y-113385621D01*
X157943239Y-113385618D01*
X157943239Y-113385616D01*
X157865730Y-113233497D01*
X157828870Y-113161155D01*
X157799561Y-113120814D01*
X157680798Y-112957350D01*
X157680794Y-112957345D01*
X157502654Y-112779205D01*
X157502649Y-112779201D01*
X157298848Y-112631132D01*
X157298847Y-112631131D01*
X157298845Y-112631130D01*
X157228747Y-112595413D01*
X157074383Y-112516760D01*
X156834785Y-112438910D01*
X156722685Y-112421155D01*
X156585962Y-112399500D01*
X156334038Y-112399500D01*
X156209626Y-112419205D01*
X156085214Y-112438910D01*
X155845616Y-112516760D01*
X155621151Y-112631132D01*
X155417350Y-112779201D01*
X155417345Y-112779205D01*
X155239209Y-112957341D01*
X155239204Y-112957347D01*
X155129469Y-113108385D01*
X155074139Y-113151051D01*
X155029151Y-113159500D01*
X152842940Y-113159500D01*
X152775901Y-113139815D01*
X152755259Y-113123181D01*
X152510292Y-112878213D01*
X152510288Y-112878210D01*
X152379185Y-112790609D01*
X152379172Y-112790602D01*
X152233501Y-112730264D01*
X152233489Y-112730261D01*
X152078845Y-112699500D01*
X152078842Y-112699500D01*
X151921158Y-112699500D01*
X151921155Y-112699500D01*
X151766510Y-112730261D01*
X151766498Y-112730264D01*
X151620827Y-112790602D01*
X151620814Y-112790609D01*
X151489711Y-112878210D01*
X151489707Y-112878213D01*
X151378213Y-112989707D01*
X151378210Y-112989711D01*
X151290609Y-113120814D01*
X151290602Y-113120827D01*
X151230264Y-113266498D01*
X151230261Y-113266510D01*
X151199500Y-113421153D01*
X142681348Y-113421153D01*
X142709394Y-113379179D01*
X142769737Y-113233497D01*
X142800500Y-113078842D01*
X142800500Y-112921158D01*
X142800500Y-112421158D01*
X142800500Y-112421155D01*
X142800499Y-112421153D01*
X142776499Y-112300499D01*
X142769737Y-112266503D01*
X142769735Y-112266498D01*
X142709397Y-112120827D01*
X142709390Y-112120814D01*
X142621789Y-111989711D01*
X142621786Y-111989707D01*
X142510292Y-111878213D01*
X142510288Y-111878210D01*
X142379185Y-111790609D01*
X142379172Y-111790602D01*
X142233501Y-111730264D01*
X142233489Y-111730261D01*
X142078845Y-111699500D01*
X142078842Y-111699500D01*
X141921158Y-111699500D01*
X141921155Y-111699500D01*
X141766510Y-111730261D01*
X141766498Y-111730264D01*
X141620827Y-111790602D01*
X141620814Y-111790609D01*
X141489711Y-111878210D01*
X141489707Y-111878213D01*
X141378213Y-111989707D01*
X141378210Y-111989711D01*
X141290609Y-112120814D01*
X141290602Y-112120827D01*
X141230264Y-112266498D01*
X141230261Y-112266510D01*
X141199500Y-112421153D01*
X141199500Y-112617060D01*
X141179815Y-112684099D01*
X141163181Y-112704741D01*
X136989711Y-116878211D01*
X136953808Y-116914114D01*
X136878209Y-116989712D01*
X136790609Y-117120814D01*
X136790602Y-117120827D01*
X136730264Y-117266498D01*
X136730261Y-117266510D01*
X136699500Y-117421153D01*
X130553232Y-117421153D01*
X130510292Y-117378213D01*
X130510288Y-117378210D01*
X130379185Y-117290609D01*
X130379172Y-117290602D01*
X130233501Y-117230264D01*
X130233489Y-117230261D01*
X130078845Y-117199500D01*
X130078842Y-117199500D01*
X129078842Y-117199500D01*
X128921158Y-117199500D01*
X128921155Y-117199500D01*
X128766510Y-117230261D01*
X128766498Y-117230264D01*
X128620827Y-117290602D01*
X128620814Y-117290609D01*
X128489711Y-117378210D01*
X128489707Y-117378213D01*
X128378213Y-117489707D01*
X128378210Y-117489711D01*
X128290609Y-117620814D01*
X128290602Y-117620827D01*
X128230264Y-117766498D01*
X128230261Y-117766510D01*
X128199500Y-117921153D01*
X124000500Y-117921153D01*
X124000500Y-112345134D01*
X124020185Y-112278095D01*
X124072989Y-112232340D01*
X124142147Y-112222396D01*
X124171950Y-112230572D01*
X124266503Y-112269737D01*
X124421153Y-112300499D01*
X124421156Y-112300500D01*
X124421158Y-112300500D01*
X124578844Y-112300500D01*
X124578845Y-112300499D01*
X124733497Y-112269737D01*
X124879179Y-112209394D01*
X125010289Y-112121789D01*
X125121789Y-112010289D01*
X125209394Y-111879179D01*
X125269737Y-111733497D01*
X125300500Y-111578842D01*
X125300500Y-111421158D01*
X125300500Y-111421155D01*
X125300499Y-111421153D01*
X125269738Y-111266510D01*
X125269737Y-111266503D01*
X125269735Y-111266498D01*
X125209397Y-111120827D01*
X125209390Y-111120814D01*
X125121789Y-110989711D01*
X125121786Y-110989707D01*
X125010292Y-110878213D01*
X125010288Y-110878210D01*
X124879185Y-110790609D01*
X124879172Y-110790602D01*
X124733501Y-110730264D01*
X124733489Y-110730261D01*
X124578845Y-110699500D01*
X124578842Y-110699500D01*
X124421158Y-110699500D01*
X124421155Y-110699500D01*
X124266510Y-110730261D01*
X124266507Y-110730261D01*
X124171952Y-110769427D01*
X124102482Y-110776895D01*
X124040003Y-110745619D01*
X124004351Y-110685530D01*
X124000500Y-110654865D01*
X124000500Y-105917847D01*
X124020185Y-105850808D01*
X124072989Y-105805053D01*
X124100309Y-105796230D01*
X124116291Y-105793050D01*
X124233497Y-105769737D01*
X124379179Y-105709394D01*
X124510289Y-105621789D01*
X124621789Y-105510289D01*
X124709394Y-105379179D01*
X124769737Y-105233497D01*
X124800500Y-105078842D01*
X124800500Y-104921158D01*
X124800500Y-104921155D01*
X124800499Y-104921153D01*
X124769738Y-104766510D01*
X124769737Y-104766503D01*
X124709794Y-104621786D01*
X124709397Y-104620827D01*
X124709390Y-104620814D01*
X124621789Y-104489711D01*
X124621786Y-104489707D01*
X124510292Y-104378213D01*
X124510288Y-104378210D01*
X124379185Y-104290609D01*
X124379172Y-104290602D01*
X124233501Y-104230264D01*
X124233491Y-104230261D01*
X124100308Y-104203769D01*
X124072177Y-104189054D01*
X124043297Y-104175865D01*
X124041440Y-104172975D01*
X124038397Y-104171384D01*
X124022684Y-104143791D01*
X124005523Y-104117087D01*
X124004862Y-104112493D01*
X124003823Y-104110668D01*
X124000500Y-104082152D01*
X124000500Y-103921153D01*
X126699500Y-103921153D01*
X126699500Y-104078846D01*
X126730261Y-104233489D01*
X126730264Y-104233501D01*
X126790602Y-104379172D01*
X126790609Y-104379185D01*
X126878210Y-104510288D01*
X126878213Y-104510292D01*
X126989707Y-104621786D01*
X126989711Y-104621789D01*
X127120814Y-104709390D01*
X127120827Y-104709397D01*
X127258683Y-104766498D01*
X127266503Y-104769737D01*
X127421153Y-104800499D01*
X127421156Y-104800500D01*
X127421158Y-104800500D01*
X127578844Y-104800500D01*
X127578845Y-104800499D01*
X127733497Y-104769737D01*
X127879179Y-104709394D01*
X128010289Y-104621789D01*
X128121789Y-104510289D01*
X128209394Y-104379179D01*
X128269737Y-104233497D01*
X128300500Y-104078842D01*
X128300500Y-103921158D01*
X128300500Y-103921155D01*
X128300499Y-103921153D01*
X128279384Y-103815003D01*
X128269737Y-103766503D01*
X128269735Y-103766498D01*
X128209397Y-103620827D01*
X128209390Y-103620814D01*
X128121789Y-103489711D01*
X128121786Y-103489707D01*
X128010292Y-103378213D01*
X128010288Y-103378210D01*
X127879185Y-103290609D01*
X127879172Y-103290602D01*
X127733501Y-103230264D01*
X127733489Y-103230261D01*
X127578845Y-103199500D01*
X127578842Y-103199500D01*
X127421158Y-103199500D01*
X127421155Y-103199500D01*
X127266510Y-103230261D01*
X127266498Y-103230264D01*
X127120827Y-103290602D01*
X127120814Y-103290609D01*
X126989711Y-103378210D01*
X126989707Y-103378213D01*
X126878213Y-103489707D01*
X126878210Y-103489711D01*
X126790609Y-103620814D01*
X126790602Y-103620827D01*
X126730264Y-103766498D01*
X126730261Y-103766510D01*
X126699500Y-103921153D01*
X124000500Y-103921153D01*
X124000500Y-102417847D01*
X124020185Y-102350808D01*
X124072989Y-102305053D01*
X124100309Y-102296230D01*
X124116291Y-102293050D01*
X124233497Y-102269737D01*
X124379179Y-102209394D01*
X124510289Y-102121789D01*
X124621789Y-102010289D01*
X124681348Y-101921153D01*
X126699500Y-101921153D01*
X126699500Y-102078846D01*
X126730261Y-102233489D01*
X126730264Y-102233501D01*
X126790602Y-102379172D01*
X126790609Y-102379185D01*
X126878210Y-102510288D01*
X126878213Y-102510292D01*
X126989707Y-102621786D01*
X126989711Y-102621789D01*
X127120814Y-102709390D01*
X127120827Y-102709397D01*
X127266498Y-102769735D01*
X127266503Y-102769737D01*
X127421153Y-102800499D01*
X127421156Y-102800500D01*
X127421158Y-102800500D01*
X127578844Y-102800500D01*
X127578845Y-102800499D01*
X127733497Y-102769737D01*
X127879179Y-102709394D01*
X128010289Y-102621789D01*
X128121789Y-102510289D01*
X128209394Y-102379179D01*
X128269737Y-102233497D01*
X128300500Y-102078842D01*
X128300500Y-101921158D01*
X128300500Y-101921155D01*
X128300499Y-101921153D01*
X128275353Y-101794737D01*
X128269737Y-101766503D01*
X128269735Y-101766498D01*
X128209397Y-101620827D01*
X128209390Y-101620814D01*
X128121789Y-101489711D01*
X128121786Y-101489707D01*
X128010292Y-101378213D01*
X128010288Y-101378210D01*
X127879185Y-101290609D01*
X127879172Y-101290602D01*
X127733501Y-101230264D01*
X127733489Y-101230261D01*
X127578845Y-101199500D01*
X127578842Y-101199500D01*
X127421158Y-101199500D01*
X127421155Y-101199500D01*
X127266510Y-101230261D01*
X127266498Y-101230264D01*
X127120827Y-101290602D01*
X127120814Y-101290609D01*
X126989711Y-101378210D01*
X126989707Y-101378213D01*
X126878213Y-101489707D01*
X126878210Y-101489711D01*
X126790609Y-101620814D01*
X126790602Y-101620827D01*
X126730264Y-101766498D01*
X126730261Y-101766510D01*
X126699500Y-101921153D01*
X124681348Y-101921153D01*
X124709394Y-101879179D01*
X124769737Y-101733497D01*
X124800500Y-101578842D01*
X124800500Y-101421158D01*
X124800500Y-101421155D01*
X124800499Y-101421153D01*
X124791957Y-101378210D01*
X124769737Y-101266503D01*
X124769735Y-101266498D01*
X124709397Y-101120827D01*
X124709390Y-101120814D01*
X124621789Y-100989711D01*
X124621786Y-100989707D01*
X124510292Y-100878213D01*
X124510288Y-100878210D01*
X124379185Y-100790609D01*
X124379172Y-100790602D01*
X124233501Y-100730264D01*
X124233491Y-100730261D01*
X124100308Y-100703769D01*
X124038397Y-100671384D01*
X124003823Y-100610668D01*
X124000500Y-100582152D01*
X124000500Y-98417847D01*
X124020185Y-98350808D01*
X124072989Y-98305053D01*
X124100309Y-98296230D01*
X124116291Y-98293050D01*
X124233497Y-98269737D01*
X124379179Y-98209394D01*
X124510289Y-98121789D01*
X124621789Y-98010289D01*
X124709394Y-97879179D01*
X124769737Y-97733497D01*
X124800500Y-97578842D01*
X124800500Y-97421158D01*
X124800500Y-97421155D01*
X124800499Y-97421153D01*
X124769738Y-97266510D01*
X124769737Y-97266503D01*
X124709794Y-97121786D01*
X124709397Y-97120827D01*
X124709390Y-97120814D01*
X124621789Y-96989711D01*
X124621786Y-96989707D01*
X124510292Y-96878213D01*
X124510288Y-96878210D01*
X124379185Y-96790609D01*
X124379172Y-96790602D01*
X124233501Y-96730264D01*
X124233491Y-96730261D01*
X124100308Y-96703769D01*
X124038397Y-96671384D01*
X124003823Y-96610668D01*
X124000500Y-96582152D01*
X124000500Y-94917847D01*
X124020185Y-94850808D01*
X124072989Y-94805053D01*
X124100309Y-94796230D01*
X124116291Y-94793050D01*
X124233497Y-94769737D01*
X124379179Y-94709394D01*
X124510289Y-94621789D01*
X124621789Y-94510289D01*
X124709394Y-94379179D01*
X124769737Y-94233497D01*
X124800500Y-94078842D01*
X124800500Y-93921158D01*
X124800500Y-93921155D01*
X124800499Y-93921153D01*
X124769738Y-93766510D01*
X124769737Y-93766503D01*
X124769735Y-93766498D01*
X124709397Y-93620827D01*
X124709390Y-93620814D01*
X124621789Y-93489711D01*
X124621786Y-93489707D01*
X124510292Y-93378213D01*
X124510288Y-93378210D01*
X124379185Y-93290609D01*
X124379172Y-93290602D01*
X124233501Y-93230264D01*
X124233491Y-93230261D01*
X124100308Y-93203769D01*
X124038397Y-93171384D01*
X124003823Y-93110668D01*
X124000500Y-93082152D01*
X124000500Y-91917847D01*
X124020185Y-91850808D01*
X124072989Y-91805053D01*
X124100309Y-91796230D01*
X124116291Y-91793050D01*
X124233497Y-91769737D01*
X124379179Y-91709394D01*
X124510289Y-91621789D01*
X124621789Y-91510289D01*
X124709394Y-91379179D01*
X124769737Y-91233497D01*
X124800500Y-91078842D01*
X124800500Y-90921158D01*
X124800500Y-90921155D01*
X124800499Y-90921153D01*
X124769738Y-90766510D01*
X124769737Y-90766503D01*
X124769735Y-90766498D01*
X124709397Y-90620827D01*
X124709390Y-90620814D01*
X124621789Y-90489711D01*
X124621786Y-90489707D01*
X124510292Y-90378213D01*
X124510288Y-90378210D01*
X124379185Y-90290609D01*
X124379172Y-90290602D01*
X124233501Y-90230264D01*
X124233491Y-90230261D01*
X124100308Y-90203769D01*
X124038397Y-90171384D01*
X124003823Y-90110668D01*
X124000500Y-90082152D01*
X124000500Y-87921153D01*
X124699500Y-87921153D01*
X124699500Y-88078846D01*
X124730261Y-88233489D01*
X124730264Y-88233501D01*
X124790602Y-88379172D01*
X124790609Y-88379185D01*
X124878210Y-88510288D01*
X124878213Y-88510292D01*
X124989707Y-88621786D01*
X124989711Y-88621789D01*
X125120814Y-88709390D01*
X125120827Y-88709397D01*
X125266498Y-88769735D01*
X125266503Y-88769737D01*
X125421153Y-88800499D01*
X125421156Y-88800500D01*
X125421158Y-88800500D01*
X125578844Y-88800500D01*
X125578845Y-88800499D01*
X125733497Y-88769737D01*
X125879179Y-88709394D01*
X126010289Y-88621789D01*
X126121789Y-88510289D01*
X126209394Y-88379179D01*
X126269737Y-88233497D01*
X126300500Y-88078842D01*
X126300500Y-87921158D01*
X126300500Y-87921155D01*
X126300499Y-87921153D01*
X126269738Y-87766510D01*
X126269737Y-87766503D01*
X126246082Y-87709394D01*
X126209397Y-87620827D01*
X126209390Y-87620814D01*
X126121789Y-87489711D01*
X126121786Y-87489707D01*
X126010292Y-87378213D01*
X126010288Y-87378210D01*
X125879185Y-87290609D01*
X125879172Y-87290602D01*
X125733501Y-87230264D01*
X125733489Y-87230261D01*
X125578845Y-87199500D01*
X125578842Y-87199500D01*
X125421158Y-87199500D01*
X125421155Y-87199500D01*
X125266510Y-87230261D01*
X125266498Y-87230264D01*
X125120827Y-87290602D01*
X125120814Y-87290609D01*
X124989711Y-87378210D01*
X124989707Y-87378213D01*
X124878213Y-87489707D01*
X124878210Y-87489711D01*
X124790609Y-87620814D01*
X124790602Y-87620827D01*
X124730264Y-87766498D01*
X124730261Y-87766510D01*
X124699500Y-87921153D01*
X124000500Y-87921153D01*
X124000500Y-84921153D01*
X125199500Y-84921153D01*
X125199500Y-85078846D01*
X125230261Y-85233489D01*
X125230264Y-85233501D01*
X125290602Y-85379172D01*
X125290609Y-85379185D01*
X125378210Y-85510288D01*
X125378213Y-85510292D01*
X125489707Y-85621786D01*
X125489711Y-85621789D01*
X125620814Y-85709390D01*
X125620827Y-85709397D01*
X125758157Y-85766280D01*
X125766503Y-85769737D01*
X125921153Y-85800499D01*
X125921156Y-85800500D01*
X125921158Y-85800500D01*
X126078844Y-85800500D01*
X126078845Y-85800499D01*
X126233497Y-85769737D01*
X126379179Y-85709394D01*
X126510289Y-85621789D01*
X126621789Y-85510289D01*
X126709394Y-85379179D01*
X126769737Y-85233497D01*
X126800500Y-85078842D01*
X126800500Y-84921158D01*
X126800500Y-84921155D01*
X126800499Y-84921153D01*
X126778509Y-84810603D01*
X126769737Y-84766503D01*
X126769735Y-84766498D01*
X126709397Y-84620827D01*
X126709390Y-84620814D01*
X126621789Y-84489711D01*
X126621786Y-84489707D01*
X126510292Y-84378213D01*
X126510288Y-84378210D01*
X126379185Y-84290609D01*
X126379172Y-84290602D01*
X126233501Y-84230264D01*
X126233489Y-84230261D01*
X126078845Y-84199500D01*
X126078842Y-84199500D01*
X125921158Y-84199500D01*
X125921155Y-84199500D01*
X125766510Y-84230261D01*
X125766498Y-84230264D01*
X125620827Y-84290602D01*
X125620814Y-84290609D01*
X125489711Y-84378210D01*
X125489707Y-84378213D01*
X125378213Y-84489707D01*
X125378210Y-84489711D01*
X125290609Y-84620814D01*
X125290602Y-84620827D01*
X125230264Y-84766498D01*
X125230261Y-84766510D01*
X125199500Y-84921153D01*
X124000500Y-84921153D01*
X124000500Y-79568989D01*
X124020185Y-79501950D01*
X124072989Y-79456195D01*
X124142147Y-79446251D01*
X124205703Y-79475276D01*
X124212181Y-79481308D01*
X126241162Y-81510289D01*
X126309715Y-81578842D01*
X126352663Y-81621790D01*
X126431549Y-81674500D01*
X126483772Y-81709394D01*
X126586784Y-81752062D01*
X126629453Y-81769737D01*
X126784103Y-81800499D01*
X126784106Y-81800500D01*
X126784108Y-81800500D01*
X126784109Y-81800500D01*
X127075500Y-81800500D01*
X127142539Y-81820185D01*
X127188294Y-81872989D01*
X127199500Y-81924500D01*
X127199500Y-98078846D01*
X127230261Y-98233489D01*
X127230264Y-98233501D01*
X127290602Y-98379172D01*
X127290609Y-98379185D01*
X127378210Y-98510288D01*
X127378213Y-98510292D01*
X127379114Y-98511193D01*
X127379435Y-98511780D01*
X127382076Y-98514999D01*
X127381465Y-98515499D01*
X127412599Y-98572516D01*
X127407615Y-98642208D01*
X127365743Y-98698141D01*
X127315626Y-98720491D01*
X127266507Y-98730261D01*
X127266498Y-98730264D01*
X127120827Y-98790602D01*
X127120814Y-98790609D01*
X126989711Y-98878210D01*
X126989707Y-98878213D01*
X126878213Y-98989707D01*
X126878210Y-98989711D01*
X126790609Y-99120814D01*
X126790602Y-99120827D01*
X126730264Y-99266498D01*
X126730261Y-99266510D01*
X126699500Y-99421153D01*
X126699500Y-99578846D01*
X126730261Y-99733489D01*
X126730264Y-99733501D01*
X126790602Y-99879172D01*
X126790609Y-99879185D01*
X126878210Y-100010288D01*
X126878213Y-100010292D01*
X126989707Y-100121786D01*
X126989711Y-100121789D01*
X127120814Y-100209390D01*
X127120827Y-100209397D01*
X127266498Y-100269735D01*
X127266503Y-100269737D01*
X127421153Y-100300499D01*
X127421156Y-100300500D01*
X127421158Y-100300500D01*
X127578844Y-100300500D01*
X127578845Y-100300499D01*
X127733497Y-100269737D01*
X127879179Y-100209394D01*
X128010289Y-100121789D01*
X128121789Y-100010289D01*
X128209394Y-99879179D01*
X128269737Y-99733497D01*
X128279508Y-99684371D01*
X128311892Y-99622464D01*
X128372607Y-99587889D01*
X128442377Y-99591628D01*
X128488806Y-99620884D01*
X129378211Y-100510289D01*
X129450074Y-100582152D01*
X129489712Y-100621790D01*
X129620814Y-100709390D01*
X129620827Y-100709397D01*
X129720081Y-100750509D01*
X129760310Y-100777389D01*
X129864707Y-100881786D01*
X129864711Y-100881789D01*
X129995814Y-100969390D01*
X129995827Y-100969397D01*
X130090234Y-101008501D01*
X130141503Y-101029737D01*
X130296153Y-101060499D01*
X130296156Y-101060500D01*
X130400500Y-101060500D01*
X130467539Y-101080185D01*
X130513294Y-101132989D01*
X130524500Y-101184500D01*
X130524500Y-103660348D01*
X130555261Y-103814991D01*
X130555264Y-103815003D01*
X130615602Y-103960674D01*
X130615609Y-103960687D01*
X130703210Y-104091790D01*
X130703213Y-104091794D01*
X130814707Y-104203288D01*
X130814711Y-104203291D01*
X130945814Y-104290892D01*
X130945827Y-104290899D01*
X131091498Y-104351237D01*
X131091503Y-104351239D01*
X131227110Y-104378213D01*
X131246153Y-104382001D01*
X131246156Y-104382002D01*
X131400500Y-104382002D01*
X131467539Y-104401687D01*
X131513294Y-104454491D01*
X131524500Y-104506002D01*
X131524500Y-110353846D01*
X131555261Y-110508489D01*
X131555264Y-110508501D01*
X131615602Y-110654172D01*
X131615609Y-110654185D01*
X131703210Y-110785288D01*
X131703213Y-110785292D01*
X135163181Y-114245259D01*
X135196666Y-114306582D01*
X135199500Y-114332940D01*
X135199500Y-115578846D01*
X135230261Y-115733489D01*
X135230264Y-115733501D01*
X135290602Y-115879172D01*
X135290609Y-115879185D01*
X135378210Y-116010288D01*
X135378213Y-116010292D01*
X135489707Y-116121786D01*
X135489711Y-116121789D01*
X135620814Y-116209390D01*
X135620827Y-116209397D01*
X135766498Y-116269735D01*
X135766503Y-116269737D01*
X135921153Y-116300499D01*
X135921156Y-116300500D01*
X135921158Y-116300500D01*
X136078844Y-116300500D01*
X136078845Y-116300499D01*
X136233497Y-116269737D01*
X136379179Y-116209394D01*
X136510289Y-116121789D01*
X136621789Y-116010289D01*
X136709394Y-115879179D01*
X136769737Y-115733497D01*
X136800500Y-115578842D01*
X136800500Y-115421158D01*
X136800500Y-113871158D01*
X136800500Y-113871155D01*
X136800499Y-113871153D01*
X136779684Y-113766510D01*
X136769737Y-113716503D01*
X136730102Y-113620814D01*
X136709397Y-113570827D01*
X136709390Y-113570814D01*
X136621790Y-113439712D01*
X136567694Y-113385616D01*
X136510289Y-113328211D01*
X133161819Y-109979741D01*
X133128334Y-109918418D01*
X133125500Y-109892060D01*
X133125500Y-89157940D01*
X133145185Y-89090901D01*
X133161819Y-89070259D01*
X137062819Y-85169259D01*
X137124142Y-85135774D01*
X137193834Y-85140758D01*
X137249767Y-85182630D01*
X137274184Y-85248094D01*
X137274500Y-85256940D01*
X137274500Y-108367506D01*
X137274499Y-108367524D01*
X137274499Y-108533230D01*
X137274498Y-108533230D01*
X137276715Y-108541502D01*
X137315423Y-108685961D01*
X137315424Y-108685963D01*
X137315423Y-108685963D01*
X137329837Y-108710927D01*
X137329839Y-108710929D01*
X137329840Y-108710931D01*
X137360764Y-108764493D01*
X137394479Y-108822891D01*
X137523716Y-108952128D01*
X137523720Y-108952132D01*
X137677108Y-109105520D01*
X137677110Y-109105521D01*
X137677111Y-109105522D01*
X137677114Y-109105524D01*
X137761399Y-109154185D01*
X137814040Y-109184577D01*
X137966767Y-109225501D01*
X137966769Y-109225501D01*
X138132478Y-109225501D01*
X138132494Y-109225500D01*
X138735049Y-109225500D01*
X138802088Y-109245185D01*
X138847843Y-109297989D01*
X138857069Y-109353374D01*
X138858667Y-109353374D01*
X138858667Y-109517154D01*
X138889428Y-109671797D01*
X138889431Y-109671809D01*
X138949769Y-109817480D01*
X138949776Y-109817493D01*
X139037377Y-109948596D01*
X139037380Y-109948600D01*
X139148874Y-110060094D01*
X139148878Y-110060097D01*
X139279981Y-110147698D01*
X139279994Y-110147705D01*
X139396960Y-110196153D01*
X139425670Y-110208045D01*
X139476899Y-110218235D01*
X139485900Y-110222943D01*
X139496035Y-110223668D01*
X139516336Y-110238864D01*
X139538809Y-110250619D01*
X139543836Y-110259448D01*
X139551971Y-110265537D01*
X139560835Y-110289300D01*
X139573383Y-110311335D01*
X139572839Y-110321479D01*
X139576391Y-110331000D01*
X139571001Y-110355782D01*
X139569644Y-110381104D01*
X139563306Y-110391162D01*
X139561542Y-110399274D01*
X139540392Y-110427529D01*
X139529745Y-110438177D01*
X139468424Y-110471665D01*
X139442060Y-110474500D01*
X137707940Y-110474500D01*
X137640901Y-110454815D01*
X137620259Y-110438181D01*
X136835292Y-109653213D01*
X136835288Y-109653210D01*
X136704185Y-109565609D01*
X136704172Y-109565602D01*
X136558501Y-109505264D01*
X136558489Y-109505261D01*
X136403845Y-109474500D01*
X136403842Y-109474500D01*
X136246158Y-109474500D01*
X136246155Y-109474500D01*
X136091510Y-109505261D01*
X136091498Y-109505264D01*
X135945827Y-109565602D01*
X135945814Y-109565609D01*
X135814711Y-109653210D01*
X135814707Y-109653213D01*
X135703213Y-109764707D01*
X135703210Y-109764711D01*
X135615609Y-109895814D01*
X135615602Y-109895827D01*
X135555264Y-110041498D01*
X135555261Y-110041510D01*
X135524500Y-110196153D01*
X135524500Y-110353846D01*
X135555261Y-110508489D01*
X135555264Y-110508501D01*
X135615602Y-110654172D01*
X135615609Y-110654185D01*
X135703210Y-110785288D01*
X135703213Y-110785292D01*
X136814707Y-111896786D01*
X136814711Y-111896789D01*
X136945814Y-111984390D01*
X136945818Y-111984392D01*
X136945821Y-111984394D01*
X137091503Y-112044738D01*
X137246153Y-112075499D01*
X137246157Y-112075500D01*
X137246158Y-112075500D01*
X139903844Y-112075500D01*
X139903845Y-112075499D01*
X140058497Y-112044737D01*
X140204179Y-111984394D01*
X140335289Y-111896789D01*
X142620259Y-109611819D01*
X142681582Y-109578334D01*
X142707940Y-109575500D01*
X144403844Y-109575500D01*
X144403845Y-109575499D01*
X144558497Y-109544737D01*
X144704179Y-109484394D01*
X144835289Y-109396789D01*
X144946789Y-109285289D01*
X145034394Y-109154179D01*
X145094737Y-109008497D01*
X145125500Y-108853842D01*
X145125500Y-108696158D01*
X145125500Y-108696155D01*
X145125499Y-108696153D01*
X145121471Y-108675902D01*
X145094737Y-108541503D01*
X145075424Y-108494879D01*
X145067956Y-108425410D01*
X145099231Y-108362931D01*
X145159320Y-108327279D01*
X145229145Y-108329773D01*
X145277667Y-108359746D01*
X146314707Y-109396786D01*
X146314711Y-109396789D01*
X146445814Y-109484390D01*
X146445818Y-109484392D01*
X146445821Y-109484394D01*
X146591503Y-109544738D01*
X146746153Y-109575499D01*
X146746157Y-109575500D01*
X146746158Y-109575500D01*
X146903843Y-109575500D01*
X152942060Y-109575500D01*
X153009099Y-109595185D01*
X153029741Y-109611819D01*
X153314707Y-109896786D01*
X153314711Y-109896789D01*
X153445814Y-109984390D01*
X153445818Y-109984392D01*
X153445821Y-109984394D01*
X153591503Y-110044738D01*
X153745057Y-110075281D01*
X153746153Y-110075499D01*
X153746157Y-110075500D01*
X153746158Y-110075500D01*
X153903844Y-110075500D01*
X153903845Y-110075499D01*
X154058497Y-110044738D01*
X154204179Y-109984394D01*
X154335289Y-109896789D01*
X154446789Y-109785289D01*
X154534394Y-109654179D01*
X154594738Y-109508497D01*
X154625500Y-109353843D01*
X154625500Y-109196158D01*
X154594738Y-109041503D01*
X154534394Y-108895821D01*
X154534392Y-108895818D01*
X154534390Y-108895814D01*
X154446789Y-108764711D01*
X154446786Y-108764707D01*
X153835292Y-108153213D01*
X153835288Y-108153210D01*
X153704185Y-108065609D01*
X153704172Y-108065602D01*
X153558501Y-108005264D01*
X153558489Y-108005261D01*
X153403845Y-107974500D01*
X153403842Y-107974500D01*
X147207940Y-107974500D01*
X147140901Y-107954815D01*
X147120259Y-107938181D01*
X144661819Y-105479741D01*
X144628334Y-105418418D01*
X144625500Y-105392060D01*
X144625500Y-98696153D01*
X148524500Y-98696153D01*
X148524500Y-98853846D01*
X148555261Y-99008489D01*
X148555264Y-99008501D01*
X148615602Y-99154172D01*
X148615609Y-99154185D01*
X148703210Y-99285288D01*
X148703213Y-99285292D01*
X148814707Y-99396786D01*
X148814711Y-99396789D01*
X148945814Y-99484390D01*
X148945827Y-99484397D01*
X149091498Y-99544735D01*
X149091503Y-99544737D01*
X149246153Y-99575499D01*
X149246156Y-99575500D01*
X149246158Y-99575500D01*
X149403844Y-99575500D01*
X149403845Y-99575499D01*
X149558497Y-99544737D01*
X149704179Y-99484394D01*
X149835289Y-99396789D01*
X149946789Y-99285289D01*
X150034394Y-99154179D01*
X150094737Y-99008497D01*
X150125500Y-98853842D01*
X150125500Y-98696158D01*
X150125500Y-98696155D01*
X150125499Y-98696153D01*
X150123130Y-98684242D01*
X150094737Y-98541503D01*
X150083759Y-98514999D01*
X150034397Y-98395827D01*
X150034390Y-98395814D01*
X149946789Y-98264711D01*
X149946786Y-98264707D01*
X149835292Y-98153213D01*
X149835288Y-98153210D01*
X149704185Y-98065609D01*
X149704172Y-98065602D01*
X149558501Y-98005264D01*
X149558489Y-98005261D01*
X149403845Y-97974500D01*
X149403842Y-97974500D01*
X149246158Y-97974500D01*
X149246155Y-97974500D01*
X149091510Y-98005261D01*
X149091498Y-98005264D01*
X148945827Y-98065602D01*
X148945814Y-98065609D01*
X148814711Y-98153210D01*
X148814707Y-98153213D01*
X148703213Y-98264707D01*
X148703210Y-98264711D01*
X148615609Y-98395814D01*
X148615602Y-98395827D01*
X148555264Y-98541498D01*
X148555261Y-98541510D01*
X148524500Y-98696153D01*
X144625500Y-98696153D01*
X144625500Y-87302398D01*
X144627126Y-87294221D01*
X144626210Y-87289143D01*
X144634939Y-87254945D01*
X144643452Y-87234394D01*
X144678201Y-87150501D01*
X144694737Y-87110580D01*
X144725500Y-86955925D01*
X144725500Y-86798240D01*
X144725500Y-85825706D01*
X144734143Y-85796269D01*
X144740667Y-85766280D01*
X144744422Y-85761263D01*
X144745185Y-85758667D01*
X144761814Y-85738030D01*
X144812783Y-85687061D01*
X144874103Y-85653577D01*
X144943794Y-85658561D01*
X144999728Y-85700432D01*
X145003564Y-85705852D01*
X145013210Y-85720288D01*
X145013213Y-85720292D01*
X145124707Y-85831786D01*
X145124711Y-85831789D01*
X145255814Y-85919390D01*
X145255827Y-85919397D01*
X145401498Y-85979735D01*
X145401503Y-85979737D01*
X145555092Y-86010288D01*
X145556153Y-86010499D01*
X145556156Y-86010500D01*
X145556158Y-86010500D01*
X145713844Y-86010500D01*
X145713845Y-86010499D01*
X145868497Y-85979737D01*
X146014179Y-85919394D01*
X146145289Y-85831789D01*
X146256789Y-85720289D01*
X146344394Y-85589179D01*
X146363150Y-85543895D01*
X146384577Y-85506784D01*
X146395668Y-85465391D01*
X146404737Y-85443497D01*
X146413964Y-85397109D01*
X146425500Y-85354057D01*
X146425500Y-85339115D01*
X146432912Y-85301848D01*
X146435500Y-85288843D01*
X146435500Y-85131157D01*
X146435499Y-85131156D01*
X146427883Y-85092864D01*
X146425500Y-85068672D01*
X146425500Y-83864060D01*
X146425501Y-83864047D01*
X146425501Y-83695945D01*
X146425501Y-83695943D01*
X146387880Y-83555543D01*
X146389543Y-83485697D01*
X146428705Y-83427834D01*
X146492933Y-83400329D01*
X146507655Y-83399452D01*
X147561879Y-83399452D01*
X147561895Y-83399453D01*
X147569491Y-83399453D01*
X147727602Y-83399453D01*
X147727605Y-83399453D01*
X147880333Y-83358529D01*
X147939875Y-83324152D01*
X148017264Y-83279472D01*
X148129068Y-83167668D01*
X148129068Y-83167666D01*
X148139272Y-83157463D01*
X148139275Y-83157458D01*
X150099662Y-81197072D01*
X150160983Y-81163589D01*
X150163150Y-81163138D01*
X150221085Y-81151613D01*
X150318497Y-81132237D01*
X150464179Y-81071894D01*
X150595289Y-80984289D01*
X150706789Y-80872789D01*
X150794394Y-80741679D01*
X150799124Y-80730261D01*
X150829077Y-80657945D01*
X150854737Y-80595997D01*
X150885500Y-80441342D01*
X150885500Y-80283658D01*
X150885500Y-80283655D01*
X150885499Y-80283653D01*
X150882731Y-80269737D01*
X150854737Y-80129003D01*
X150851748Y-80121786D01*
X150794397Y-79983327D01*
X150794390Y-79983314D01*
X150706789Y-79852211D01*
X150706786Y-79852207D01*
X150595292Y-79740713D01*
X150595288Y-79740710D01*
X150464185Y-79653109D01*
X150464172Y-79653102D01*
X150318501Y-79592764D01*
X150318489Y-79592761D01*
X150163845Y-79562000D01*
X150163842Y-79562000D01*
X150006158Y-79562000D01*
X150006155Y-79562000D01*
X149851510Y-79592761D01*
X149851498Y-79592764D01*
X149705827Y-79653102D01*
X149705814Y-79653109D01*
X149574711Y-79740710D01*
X149574707Y-79740713D01*
X149463213Y-79852207D01*
X149463210Y-79852211D01*
X149375609Y-79983314D01*
X149375602Y-79983327D01*
X149315264Y-80128998D01*
X149315261Y-80129008D01*
X149284361Y-80284350D01*
X149275595Y-80301106D01*
X149271576Y-80319585D01*
X149252833Y-80344621D01*
X149251976Y-80346261D01*
X149250425Y-80347839D01*
X149197181Y-80401083D01*
X149135858Y-80434568D01*
X149066166Y-80429584D01*
X149010233Y-80387712D01*
X148985816Y-80322248D01*
X148985500Y-80313402D01*
X148985500Y-80283655D01*
X148985499Y-80283653D01*
X148982731Y-80269737D01*
X148954737Y-80129003D01*
X148951748Y-80121786D01*
X148894397Y-79983327D01*
X148894390Y-79983314D01*
X148806789Y-79852211D01*
X148806786Y-79852207D01*
X148695292Y-79740713D01*
X148695288Y-79740710D01*
X148564185Y-79653109D01*
X148564172Y-79653102D01*
X148418501Y-79592764D01*
X148418489Y-79592761D01*
X148263845Y-79562000D01*
X148263842Y-79562000D01*
X148106158Y-79562000D01*
X148106155Y-79562000D01*
X147951510Y-79592761D01*
X147951498Y-79592764D01*
X147805827Y-79653102D01*
X147805814Y-79653109D01*
X147674711Y-79740710D01*
X147674707Y-79740713D01*
X147563213Y-79852207D01*
X147563210Y-79852211D01*
X147475609Y-79983314D01*
X147475602Y-79983327D01*
X147415264Y-80128998D01*
X147415261Y-80129008D01*
X147384362Y-80284348D01*
X147351977Y-80346259D01*
X147350426Y-80347837D01*
X146288620Y-81409645D01*
X146227297Y-81443130D01*
X146200939Y-81445964D01*
X145842648Y-81445964D01*
X145775609Y-81426279D01*
X145773757Y-81425066D01*
X145642067Y-81337073D01*
X145642054Y-81337066D01*
X145496383Y-81276728D01*
X145496371Y-81276725D01*
X145341727Y-81245964D01*
X145341724Y-81245964D01*
X145184040Y-81245964D01*
X145184037Y-81245964D01*
X145029392Y-81276725D01*
X145029380Y-81276728D01*
X144896952Y-81331581D01*
X144827482Y-81339050D01*
X144765003Y-81307774D01*
X144729352Y-81247685D01*
X144725500Y-81217020D01*
X144725500Y-74146153D01*
X148834500Y-74146153D01*
X148834500Y-74303846D01*
X148865261Y-74458489D01*
X148865264Y-74458501D01*
X148925602Y-74604172D01*
X148925609Y-74604185D01*
X149013210Y-74735288D01*
X149013213Y-74735292D01*
X149124707Y-74846786D01*
X149124711Y-74846789D01*
X149255814Y-74934390D01*
X149255827Y-74934397D01*
X149389359Y-74989707D01*
X149401503Y-74994737D01*
X149428423Y-75000091D01*
X149450624Y-75004508D01*
X149512535Y-75036892D01*
X149547109Y-75097608D01*
X149543370Y-75167377D01*
X149516706Y-75209697D01*
X149517076Y-75210001D01*
X149514661Y-75212942D01*
X149514123Y-75213798D01*
X149513212Y-75214708D01*
X149513210Y-75214711D01*
X149425609Y-75345814D01*
X149425602Y-75345827D01*
X149365264Y-75491498D01*
X149365261Y-75491510D01*
X149334500Y-75646153D01*
X149334500Y-75803846D01*
X149365261Y-75958489D01*
X149365264Y-75958501D01*
X149425604Y-76104176D01*
X149425607Y-76104181D01*
X149427618Y-76107191D01*
X149431899Y-76114076D01*
X149505914Y-76242271D01*
X149505917Y-76242275D01*
X149505919Y-76242278D01*
X149617722Y-76354081D01*
X149733665Y-76421021D01*
X149745916Y-76428095D01*
X149752798Y-76432375D01*
X149755819Y-76434393D01*
X149755820Y-76434393D01*
X149755821Y-76434394D01*
X149901503Y-76494737D01*
X149966147Y-76507595D01*
X150056849Y-76525638D01*
X150118760Y-76558023D01*
X150120339Y-76559574D01*
X150860681Y-77299916D01*
X150875384Y-77326843D01*
X150891977Y-77352662D01*
X150892868Y-77358862D01*
X150894166Y-77361239D01*
X150897000Y-77387597D01*
X150897000Y-77507734D01*
X150877315Y-77574773D01*
X150876102Y-77576625D01*
X150788109Y-77708314D01*
X150788102Y-77708327D01*
X150727764Y-77853998D01*
X150727761Y-77854010D01*
X150697000Y-78008653D01*
X150697000Y-78166346D01*
X150727761Y-78320989D01*
X150727764Y-78321001D01*
X150788102Y-78466672D01*
X150788109Y-78466685D01*
X150875710Y-78597788D01*
X150875713Y-78597792D01*
X150987207Y-78709286D01*
X150987211Y-78709289D01*
X151118314Y-78796890D01*
X151118327Y-78796897D01*
X151263998Y-78857235D01*
X151264003Y-78857237D01*
X151418653Y-78887999D01*
X151418656Y-78888000D01*
X151418658Y-78888000D01*
X151576344Y-78888000D01*
X151576345Y-78887999D01*
X151730997Y-78857237D01*
X151876679Y-78796894D01*
X152007789Y-78709289D01*
X152119289Y-78597789D01*
X152206894Y-78466679D01*
X152267237Y-78320997D01*
X152298000Y-78166342D01*
X152298000Y-78008658D01*
X152298000Y-78008655D01*
X152297999Y-78008653D01*
X152293775Y-77987416D01*
X152267237Y-77854003D01*
X152219809Y-77739500D01*
X152206897Y-77708327D01*
X152206890Y-77708314D01*
X152118898Y-77576625D01*
X152098020Y-77509947D01*
X152098000Y-77507734D01*
X152098000Y-77176559D01*
X152098001Y-77176546D01*
X152098001Y-77008445D01*
X152098001Y-77008443D01*
X152057077Y-76855715D01*
X152015355Y-76783451D01*
X151978020Y-76718784D01*
X151866216Y-76606980D01*
X151861885Y-76602649D01*
X151861874Y-76602639D01*
X150969574Y-75710339D01*
X150936089Y-75649016D01*
X150935638Y-75646849D01*
X150904738Y-75491510D01*
X150904737Y-75491503D01*
X150904735Y-75491498D01*
X150844397Y-75345827D01*
X150844390Y-75345814D01*
X150756789Y-75214711D01*
X150756786Y-75214707D01*
X150645292Y-75103213D01*
X150645288Y-75103210D01*
X150514185Y-75015609D01*
X150514172Y-75015602D01*
X150368501Y-74955264D01*
X150368491Y-74955261D01*
X150319374Y-74945491D01*
X150257463Y-74913106D01*
X150222889Y-74852389D01*
X150226630Y-74782620D01*
X150253296Y-74740304D01*
X150252924Y-74739999D01*
X150255357Y-74737033D01*
X150255891Y-74736186D01*
X150256789Y-74735289D01*
X150344394Y-74604179D01*
X150346133Y-74599982D01*
X150376667Y-74526264D01*
X150404737Y-74458497D01*
X150435500Y-74303842D01*
X150435500Y-74146158D01*
X150435500Y-74146155D01*
X150435499Y-74146153D01*
X150417823Y-74057289D01*
X150404737Y-73991503D01*
X150393836Y-73965185D01*
X150344397Y-73845827D01*
X150344390Y-73845814D01*
X150256789Y-73714711D01*
X150256786Y-73714707D01*
X150145292Y-73603213D01*
X150145288Y-73603210D01*
X150014185Y-73515609D01*
X150014172Y-73515602D01*
X149868501Y-73455264D01*
X149868489Y-73455261D01*
X149713845Y-73424500D01*
X149713842Y-73424500D01*
X149556158Y-73424500D01*
X149556155Y-73424500D01*
X149401510Y-73455261D01*
X149401498Y-73455264D01*
X149255827Y-73515602D01*
X149255814Y-73515609D01*
X149124711Y-73603210D01*
X149124707Y-73603213D01*
X149013213Y-73714707D01*
X149013210Y-73714711D01*
X148925609Y-73845814D01*
X148925602Y-73845827D01*
X148865264Y-73991498D01*
X148865261Y-73991510D01*
X148834500Y-74146153D01*
X144725500Y-74146153D01*
X144725500Y-71699500D01*
X144745185Y-71632461D01*
X144797989Y-71586706D01*
X144849500Y-71575500D01*
X144853844Y-71575500D01*
X144853845Y-71575499D01*
X145008497Y-71544737D01*
X145121166Y-71498067D01*
X145154172Y-71484397D01*
X145154172Y-71484396D01*
X145154179Y-71484394D01*
X145191967Y-71459145D01*
X145285875Y-71396398D01*
X145352553Y-71375520D01*
X145354766Y-71375500D01*
X146631404Y-71375500D01*
X146698443Y-71395185D01*
X146719085Y-71411819D01*
X146916268Y-71609002D01*
X146916278Y-71609013D01*
X146920608Y-71613343D01*
X146920609Y-71613344D01*
X147032413Y-71725148D01*
X147104043Y-71766503D01*
X147169344Y-71804205D01*
X147322071Y-71845128D01*
X147322072Y-71845128D01*
X150994531Y-71845128D01*
X151061570Y-71864813D01*
X151082212Y-71881447D01*
X151340139Y-72139374D01*
X151340149Y-72139385D01*
X151344479Y-72143715D01*
X151344480Y-72143716D01*
X151456284Y-72255520D01*
X151507845Y-72285288D01*
X151543095Y-72305639D01*
X151543097Y-72305641D01*
X151593213Y-72334576D01*
X151593215Y-72334577D01*
X151745942Y-72375500D01*
X151745943Y-72375500D01*
X154245234Y-72375500D01*
X154312273Y-72395185D01*
X154314125Y-72396398D01*
X154445814Y-72484390D01*
X154445827Y-72484397D01*
X154591498Y-72544735D01*
X154591503Y-72544737D01*
X154746153Y-72575499D01*
X154746156Y-72575500D01*
X154746158Y-72575500D01*
X154903844Y-72575500D01*
X154903845Y-72575499D01*
X155058497Y-72544737D01*
X155204179Y-72484394D01*
X155335289Y-72396789D01*
X155446789Y-72285289D01*
X155534394Y-72154179D01*
X155594737Y-72008497D01*
X155625500Y-71853842D01*
X155625500Y-71696158D01*
X155625500Y-71696155D01*
X155625499Y-71696153D01*
X155609027Y-71613344D01*
X155594737Y-71541503D01*
X155571080Y-71484390D01*
X155534397Y-71395827D01*
X155534390Y-71395814D01*
X155446789Y-71264711D01*
X155446786Y-71264707D01*
X155335292Y-71153213D01*
X155335288Y-71153210D01*
X155204185Y-71065609D01*
X155204172Y-71065602D01*
X155058501Y-71005264D01*
X155058489Y-71005261D01*
X154903845Y-70974500D01*
X154903842Y-70974500D01*
X154746158Y-70974500D01*
X154746155Y-70974500D01*
X154591510Y-71005261D01*
X154591498Y-71005264D01*
X154445827Y-71065602D01*
X154445814Y-71065609D01*
X154314125Y-71153602D01*
X154247447Y-71174480D01*
X154245234Y-71174500D01*
X152125097Y-71174500D01*
X152058058Y-71154815D01*
X152037416Y-71138181D01*
X151782218Y-70882983D01*
X151782216Y-70882980D01*
X151663345Y-70764109D01*
X151663344Y-70764108D01*
X151571238Y-70710931D01*
X151571237Y-70710930D01*
X151526418Y-70685053D01*
X151526415Y-70685051D01*
X151465321Y-70668681D01*
X151373685Y-70644127D01*
X151215571Y-70644127D01*
X151207975Y-70644127D01*
X151207959Y-70644128D01*
X147701226Y-70644128D01*
X147634187Y-70624443D01*
X147613545Y-70607809D01*
X147419091Y-70413355D01*
X147419089Y-70413352D01*
X147300218Y-70294481D01*
X147300217Y-70294480D01*
X147213405Y-70244360D01*
X147213405Y-70244359D01*
X147213401Y-70244358D01*
X147163286Y-70215423D01*
X147010558Y-70174499D01*
X146852444Y-70174499D01*
X146844848Y-70174499D01*
X146844832Y-70174500D01*
X145354766Y-70174500D01*
X145287727Y-70154815D01*
X145285875Y-70153602D01*
X145154185Y-70065609D01*
X145154172Y-70065602D01*
X145008501Y-70005264D01*
X145008489Y-70005261D01*
X144853845Y-69974500D01*
X144853842Y-69974500D01*
X144849500Y-69974500D01*
X144782461Y-69954815D01*
X144736706Y-69902011D01*
X144725500Y-69850500D01*
X144725500Y-68069168D01*
X144745185Y-68002129D01*
X144797989Y-67956374D01*
X144867147Y-67946430D01*
X144918392Y-67966067D01*
X144945812Y-67984389D01*
X144945827Y-67984397D01*
X145083683Y-68041498D01*
X145091503Y-68044737D01*
X145246153Y-68075499D01*
X145246156Y-68075500D01*
X145246158Y-68075500D01*
X145403844Y-68075500D01*
X145403845Y-68075499D01*
X145558497Y-68044737D01*
X145704179Y-67984394D01*
X145760996Y-67946430D01*
X145835875Y-67896398D01*
X145902553Y-67875520D01*
X145904766Y-67875500D01*
X146738331Y-67875500D01*
X146738347Y-67875501D01*
X146745943Y-67875501D01*
X146904054Y-67875501D01*
X146904057Y-67875501D01*
X147056785Y-67834577D01*
X147106904Y-67805639D01*
X147193716Y-67755520D01*
X147305520Y-67643716D01*
X147305521Y-67643714D01*
X147339662Y-67609572D01*
X147400983Y-67576089D01*
X147403150Y-67575638D01*
X147461085Y-67564113D01*
X147558497Y-67544737D01*
X147704179Y-67484394D01*
X147835289Y-67396789D01*
X147946789Y-67285289D01*
X148034394Y-67154179D01*
X148094737Y-67008497D01*
X148125500Y-66853842D01*
X148125500Y-66696158D01*
X148125500Y-66696155D01*
X148125499Y-66696153D01*
X148103440Y-66585256D01*
X148094737Y-66541503D01*
X148094735Y-66541498D01*
X148034397Y-66395827D01*
X148034390Y-66395814D01*
X147946789Y-66264711D01*
X147946786Y-66264707D01*
X147835292Y-66153213D01*
X147835288Y-66153210D01*
X147704185Y-66065609D01*
X147704172Y-66065602D01*
X147558501Y-66005264D01*
X147558489Y-66005261D01*
X147403845Y-65974500D01*
X147403842Y-65974500D01*
X147246158Y-65974500D01*
X147246155Y-65974500D01*
X147091510Y-66005261D01*
X147091498Y-66005264D01*
X146945827Y-66065602D01*
X146945814Y-66065609D01*
X146814711Y-66153210D01*
X146814707Y-66153213D01*
X146703213Y-66264707D01*
X146703210Y-66264711D01*
X146615609Y-66395814D01*
X146615602Y-66395827D01*
X146555264Y-66541498D01*
X146555261Y-66541510D01*
X146548661Y-66574691D01*
X146516276Y-66636602D01*
X146455561Y-66671176D01*
X146427044Y-66674500D01*
X145904766Y-66674500D01*
X145837727Y-66654815D01*
X145835875Y-66653602D01*
X145704185Y-66565609D01*
X145704172Y-66565602D01*
X145558501Y-66505264D01*
X145558489Y-66505261D01*
X145403845Y-66474500D01*
X145403842Y-66474500D01*
X145246158Y-66474500D01*
X145246155Y-66474500D01*
X145091510Y-66505261D01*
X145091498Y-66505264D01*
X144945827Y-66565602D01*
X144945816Y-66565608D01*
X144918390Y-66583934D01*
X144851712Y-66604811D01*
X144784332Y-66586326D01*
X144737643Y-66534346D01*
X144725500Y-66480831D01*
X144725500Y-65069168D01*
X144745185Y-65002129D01*
X144797989Y-64956374D01*
X144867147Y-64946430D01*
X144918392Y-64966067D01*
X144945812Y-64984389D01*
X144945827Y-64984397D01*
X145091498Y-65044735D01*
X145091503Y-65044737D01*
X145246153Y-65075499D01*
X145246156Y-65075500D01*
X145246158Y-65075500D01*
X145403844Y-65075500D01*
X145403845Y-65075499D01*
X145558497Y-65044737D01*
X145704179Y-64984394D01*
X145835289Y-64896789D01*
X145946789Y-64785289D01*
X146034394Y-64654179D01*
X146094737Y-64508497D01*
X146125500Y-64353842D01*
X146125638Y-64353150D01*
X146158023Y-64291239D01*
X146159517Y-64289717D01*
X148805520Y-61643716D01*
X148884577Y-61506784D01*
X148925501Y-61354057D01*
X148925501Y-61195942D01*
X148925501Y-61188347D01*
X148925500Y-61188329D01*
X148925500Y-60354765D01*
X148929789Y-60338985D01*
X148929212Y-60324652D01*
X148940786Y-60298535D01*
X148942568Y-60291983D01*
X148946084Y-60285993D01*
X148946789Y-60285289D01*
X149034394Y-60154179D01*
X149060547Y-60091039D01*
X149064892Y-60083639D01*
X149084351Y-60065354D01*
X149101104Y-60044565D01*
X149109421Y-60041796D01*
X149115810Y-60035794D01*
X149142061Y-60030932D01*
X149167398Y-60022500D01*
X149175892Y-60024668D01*
G37*
%TD.AperFunction*%
%TA.AperFunction,Conductor*%
G36*
X139012446Y-84717449D02*
G01*
X139017147Y-84716774D01*
X139023348Y-84718475D01*
X139028565Y-84718966D01*
X139037987Y-84721237D01*
X139076456Y-84737172D01*
X139231111Y-84767935D01*
X139231662Y-84767935D01*
X139236676Y-84769144D01*
X139276005Y-84791195D01*
X139293713Y-84800458D01*
X139294269Y-84801435D01*
X139295292Y-84802009D01*
X139782657Y-85289374D01*
X139782667Y-85289385D01*
X139786997Y-85293715D01*
X139786998Y-85293716D01*
X139898802Y-85405520D01*
X139898804Y-85405521D01*
X139898808Y-85405524D01*
X140035727Y-85484573D01*
X140035734Y-85484577D01*
X140141642Y-85512955D01*
X140141641Y-85512955D01*
X140151535Y-85515605D01*
X140188460Y-85525500D01*
X140188461Y-85525500D01*
X141245234Y-85525500D01*
X141312273Y-85545185D01*
X141314125Y-85546398D01*
X141445814Y-85634390D01*
X141445827Y-85634397D01*
X141565948Y-85684152D01*
X141591503Y-85694737D01*
X141719956Y-85720288D01*
X141746153Y-85725499D01*
X141746156Y-85725500D01*
X141746158Y-85725500D01*
X141903844Y-85725500D01*
X141903845Y-85725499D01*
X142058497Y-85694737D01*
X142204179Y-85634394D01*
X142204184Y-85634390D01*
X142209552Y-85631522D01*
X142210272Y-85632870D01*
X142210675Y-85632744D01*
X142216489Y-85627331D01*
X142243537Y-85622450D01*
X142269768Y-85614234D01*
X142279181Y-85616018D01*
X142285249Y-85614924D01*
X142319447Y-85623653D01*
X142328327Y-85627331D01*
X142397953Y-85656171D01*
X142452356Y-85700010D01*
X142474421Y-85766304D01*
X142474500Y-85770731D01*
X142474500Y-85945234D01*
X142454815Y-86012273D01*
X142453602Y-86014125D01*
X142365609Y-86145814D01*
X142365602Y-86145827D01*
X142305264Y-86291498D01*
X142305261Y-86291510D01*
X142274500Y-86446153D01*
X142274500Y-86603846D01*
X142305261Y-86758489D01*
X142305264Y-86758501D01*
X142365602Y-86904172D01*
X142365609Y-86904185D01*
X142453210Y-87035288D01*
X142453213Y-87035292D01*
X142564707Y-87146786D01*
X142564711Y-87146789D01*
X142695814Y-87234390D01*
X142695827Y-87234397D01*
X142780746Y-87269571D01*
X142841503Y-87294737D01*
X142924693Y-87311284D01*
X142986602Y-87343668D01*
X143021176Y-87404384D01*
X143024500Y-87432901D01*
X143024500Y-105853846D01*
X143055261Y-106008489D01*
X143055264Y-106008501D01*
X143115602Y-106154172D01*
X143115609Y-106154185D01*
X143203210Y-106285288D01*
X143203213Y-106285292D01*
X144740253Y-107822332D01*
X144773738Y-107883655D01*
X144768754Y-107953347D01*
X144726882Y-108009280D01*
X144661418Y-108033697D01*
X144605121Y-108024575D01*
X144558497Y-108005263D01*
X144558492Y-108005262D01*
X144558489Y-108005261D01*
X144403845Y-107974500D01*
X144403842Y-107974500D01*
X142403842Y-107974500D01*
X142246158Y-107974500D01*
X142246155Y-107974500D01*
X142091510Y-108005261D01*
X142091498Y-108005264D01*
X141945827Y-108065602D01*
X141945814Y-108065609D01*
X141814711Y-108153210D01*
X141814707Y-108153213D01*
X140648392Y-109319529D01*
X140645280Y-109321227D01*
X140643411Y-109324243D01*
X140614834Y-109337853D01*
X140587069Y-109353014D01*
X140583531Y-109352761D01*
X140580330Y-109354286D01*
X140548945Y-109350287D01*
X140517377Y-109348030D01*
X140514536Y-109345903D01*
X140511021Y-109345456D01*
X140486776Y-109325122D01*
X140461444Y-109306158D01*
X140459405Y-109302165D01*
X140457487Y-109300557D01*
X140452839Y-109289309D01*
X140442311Y-109268692D01*
X140440370Y-109262455D01*
X140428904Y-109204811D01*
X140402885Y-109141997D01*
X140401208Y-109136606D01*
X140400733Y-109107090D01*
X140397578Y-109077745D01*
X140400177Y-109072552D01*
X140400084Y-109066745D01*
X140415641Y-109041658D01*
X140428853Y-109015266D01*
X140431911Y-109012097D01*
X140471994Y-108972015D01*
X140559599Y-108840905D01*
X140619942Y-108695223D01*
X140650705Y-108540568D01*
X140650705Y-108382884D01*
X140650705Y-108382881D01*
X140650704Y-108382879D01*
X140646736Y-108362931D01*
X140619942Y-108228229D01*
X140588869Y-108153211D01*
X140559602Y-108082553D01*
X140559595Y-108082540D01*
X140471994Y-107951437D01*
X140471991Y-107951433D01*
X140360497Y-107839939D01*
X140360493Y-107839936D01*
X140229390Y-107752335D01*
X140229377Y-107752328D01*
X140083706Y-107691990D01*
X140083694Y-107691987D01*
X139929050Y-107661226D01*
X139929047Y-107661226D01*
X139845927Y-107661226D01*
X139813834Y-107657001D01*
X139764688Y-107643832D01*
X139692536Y-107624499D01*
X139534422Y-107624499D01*
X139526826Y-107624499D01*
X139526810Y-107624500D01*
X139075098Y-107624500D01*
X139008059Y-107604815D01*
X138987417Y-107588181D01*
X138911819Y-107512583D01*
X138878334Y-107451260D01*
X138875500Y-107424902D01*
X138875500Y-84839512D01*
X138882117Y-84816974D01*
X138884318Y-84793587D01*
X138891779Y-84784071D01*
X138895185Y-84772473D01*
X138912934Y-84757092D01*
X138927431Y-84738606D01*
X138938852Y-84734635D01*
X138947989Y-84726718D01*
X138971238Y-84723374D01*
X138993426Y-84715661D01*
X139012446Y-84717449D01*
G37*
%TD.AperFunction*%
%TA.AperFunction,Conductor*%
G36*
X160189210Y-107871301D02*
G01*
X160221969Y-107933015D01*
X160224500Y-107957941D01*
X160224500Y-107974902D01*
X160204815Y-108041941D01*
X160188181Y-108062583D01*
X159487181Y-108763583D01*
X159425858Y-108797068D01*
X159356166Y-108792084D01*
X159300233Y-108750212D01*
X159275816Y-108684748D01*
X159275500Y-108675902D01*
X159275500Y-108659411D01*
X159295185Y-108592372D01*
X159311819Y-108571730D01*
X159655314Y-108228236D01*
X160005520Y-107878030D01*
X160005520Y-107878029D01*
X160011267Y-107872283D01*
X160013288Y-107874304D01*
X160058541Y-107841256D01*
X160128287Y-107837094D01*
X160189210Y-107871301D01*
G37*
%TD.AperFunction*%
%TA.AperFunction,Conductor*%
G36*
X161244542Y-85490051D02*
G01*
X161300475Y-85531923D01*
X161324892Y-85597387D01*
X161325208Y-85606233D01*
X161325208Y-95859980D01*
X161305523Y-95927019D01*
X161288889Y-95947661D01*
X161124214Y-96112335D01*
X161124215Y-96112336D01*
X161019479Y-96217072D01*
X160990942Y-96266502D01*
X160990941Y-96266503D01*
X160940424Y-96353999D01*
X160940423Y-96354003D01*
X160899499Y-96506730D01*
X160899499Y-96506731D01*
X160899499Y-96506732D01*
X160899500Y-96620821D01*
X160899500Y-98885689D01*
X160879815Y-98952728D01*
X160863181Y-98973370D01*
X160338733Y-99497818D01*
X160336714Y-99495799D01*
X160291431Y-99528854D01*
X160221684Y-99532999D01*
X160160769Y-99498778D01*
X160128025Y-99437056D01*
X160125500Y-99412159D01*
X160125500Y-85892784D01*
X160145185Y-85825745D01*
X160197989Y-85779990D01*
X160267147Y-85770046D01*
X160273692Y-85771167D01*
X160421155Y-85800500D01*
X160421158Y-85800500D01*
X160578844Y-85800500D01*
X160578845Y-85800499D01*
X160733497Y-85769737D01*
X160879179Y-85709394D01*
X161010289Y-85621789D01*
X161053464Y-85578614D01*
X161113527Y-85518552D01*
X161174850Y-85485067D01*
X161244542Y-85490051D01*
G37*
%TD.AperFunction*%
%TA.AperFunction,Conductor*%
G36*
X126374440Y-78294285D02*
G01*
X126422052Y-78345421D01*
X126433642Y-78381528D01*
X126438910Y-78414787D01*
X126516760Y-78654383D01*
X126589372Y-78796890D01*
X126630806Y-78878210D01*
X126631132Y-78878848D01*
X126779201Y-79082649D01*
X126779205Y-79082654D01*
X126957345Y-79260794D01*
X126957350Y-79260798D01*
X127120279Y-79379172D01*
X127161155Y-79408870D01*
X127254036Y-79456195D01*
X127385616Y-79523239D01*
X127385618Y-79523239D01*
X127385621Y-79523241D01*
X127625215Y-79601090D01*
X127874038Y-79640500D01*
X127874039Y-79640500D01*
X128125961Y-79640500D01*
X128125962Y-79640500D01*
X128359195Y-79603559D01*
X128428487Y-79612513D01*
X128466273Y-79638351D01*
X129163181Y-80335259D01*
X129196666Y-80396582D01*
X129199500Y-80422940D01*
X129199500Y-96578843D01*
X129230261Y-96733489D01*
X129230264Y-96733501D01*
X129290602Y-96879172D01*
X129290609Y-96879185D01*
X129378210Y-97010288D01*
X129378213Y-97010292D01*
X129489707Y-97121786D01*
X129489711Y-97121789D01*
X129620814Y-97209390D01*
X129620827Y-97209397D01*
X129758683Y-97266498D01*
X129766503Y-97269737D01*
X129921153Y-97300499D01*
X129921156Y-97300500D01*
X129921158Y-97300500D01*
X129932060Y-97300500D01*
X129999099Y-97320185D01*
X130019741Y-97336819D01*
X130488181Y-97805259D01*
X130521666Y-97866582D01*
X130524500Y-97892940D01*
X130524500Y-99093060D01*
X130504815Y-99160099D01*
X130452011Y-99205854D01*
X130382853Y-99215798D01*
X130319297Y-99186773D01*
X130312819Y-99180741D01*
X128836819Y-97704741D01*
X128803334Y-97643418D01*
X128800500Y-97617060D01*
X128800500Y-80921155D01*
X128800499Y-80921153D01*
X128790879Y-80872789D01*
X128769737Y-80766503D01*
X128759452Y-80741672D01*
X128709397Y-80620827D01*
X128709390Y-80620814D01*
X128621789Y-80489711D01*
X128621786Y-80489707D01*
X128510292Y-80378213D01*
X128510288Y-80378210D01*
X128379185Y-80290609D01*
X128379172Y-80290602D01*
X128233501Y-80230264D01*
X128233489Y-80230261D01*
X128078845Y-80199500D01*
X128078842Y-80199500D01*
X127245891Y-80199500D01*
X127178852Y-80179815D01*
X127158210Y-80163181D01*
X125889216Y-78894187D01*
X125855731Y-78832864D01*
X125860715Y-78763172D01*
X125902587Y-78707239D01*
X125907985Y-78703418D01*
X125970289Y-78661789D01*
X126081789Y-78550289D01*
X126169394Y-78419179D01*
X126196609Y-78353475D01*
X126240447Y-78299073D01*
X126306741Y-78277007D01*
X126374440Y-78294285D01*
G37*
%TD.AperFunction*%
%TA.AperFunction,Conductor*%
G36*
X136208039Y-38520185D02*
G01*
X136253794Y-38572989D01*
X136265000Y-38624500D01*
X136265000Y-40075000D01*
X164265000Y-40075000D01*
X164265000Y-38624500D01*
X164284685Y-38557461D01*
X164337489Y-38511706D01*
X164389000Y-38500500D01*
X169153846Y-38500500D01*
X169220885Y-38520185D01*
X169266640Y-38572989D01*
X169276584Y-38642147D01*
X169247559Y-38705703D01*
X169241527Y-38712181D01*
X169143412Y-38810295D01*
X169143406Y-38810302D01*
X168999730Y-38997545D01*
X168881719Y-39201943D01*
X168881714Y-39201954D01*
X168791394Y-39420006D01*
X168730306Y-39647989D01*
X168699501Y-39881979D01*
X168699500Y-39881995D01*
X168699500Y-40118004D01*
X168699501Y-40118020D01*
X168730306Y-40352010D01*
X168791394Y-40579993D01*
X168881714Y-40798045D01*
X168881719Y-40798056D01*
X168938168Y-40895827D01*
X168999727Y-41002450D01*
X168999729Y-41002453D01*
X168999730Y-41002454D01*
X169143406Y-41189697D01*
X169143412Y-41189704D01*
X169310295Y-41356587D01*
X169310302Y-41356593D01*
X169375069Y-41406290D01*
X169497550Y-41500273D01*
X169628918Y-41576118D01*
X169701943Y-41618280D01*
X169701948Y-41618282D01*
X169701951Y-41618284D01*
X169920007Y-41708606D01*
X170147986Y-41769693D01*
X170381989Y-41800500D01*
X170381996Y-41800500D01*
X170618004Y-41800500D01*
X170618011Y-41800500D01*
X170852014Y-41769693D01*
X171079993Y-41708606D01*
X171298049Y-41618284D01*
X171502450Y-41500273D01*
X171689699Y-41356592D01*
X171708983Y-41337308D01*
X171787819Y-41258473D01*
X171849142Y-41224988D01*
X171918834Y-41229972D01*
X171974767Y-41271844D01*
X171999184Y-41337308D01*
X171999500Y-41346154D01*
X171999500Y-76511011D01*
X171979815Y-76578050D01*
X171927011Y-76623805D01*
X171857853Y-76633749D01*
X171794297Y-76604724D01*
X171787819Y-76598692D01*
X171248818Y-76059691D01*
X171215333Y-75998368D01*
X171220317Y-75928676D01*
X171233396Y-75903120D01*
X171249394Y-75879179D01*
X171250918Y-75875501D01*
X171285043Y-75793113D01*
X171309737Y-75733497D01*
X171340500Y-75578842D01*
X171340500Y-75421158D01*
X171340500Y-75421155D01*
X171340499Y-75421153D01*
X171331127Y-75374038D01*
X171309737Y-75266503D01*
X171287906Y-75213798D01*
X171249397Y-75120827D01*
X171249390Y-75120814D01*
X171161789Y-74989711D01*
X171161786Y-74989707D01*
X171050292Y-74878213D01*
X171050288Y-74878210D01*
X170919185Y-74790609D01*
X170919172Y-74790602D01*
X170773501Y-74730264D01*
X170773489Y-74730261D01*
X170618845Y-74699500D01*
X170618842Y-74699500D01*
X170461158Y-74699500D01*
X170461155Y-74699500D01*
X170306510Y-74730261D01*
X170306498Y-74730264D01*
X170160827Y-74790602D01*
X170160814Y-74790609D01*
X170029711Y-74878210D01*
X170029707Y-74878213D01*
X169918213Y-74989707D01*
X169918210Y-74989711D01*
X169876595Y-75051993D01*
X169822983Y-75096798D01*
X169753658Y-75105505D01*
X169690630Y-75075350D01*
X169685812Y-75070783D01*
X169493242Y-74878212D01*
X169489612Y-74875233D01*
X169457792Y-74835675D01*
X169368870Y-74661155D01*
X169297253Y-74562582D01*
X169220798Y-74457350D01*
X169220794Y-74457345D01*
X169042654Y-74279205D01*
X169042649Y-74279201D01*
X168838848Y-74131132D01*
X168838847Y-74131131D01*
X168838845Y-74131130D01*
X168768747Y-74095413D01*
X168614383Y-74016760D01*
X168374785Y-73938910D01*
X168125962Y-73899500D01*
X167874038Y-73899500D01*
X167807738Y-73910001D01*
X167625214Y-73938910D01*
X167385616Y-74016760D01*
X167161151Y-74131132D01*
X166957350Y-74279201D01*
X166957345Y-74279205D01*
X166779205Y-74457345D01*
X166779201Y-74457350D01*
X166631132Y-74661151D01*
X166516760Y-74885616D01*
X166438910Y-75125214D01*
X166424735Y-75214711D01*
X166399500Y-75374038D01*
X166399500Y-75625962D01*
X166407467Y-75676265D01*
X166438910Y-75874785D01*
X166516760Y-76114383D01*
X166581923Y-76242271D01*
X166620108Y-76317214D01*
X166631132Y-76338848D01*
X166698764Y-76431937D01*
X166722244Y-76497743D01*
X166706418Y-76565797D01*
X166686128Y-76592503D01*
X166557287Y-76721345D01*
X166465187Y-76870662D01*
X166465186Y-76870665D01*
X166410001Y-77037202D01*
X166410001Y-77037203D01*
X166410000Y-77037203D01*
X166399500Y-77139982D01*
X166399500Y-78940017D01*
X166410000Y-79042796D01*
X166465185Y-79209332D01*
X166465187Y-79209337D01*
X166477598Y-79229458D01*
X166557288Y-79358656D01*
X166681344Y-79482712D01*
X166830665Y-79574814D01*
X166997202Y-79629999D01*
X167088103Y-79639285D01*
X167152794Y-79665681D01*
X167192945Y-79722861D01*
X167199500Y-79762643D01*
X167199500Y-94117060D01*
X167179815Y-94184099D01*
X167163181Y-94204741D01*
X162712181Y-98655741D01*
X162650858Y-98689226D01*
X162581166Y-98684242D01*
X162525233Y-98642370D01*
X162500816Y-98576906D01*
X162500500Y-98568060D01*
X162500500Y-97051568D01*
X162509144Y-97022127D01*
X162515668Y-96992141D01*
X162519422Y-96987125D01*
X162520185Y-96984529D01*
X162536810Y-96963896D01*
X162684217Y-96816488D01*
X162684222Y-96816485D01*
X162694422Y-96806284D01*
X162694424Y-96806284D01*
X162806228Y-96694480D01*
X162828353Y-96656158D01*
X162872990Y-96578845D01*
X162872991Y-96578843D01*
X162877979Y-96570201D01*
X162885285Y-96557549D01*
X162926209Y-96404821D01*
X162926209Y-96246707D01*
X162926209Y-96239112D01*
X162926208Y-96239094D01*
X162926208Y-62926662D01*
X163825500Y-62926662D01*
X163825500Y-63123337D01*
X163856267Y-63317593D01*
X163856267Y-63317596D01*
X163917041Y-63504639D01*
X163957444Y-63583934D01*
X164006332Y-63679881D01*
X164121935Y-63838995D01*
X164261005Y-63978065D01*
X164420119Y-64093668D01*
X164588807Y-64179619D01*
X164595360Y-64182958D01*
X164782404Y-64243732D01*
X164782405Y-64243732D01*
X164782408Y-64243733D01*
X164976662Y-64274500D01*
X164976663Y-64274500D01*
X165173337Y-64274500D01*
X165173338Y-64274500D01*
X165367592Y-64243733D01*
X165367595Y-64243732D01*
X165367596Y-64243732D01*
X165554639Y-64182958D01*
X165554639Y-64182957D01*
X165554642Y-64182957D01*
X165729881Y-64093668D01*
X165888995Y-63978065D01*
X166028065Y-63838995D01*
X166143668Y-63679881D01*
X166232957Y-63504642D01*
X166260102Y-63421098D01*
X166293732Y-63317596D01*
X166293732Y-63317595D01*
X166293733Y-63317592D01*
X166324500Y-63123338D01*
X166324500Y-62926662D01*
X166293733Y-62732408D01*
X166293732Y-62732404D01*
X166293732Y-62732403D01*
X166232958Y-62545360D01*
X166225132Y-62530000D01*
X166143668Y-62370119D01*
X166028065Y-62211005D01*
X165888995Y-62071935D01*
X165729881Y-61956332D01*
X165554639Y-61867041D01*
X165367595Y-61806267D01*
X165221901Y-61783191D01*
X165173338Y-61775500D01*
X164976662Y-61775500D01*
X164911910Y-61785755D01*
X164782406Y-61806267D01*
X164782403Y-61806267D01*
X164595360Y-61867041D01*
X164420118Y-61956332D01*
X164261002Y-62071937D01*
X164121937Y-62211002D01*
X164006332Y-62370118D01*
X163917041Y-62545360D01*
X163856267Y-62732403D01*
X163856267Y-62732406D01*
X163825500Y-62926662D01*
X162926208Y-62926662D01*
X162926208Y-56426662D01*
X163825500Y-56426662D01*
X163825500Y-56623337D01*
X163856267Y-56817593D01*
X163856267Y-56817596D01*
X163917041Y-57004639D01*
X163977521Y-57123337D01*
X164006332Y-57179881D01*
X164121935Y-57338995D01*
X164261005Y-57478065D01*
X164420119Y-57593668D01*
X164549498Y-57659590D01*
X164595360Y-57682958D01*
X164782404Y-57743732D01*
X164782405Y-57743732D01*
X164782408Y-57743733D01*
X164976662Y-57774500D01*
X164976663Y-57774500D01*
X165173337Y-57774500D01*
X165173338Y-57774500D01*
X165367592Y-57743733D01*
X165367595Y-57743732D01*
X165367596Y-57743732D01*
X165554639Y-57682958D01*
X165554639Y-57682957D01*
X165554642Y-57682957D01*
X165729881Y-57593668D01*
X165888995Y-57478065D01*
X166028065Y-57338995D01*
X166143668Y-57179881D01*
X166232957Y-57004642D01*
X166276680Y-56870077D01*
X166293732Y-56817596D01*
X166293732Y-56817595D01*
X166293733Y-56817592D01*
X166324500Y-56623338D01*
X166324500Y-56426662D01*
X166293733Y-56232408D01*
X166293732Y-56232404D01*
X166293732Y-56232403D01*
X166232958Y-56045360D01*
X166175510Y-55932612D01*
X166143668Y-55870119D01*
X166028065Y-55711005D01*
X165888995Y-55571935D01*
X165729881Y-55456332D01*
X165646013Y-55413599D01*
X165554639Y-55367041D01*
X165367595Y-55306267D01*
X165221901Y-55283191D01*
X165173338Y-55275500D01*
X164976662Y-55275500D01*
X164911910Y-55285755D01*
X164782406Y-55306267D01*
X164782403Y-55306267D01*
X164595360Y-55367041D01*
X164420118Y-55456332D01*
X164261002Y-55571937D01*
X164121937Y-55711002D01*
X164006332Y-55870118D01*
X163917041Y-56045360D01*
X163856267Y-56232403D01*
X163856267Y-56232406D01*
X163825500Y-56426662D01*
X162926208Y-56426662D01*
X162926208Y-52989270D01*
X162930433Y-52957178D01*
X162943156Y-52909689D01*
X162974231Y-52793716D01*
X162974231Y-52793712D01*
X162974251Y-52793680D01*
X162974252Y-52793634D01*
X162974562Y-52792481D01*
X162975364Y-52789812D01*
X162975495Y-52788997D01*
X162975500Y-52788981D01*
X162975500Y-52788978D01*
X162975501Y-52788975D01*
X162975500Y-52630861D01*
X162975500Y-49414060D01*
X162975501Y-49414047D01*
X162975501Y-49245945D01*
X162975501Y-49245943D01*
X162934577Y-49093215D01*
X162855520Y-48956284D01*
X161159573Y-47260337D01*
X161126088Y-47199014D01*
X161125637Y-47196847D01*
X161113654Y-47136603D01*
X161094737Y-47041503D01*
X161080884Y-47008058D01*
X161034397Y-46895827D01*
X161034390Y-46895814D01*
X160946789Y-46764711D01*
X160946786Y-46764707D01*
X160835292Y-46653213D01*
X160835288Y-46653210D01*
X160704185Y-46565609D01*
X160704172Y-46565602D01*
X160558501Y-46505264D01*
X160558489Y-46505261D01*
X160403845Y-46474500D01*
X160403842Y-46474500D01*
X160246158Y-46474500D01*
X160246155Y-46474500D01*
X160091510Y-46505261D01*
X160091498Y-46505264D01*
X159945827Y-46565602D01*
X159945814Y-46565609D01*
X159814711Y-46653210D01*
X159814707Y-46653213D01*
X159703213Y-46764707D01*
X159703210Y-46764711D01*
X159615609Y-46895814D01*
X159615602Y-46895827D01*
X159555264Y-47041498D01*
X159555261Y-47041510D01*
X159524500Y-47196153D01*
X159524500Y-47353846D01*
X159555261Y-47508489D01*
X159555264Y-47508501D01*
X159615602Y-47654172D01*
X159615609Y-47654185D01*
X159703210Y-47785288D01*
X159703213Y-47785292D01*
X159814707Y-47896786D01*
X159814711Y-47896789D01*
X159945814Y-47984390D01*
X159945827Y-47984397D01*
X160091498Y-48044735D01*
X160091503Y-48044737D01*
X160156147Y-48057595D01*
X160246849Y-48075638D01*
X160263605Y-48084402D01*
X160282085Y-48088423D01*
X160307123Y-48107167D01*
X160308760Y-48108023D01*
X160310339Y-48109574D01*
X160326219Y-48125454D01*
X160359704Y-48186777D01*
X160354720Y-48256469D01*
X160341641Y-48282025D01*
X160265608Y-48395816D01*
X160265602Y-48395827D01*
X160205264Y-48541498D01*
X160205261Y-48541510D01*
X160174500Y-48696153D01*
X160174500Y-48853846D01*
X160205261Y-49008489D01*
X160205264Y-49008501D01*
X160265602Y-49154172D01*
X160265609Y-49154185D01*
X160353210Y-49285288D01*
X160353213Y-49285292D01*
X160464707Y-49396786D01*
X160464711Y-49396789D01*
X160595814Y-49484390D01*
X160595827Y-49484397D01*
X160737814Y-49543209D01*
X160741503Y-49544737D01*
X160806147Y-49557595D01*
X160896849Y-49575638D01*
X160958760Y-49608023D01*
X160960339Y-49609574D01*
X161338181Y-49987416D01*
X161371666Y-50048739D01*
X161374500Y-50075097D01*
X161374500Y-52200500D01*
X161354815Y-52267539D01*
X161302011Y-52313294D01*
X161250500Y-52324500D01*
X160976702Y-52324500D01*
X160939095Y-52334576D01*
X160939096Y-52334577D01*
X160823975Y-52365423D01*
X160823970Y-52365426D01*
X160687051Y-52444475D01*
X160687043Y-52444481D01*
X160194481Y-52937043D01*
X160194477Y-52937048D01*
X160149229Y-53015422D01*
X160149229Y-53015423D01*
X160115423Y-53073975D01*
X160115423Y-53073976D01*
X160074499Y-53226704D01*
X160074499Y-53226706D01*
X160074499Y-53394807D01*
X160074500Y-53394820D01*
X160074500Y-54174291D01*
X160054815Y-54241330D01*
X160038181Y-54261972D01*
X159637181Y-54662972D01*
X159575858Y-54696457D01*
X159506166Y-54691473D01*
X159450233Y-54649601D01*
X159425816Y-54584137D01*
X159425500Y-54575291D01*
X159425500Y-54195945D01*
X159425500Y-54195943D01*
X159384577Y-54043216D01*
X159384573Y-54043209D01*
X159305524Y-53906290D01*
X159305518Y-53906282D01*
X159193717Y-53794481D01*
X159193709Y-53794475D01*
X159056790Y-53715426D01*
X159056786Y-53715424D01*
X159056784Y-53715423D01*
X158904057Y-53674500D01*
X158904056Y-53674500D01*
X158625098Y-53674500D01*
X158558059Y-53654815D01*
X158537417Y-53638181D01*
X157961819Y-53062583D01*
X157928334Y-53001260D01*
X157925500Y-52974902D01*
X157925500Y-47075097D01*
X157945185Y-47008058D01*
X157961819Y-46987416D01*
X158184528Y-46764707D01*
X158527046Y-46422189D01*
X158588367Y-46388706D01*
X158658059Y-46393690D01*
X158662161Y-46395304D01*
X158781503Y-46444737D01*
X158931131Y-46474500D01*
X158936153Y-46475499D01*
X158936156Y-46475500D01*
X158936158Y-46475500D01*
X159093844Y-46475500D01*
X159093845Y-46475499D01*
X159248497Y-46444737D01*
X159394179Y-46384394D01*
X159525289Y-46296789D01*
X159636789Y-46185289D01*
X159724394Y-46054179D01*
X159784737Y-45908497D01*
X159815500Y-45753842D01*
X159815500Y-45596158D01*
X159815500Y-45596155D01*
X159815499Y-45596153D01*
X159798061Y-45508489D01*
X159784737Y-45441503D01*
X159748427Y-45353842D01*
X159724397Y-45295827D01*
X159724390Y-45295814D01*
X159636789Y-45164711D01*
X159636786Y-45164707D01*
X159525292Y-45053213D01*
X159525288Y-45053210D01*
X159394185Y-44965609D01*
X159394172Y-44965602D01*
X159248501Y-44905264D01*
X159248489Y-44905261D01*
X159093845Y-44874500D01*
X159093842Y-44874500D01*
X158936158Y-44874500D01*
X158936155Y-44874500D01*
X158781510Y-44905261D01*
X158781498Y-44905264D01*
X158635827Y-44965602D01*
X158635814Y-44965609D01*
X158504711Y-45053210D01*
X158504707Y-45053213D01*
X158419741Y-45138180D01*
X158358418Y-45171665D01*
X158332060Y-45174499D01*
X158245943Y-45174499D01*
X158171442Y-45194462D01*
X158093214Y-45215423D01*
X158093209Y-45215426D01*
X157956290Y-45294475D01*
X157956282Y-45294481D01*
X156844481Y-46406282D01*
X156844480Y-46406284D01*
X156804519Y-46475500D01*
X156794361Y-46493094D01*
X156794359Y-46493096D01*
X156765425Y-46543209D01*
X156765424Y-46543210D01*
X156762744Y-46553213D01*
X156724499Y-46695943D01*
X156724499Y-46695945D01*
X156724499Y-46864046D01*
X156724500Y-46864059D01*
X156724500Y-49350500D01*
X156704815Y-49417539D01*
X156652011Y-49463294D01*
X156600500Y-49474500D01*
X156596155Y-49474500D01*
X156441510Y-49505261D01*
X156441498Y-49505264D01*
X156295827Y-49565602D01*
X156295814Y-49565609D01*
X156164711Y-49653210D01*
X156164707Y-49653213D01*
X156137181Y-49680740D01*
X156075858Y-49714225D01*
X156006166Y-49709241D01*
X155950233Y-49667369D01*
X155925816Y-49601905D01*
X155925500Y-49593059D01*
X155925500Y-42161555D01*
X155945185Y-42094516D01*
X155997989Y-42048761D01*
X156067147Y-42038817D01*
X156085411Y-42043840D01*
X156085676Y-42042969D01*
X156091492Y-42044732D01*
X156091503Y-42044737D01*
X156246153Y-42075499D01*
X156246156Y-42075500D01*
X156246158Y-42075500D01*
X156403844Y-42075500D01*
X156403845Y-42075499D01*
X156558497Y-42044737D01*
X156704179Y-41984394D01*
X156835289Y-41896789D01*
X156946789Y-41785289D01*
X157034394Y-41654179D01*
X157094737Y-41508497D01*
X157125500Y-41353842D01*
X157125500Y-41196158D01*
X157125500Y-41196155D01*
X157125499Y-41196153D01*
X157094738Y-41041510D01*
X157094737Y-41041503D01*
X157078978Y-41003457D01*
X157034397Y-40895827D01*
X157034390Y-40895814D01*
X156946789Y-40764711D01*
X156946786Y-40764707D01*
X156835292Y-40653213D01*
X156835288Y-40653210D01*
X156704185Y-40565609D01*
X156704172Y-40565602D01*
X156558501Y-40505264D01*
X156558489Y-40505261D01*
X156403845Y-40474500D01*
X156403842Y-40474500D01*
X156246158Y-40474500D01*
X156246155Y-40474500D01*
X156091510Y-40505261D01*
X156091498Y-40505264D01*
X155945827Y-40565602D01*
X155945814Y-40565609D01*
X155814127Y-40653601D01*
X155753874Y-40672467D01*
X155754002Y-40673438D01*
X155748432Y-40674171D01*
X155747450Y-40674479D01*
X155745996Y-40674492D01*
X155745945Y-40674498D01*
X155593214Y-40715423D01*
X155593209Y-40715426D01*
X155456290Y-40794475D01*
X155456282Y-40794481D01*
X154949217Y-41301546D01*
X154949214Y-41301548D01*
X154949215Y-41301549D01*
X154844478Y-41406286D01*
X154844475Y-41406290D01*
X154800049Y-41483240D01*
X154800049Y-41483241D01*
X154765423Y-41543215D01*
X154724499Y-41695943D01*
X154724499Y-41695945D01*
X154724499Y-41864046D01*
X154724500Y-41864059D01*
X154724500Y-49974903D01*
X154704815Y-50041942D01*
X154688181Y-50062584D01*
X150310339Y-54440425D01*
X150249016Y-54473910D01*
X150246850Y-54474361D01*
X150091508Y-54505261D01*
X150091498Y-54505264D01*
X149945827Y-54565602D01*
X149945814Y-54565609D01*
X149814711Y-54653210D01*
X149814707Y-54653213D01*
X149703213Y-54764707D01*
X149703210Y-54764711D01*
X149615609Y-54895814D01*
X149615602Y-54895827D01*
X149555264Y-55041498D01*
X149555261Y-55041510D01*
X149524500Y-55196153D01*
X149524500Y-55353846D01*
X149555261Y-55508489D01*
X149555264Y-55508501D01*
X149615602Y-55654172D01*
X149615609Y-55654185D01*
X149703210Y-55785288D01*
X149703213Y-55785292D01*
X149814707Y-55896786D01*
X149814711Y-55896789D01*
X149945814Y-55984390D01*
X149945827Y-55984397D01*
X150041673Y-56024097D01*
X150091503Y-56044737D01*
X150187007Y-56063734D01*
X150246153Y-56075499D01*
X150246156Y-56075500D01*
X150246158Y-56075500D01*
X150403844Y-56075500D01*
X150403845Y-56075499D01*
X150558497Y-56044737D01*
X150704179Y-55984394D01*
X150835289Y-55896789D01*
X150946789Y-55785289D01*
X151034394Y-55654179D01*
X151040278Y-55639975D01*
X151068768Y-55571191D01*
X151094737Y-55508497D01*
X151114113Y-55411085D01*
X151125638Y-55353150D01*
X151158023Y-55291239D01*
X151159519Y-55289715D01*
X155693713Y-50755521D01*
X155693716Y-50755520D01*
X155790456Y-50658779D01*
X155851775Y-50625297D01*
X155851777Y-50625297D01*
X155861745Y-50626010D01*
X155921467Y-50630281D01*
X155921468Y-50630281D01*
X155921469Y-50630282D01*
X155958616Y-50658090D01*
X155977401Y-50672152D01*
X155981236Y-50677572D01*
X156053210Y-50785288D01*
X156053213Y-50785292D01*
X156164706Y-50896785D01*
X156164709Y-50896787D01*
X156164711Y-50896789D01*
X156169386Y-50899913D01*
X156214193Y-50953521D01*
X156224500Y-51003017D01*
X156224500Y-55375855D01*
X156204815Y-55442894D01*
X156152011Y-55488649D01*
X156147954Y-55490416D01*
X156065347Y-55524633D01*
X156065341Y-55524636D01*
X155934238Y-55612237D01*
X155934234Y-55612240D01*
X155822740Y-55723734D01*
X155822737Y-55723738D01*
X155735136Y-55854841D01*
X155735129Y-55854854D01*
X155674791Y-56000525D01*
X155674788Y-56000537D01*
X155644027Y-56155180D01*
X155644027Y-56312873D01*
X155674788Y-56467516D01*
X155674791Y-56467528D01*
X155735129Y-56613199D01*
X155735136Y-56613212D01*
X155823129Y-56744901D01*
X155844007Y-56811578D01*
X155844027Y-56813792D01*
X155844027Y-57307857D01*
X155844026Y-57307875D01*
X155844026Y-57473581D01*
X155844025Y-57473581D01*
X155844026Y-57473584D01*
X155884950Y-57626312D01*
X155884951Y-57626314D01*
X155884950Y-57626314D01*
X155904163Y-57659590D01*
X155904165Y-57659592D01*
X155904166Y-57659594D01*
X155931470Y-57706886D01*
X155964006Y-57763242D01*
X156082876Y-57882112D01*
X156082882Y-57882117D01*
X156529289Y-58328524D01*
X156562774Y-58389847D01*
X156563226Y-58440392D01*
X156562085Y-58446127D01*
X156562085Y-58603820D01*
X156592846Y-58758463D01*
X156592849Y-58758475D01*
X156653187Y-58904146D01*
X156653194Y-58904159D01*
X156740795Y-59035262D01*
X156740798Y-59035266D01*
X156852292Y-59146760D01*
X156852296Y-59146763D01*
X156983399Y-59234364D01*
X156983412Y-59234371D01*
X157129083Y-59294709D01*
X157129088Y-59294711D01*
X157283738Y-59325473D01*
X157283741Y-59325474D01*
X157283743Y-59325474D01*
X157441429Y-59325474D01*
X157441430Y-59325473D01*
X157596082Y-59294711D01*
X157741764Y-59234368D01*
X157872874Y-59146763D01*
X157922492Y-59097144D01*
X157927513Y-59094402D01*
X157930695Y-59089645D01*
X157957840Y-59077841D01*
X157983814Y-59063659D01*
X157990892Y-59063470D01*
X157994770Y-59061785D01*
X158020089Y-59062694D01*
X158030058Y-59062430D01*
X158032216Y-59062780D01*
X158096158Y-59075500D01*
X158110506Y-59075500D01*
X158120385Y-59077105D01*
X158143234Y-59088048D01*
X158167539Y-59095185D01*
X158174209Y-59102883D01*
X158183400Y-59107285D01*
X158196706Y-59128846D01*
X158213294Y-59147989D01*
X158215892Y-59159933D01*
X158220095Y-59166743D01*
X158219884Y-59178282D01*
X158224500Y-59199500D01*
X158224500Y-69350500D01*
X158204815Y-69417539D01*
X158152011Y-69463294D01*
X158100500Y-69474500D01*
X158096155Y-69474500D01*
X157941510Y-69505261D01*
X157941498Y-69505264D01*
X157795827Y-69565602D01*
X157795816Y-69565608D01*
X157682025Y-69641641D01*
X157615348Y-69662518D01*
X157547968Y-69644033D01*
X157525454Y-69626219D01*
X153812590Y-65913355D01*
X153812588Y-65913352D01*
X153693717Y-65794481D01*
X153693716Y-65794480D01*
X153606904Y-65744360D01*
X153606904Y-65744359D01*
X153606900Y-65744358D01*
X153556785Y-65715423D01*
X153404057Y-65674499D01*
X153245943Y-65674499D01*
X153238347Y-65674499D01*
X153238331Y-65674500D01*
X150625098Y-65674500D01*
X150595657Y-65665855D01*
X150565671Y-65659332D01*
X150560655Y-65655577D01*
X150558059Y-65654815D01*
X150537417Y-65638181D01*
X150461819Y-65562583D01*
X150428334Y-65501260D01*
X150425500Y-65474902D01*
X150425500Y-64075097D01*
X150445185Y-64008058D01*
X150461819Y-63987416D01*
X150631759Y-63817476D01*
X150839665Y-63609570D01*
X150900984Y-63576088D01*
X150903151Y-63575637D01*
X150903840Y-63575500D01*
X150903842Y-63575500D01*
X151058497Y-63544737D01*
X151204179Y-63484394D01*
X151335289Y-63396789D01*
X151446789Y-63285289D01*
X151534394Y-63154179D01*
X151594737Y-63008497D01*
X151625500Y-62853842D01*
X151625500Y-62696158D01*
X151625500Y-62696155D01*
X151625499Y-62696153D01*
X151612122Y-62628902D01*
X151594737Y-62541503D01*
X151559635Y-62456758D01*
X151534397Y-62395827D01*
X151534390Y-62395814D01*
X151446398Y-62264125D01*
X151425520Y-62197447D01*
X151425500Y-62195234D01*
X151425500Y-60695945D01*
X151425500Y-60695943D01*
X151384577Y-60543216D01*
X151364528Y-60508489D01*
X151305524Y-60406290D01*
X151305521Y-60406286D01*
X151305520Y-60406284D01*
X151193716Y-60294480D01*
X151193715Y-60294479D01*
X151189385Y-60290149D01*
X151189374Y-60290139D01*
X145461819Y-54562584D01*
X145428334Y-54501261D01*
X145425500Y-54474903D01*
X145425500Y-45195942D01*
X145425108Y-45194480D01*
X145425103Y-45194462D01*
X145403925Y-45115425D01*
X145400156Y-45101359D01*
X145384577Y-45043216D01*
X145345481Y-44975499D01*
X145305524Y-44906290D01*
X145305521Y-44906286D01*
X145305520Y-44906284D01*
X145193716Y-44794480D01*
X145193715Y-44794479D01*
X145189385Y-44790149D01*
X145189374Y-44790139D01*
X144159574Y-43760339D01*
X144126089Y-43699016D01*
X144125638Y-43696849D01*
X144094738Y-43541510D01*
X144094737Y-43541503D01*
X144094735Y-43541498D01*
X144034397Y-43395827D01*
X144034390Y-43395814D01*
X143946789Y-43264711D01*
X143946786Y-43264707D01*
X143835292Y-43153213D01*
X143835288Y-43153210D01*
X143704185Y-43065609D01*
X143704172Y-43065602D01*
X143558501Y-43005264D01*
X143558489Y-43005261D01*
X143403845Y-42974500D01*
X143403842Y-42974500D01*
X143246158Y-42974500D01*
X143246155Y-42974500D01*
X143091510Y-43005261D01*
X143091498Y-43005264D01*
X142945827Y-43065602D01*
X142945814Y-43065609D01*
X142814711Y-43153210D01*
X142814707Y-43153213D01*
X142771259Y-43196662D01*
X142709936Y-43230147D01*
X142640244Y-43225163D01*
X142595897Y-43196662D01*
X142312590Y-42913355D01*
X142312588Y-42913352D01*
X142193717Y-42794481D01*
X142193716Y-42794480D01*
X142106904Y-42744360D01*
X142106904Y-42744359D01*
X142106900Y-42744358D01*
X142056785Y-42715423D01*
X141904057Y-42674499D01*
X141745943Y-42674499D01*
X141738347Y-42674499D01*
X141738331Y-42674500D01*
X140911669Y-42674500D01*
X140911653Y-42674499D01*
X140904057Y-42674499D01*
X140745943Y-42674499D01*
X140638587Y-42703265D01*
X140593210Y-42715424D01*
X140593209Y-42715425D01*
X140543096Y-42744359D01*
X140543095Y-42744360D01*
X140499689Y-42769420D01*
X140456285Y-42794479D01*
X140456282Y-42794481D01*
X137394481Y-45856282D01*
X137394479Y-45856285D01*
X137344361Y-45943094D01*
X137344359Y-45943096D01*
X137315425Y-45993209D01*
X137315424Y-45993210D01*
X137301617Y-46044738D01*
X137274499Y-46145943D01*
X137274499Y-46145945D01*
X137274499Y-46314046D01*
X137274500Y-46314059D01*
X137274500Y-67771560D01*
X137266187Y-67799869D01*
X137260486Y-67828823D01*
X137256453Y-67833017D01*
X137254815Y-67838599D01*
X137232519Y-67857918D01*
X137212067Y-67879196D01*
X137206406Y-67880545D01*
X137202011Y-67884354D01*
X137172807Y-67888553D01*
X137144101Y-67895395D01*
X137138610Y-67893470D01*
X137132853Y-67894298D01*
X137106011Y-67882039D01*
X137078167Y-67872277D01*
X137073054Y-67866989D01*
X137069297Y-67865273D01*
X137052722Y-67847819D01*
X137049916Y-67844221D01*
X136996789Y-67764711D01*
X136956420Y-67724342D01*
X136951722Y-67718318D01*
X136941564Y-67692645D01*
X136928334Y-67668417D01*
X136926974Y-67655774D01*
X136926015Y-67653349D01*
X136926467Y-67651053D01*
X136925500Y-67642059D01*
X136925500Y-66695945D01*
X136925499Y-66695941D01*
X136895842Y-66585254D01*
X136895842Y-66585253D01*
X136884577Y-66543216D01*
X136884577Y-66543215D01*
X136879456Y-66534346D01*
X136844904Y-66474500D01*
X136805520Y-66406284D01*
X136693716Y-66294480D01*
X136689385Y-66290149D01*
X136689374Y-66290139D01*
X135277960Y-64878725D01*
X135244475Y-64817402D01*
X135249459Y-64747710D01*
X135291331Y-64691777D01*
X135309341Y-64680562D01*
X135479881Y-64593668D01*
X135638995Y-64478065D01*
X135778065Y-64338995D01*
X135893668Y-64179881D01*
X135982957Y-64004642D01*
X136043733Y-63817592D01*
X136074500Y-63623338D01*
X136074500Y-63426662D01*
X136043733Y-63232408D01*
X136043732Y-63232404D01*
X136043732Y-63232403D01*
X135982958Y-63045360D01*
X135893667Y-62870118D01*
X135881845Y-62853846D01*
X135778065Y-62711005D01*
X135638995Y-62571935D01*
X135479881Y-62456332D01*
X135361122Y-62395821D01*
X135304639Y-62367041D01*
X135117595Y-62306267D01*
X134971901Y-62283191D01*
X134923338Y-62275500D01*
X134726662Y-62275500D01*
X134661910Y-62285755D01*
X134532406Y-62306267D01*
X134532403Y-62306267D01*
X134345360Y-62367041D01*
X134170118Y-62456332D01*
X134011002Y-62571937D01*
X133871937Y-62711002D01*
X133756332Y-62870118D01*
X133667041Y-63045360D01*
X133606267Y-63232403D01*
X133606267Y-63232406D01*
X133594787Y-63304888D01*
X133575500Y-63426662D01*
X133575500Y-63623338D01*
X133581060Y-63658442D01*
X133606267Y-63817593D01*
X133606267Y-63817596D01*
X133667041Y-64004639D01*
X133726134Y-64120615D01*
X133739030Y-64189284D01*
X133712754Y-64254025D01*
X133703340Y-64264581D01*
X133703216Y-64264704D01*
X133703208Y-64264714D01*
X133615609Y-64395814D01*
X133615602Y-64395827D01*
X133555264Y-64541498D01*
X133555261Y-64541510D01*
X133524500Y-64696153D01*
X133524500Y-64853846D01*
X133555261Y-65008489D01*
X133555264Y-65008501D01*
X133615602Y-65154172D01*
X133615609Y-65154185D01*
X133703210Y-65285288D01*
X133703213Y-65285292D01*
X133814707Y-65396786D01*
X133814711Y-65396789D01*
X133945814Y-65484390D01*
X133945827Y-65484397D01*
X134091498Y-65544735D01*
X134091503Y-65544737D01*
X134156147Y-65557595D01*
X134246849Y-65575638D01*
X134308760Y-65608023D01*
X134310339Y-65609574D01*
X135688181Y-66987416D01*
X135721666Y-67048739D01*
X135724500Y-67075097D01*
X135724500Y-67770064D01*
X135704815Y-67837103D01*
X135703603Y-67838954D01*
X135665608Y-67895817D01*
X135665602Y-67895828D01*
X135605264Y-68041498D01*
X135605261Y-68041510D01*
X135574500Y-68196153D01*
X135574500Y-68353846D01*
X135605261Y-68508489D01*
X135605264Y-68508501D01*
X135665602Y-68654172D01*
X135665609Y-68654185D01*
X135753210Y-68785288D01*
X135753213Y-68785292D01*
X135864707Y-68896786D01*
X135864711Y-68896789D01*
X135995814Y-68984390D01*
X135995827Y-68984397D01*
X136141498Y-69044735D01*
X136141503Y-69044737D01*
X136296153Y-69075499D01*
X136296156Y-69075500D01*
X136296158Y-69075500D01*
X136453844Y-69075500D01*
X136453845Y-69075499D01*
X136608497Y-69044737D01*
X136754179Y-68984394D01*
X136885289Y-68896789D01*
X136996789Y-68785289D01*
X137047398Y-68709548D01*
X137101010Y-68664743D01*
X137170335Y-68656036D01*
X137233363Y-68686190D01*
X137270082Y-68745634D01*
X137274500Y-68778439D01*
X137274500Y-82257868D01*
X137265847Y-82287333D01*
X137259300Y-82317355D01*
X137255571Y-82322329D01*
X137254815Y-82324907D01*
X137238133Y-82345597D01*
X137237222Y-82346507D01*
X137175881Y-82379959D01*
X137106192Y-82374936D01*
X137102137Y-82373339D01*
X137058498Y-82355263D01*
X137058488Y-82355260D01*
X136903845Y-82324500D01*
X136903842Y-82324500D01*
X136746158Y-82324500D01*
X136746155Y-82324500D01*
X136591510Y-82355261D01*
X136591498Y-82355264D01*
X136445827Y-82415602D01*
X136445814Y-82415609D01*
X136314711Y-82503210D01*
X136314707Y-82503213D01*
X136203213Y-82614707D01*
X136203210Y-82614711D01*
X136115609Y-82745814D01*
X136115602Y-82745827D01*
X136055264Y-82891498D01*
X136055261Y-82891510D01*
X136024500Y-83046153D01*
X136024500Y-83892059D01*
X136004815Y-83959098D01*
X135988181Y-83979740D01*
X134871391Y-85096529D01*
X134810068Y-85130014D01*
X134740376Y-85125030D01*
X134684443Y-85083158D01*
X134680608Y-85077739D01*
X134621789Y-84989711D01*
X134621786Y-84989707D01*
X134510292Y-84878213D01*
X134510288Y-84878210D01*
X134379185Y-84790609D01*
X134379172Y-84790602D01*
X134233501Y-84730264D01*
X134233489Y-84730261D01*
X134078845Y-84699500D01*
X134078842Y-84699500D01*
X133921158Y-84699500D01*
X133921155Y-84699500D01*
X133766510Y-84730261D01*
X133766498Y-84730264D01*
X133620827Y-84790602D01*
X133620814Y-84790609D01*
X133489711Y-84878210D01*
X133489707Y-84878213D01*
X133378213Y-84989707D01*
X133378210Y-84989711D01*
X133290609Y-85120814D01*
X133290602Y-85120827D01*
X133230264Y-85266498D01*
X133230261Y-85266510D01*
X133199500Y-85421153D01*
X133199500Y-85578846D01*
X133230261Y-85733489D01*
X133230264Y-85733501D01*
X133290602Y-85879172D01*
X133290609Y-85879185D01*
X133378210Y-86010288D01*
X133378213Y-86010292D01*
X133489707Y-86121786D01*
X133489711Y-86121789D01*
X133577739Y-86180608D01*
X133622544Y-86234220D01*
X133631251Y-86303545D01*
X133601096Y-86366573D01*
X133596529Y-86371391D01*
X133371391Y-86596529D01*
X133310068Y-86630014D01*
X133240376Y-86625030D01*
X133184443Y-86583158D01*
X133180608Y-86577739D01*
X133121789Y-86489711D01*
X133121786Y-86489707D01*
X133010292Y-86378213D01*
X133010288Y-86378210D01*
X132879185Y-86290609D01*
X132879172Y-86290602D01*
X132733501Y-86230264D01*
X132733489Y-86230261D01*
X132578845Y-86199500D01*
X132578842Y-86199500D01*
X132421158Y-86199500D01*
X132421155Y-86199500D01*
X132266510Y-86230261D01*
X132266498Y-86230264D01*
X132120827Y-86290602D01*
X132120814Y-86290609D01*
X131989711Y-86378210D01*
X131989707Y-86378213D01*
X131878213Y-86489707D01*
X131878210Y-86489711D01*
X131790609Y-86620814D01*
X131790602Y-86620827D01*
X131730264Y-86766498D01*
X131730261Y-86766510D01*
X131699500Y-86921153D01*
X131699500Y-87078846D01*
X131730261Y-87233489D01*
X131730264Y-87233501D01*
X131790602Y-87379172D01*
X131790609Y-87379185D01*
X131878210Y-87510288D01*
X131878213Y-87510292D01*
X131989707Y-87621786D01*
X131989711Y-87621789D01*
X132077739Y-87680608D01*
X132122544Y-87734220D01*
X132131251Y-87803545D01*
X132101096Y-87866573D01*
X132096530Y-87871391D01*
X131814711Y-88153211D01*
X131758960Y-88208962D01*
X131703209Y-88264712D01*
X131615609Y-88395814D01*
X131615602Y-88395827D01*
X131555264Y-88541498D01*
X131555261Y-88541510D01*
X131524500Y-88696153D01*
X131524500Y-96278060D01*
X131504815Y-96345099D01*
X131452011Y-96390854D01*
X131382853Y-96400798D01*
X131319297Y-96371773D01*
X131312819Y-96365741D01*
X130836819Y-95889741D01*
X130803334Y-95828418D01*
X130800500Y-95802060D01*
X130800500Y-79961155D01*
X130800499Y-79961153D01*
X130784193Y-79879179D01*
X130769737Y-79806503D01*
X130769735Y-79806498D01*
X130709397Y-79660827D01*
X130709390Y-79660814D01*
X130621790Y-79529712D01*
X130567354Y-79475276D01*
X130510289Y-79418211D01*
X130013231Y-78921153D01*
X134699500Y-78921153D01*
X134699500Y-79078846D01*
X134730261Y-79233489D01*
X134730264Y-79233501D01*
X134790602Y-79379172D01*
X134790609Y-79379185D01*
X134878210Y-79510288D01*
X134878213Y-79510292D01*
X134989707Y-79621786D01*
X134989711Y-79621789D01*
X135120814Y-79709390D01*
X135120827Y-79709397D01*
X135196432Y-79740713D01*
X135266503Y-79769737D01*
X135371418Y-79790606D01*
X135421153Y-79800499D01*
X135421156Y-79800500D01*
X135421158Y-79800500D01*
X135578844Y-79800500D01*
X135578845Y-79800499D01*
X135733497Y-79769737D01*
X135879179Y-79709394D01*
X136010289Y-79621789D01*
X136121789Y-79510289D01*
X136209394Y-79379179D01*
X136269737Y-79233497D01*
X136300500Y-79078842D01*
X136300500Y-78921158D01*
X136300500Y-78921155D01*
X136300499Y-78921153D01*
X136295135Y-78894187D01*
X136269737Y-78766503D01*
X136262650Y-78749394D01*
X136209397Y-78620827D01*
X136209390Y-78620814D01*
X136121789Y-78489711D01*
X136121786Y-78489707D01*
X136010292Y-78378213D01*
X136010288Y-78378210D01*
X135879185Y-78290609D01*
X135879172Y-78290602D01*
X135733501Y-78230264D01*
X135733489Y-78230261D01*
X135578845Y-78199500D01*
X135578842Y-78199500D01*
X135421158Y-78199500D01*
X135421155Y-78199500D01*
X135266510Y-78230261D01*
X135266498Y-78230264D01*
X135120827Y-78290602D01*
X135120814Y-78290609D01*
X134989711Y-78378210D01*
X134989707Y-78378213D01*
X134878213Y-78489707D01*
X134878210Y-78489711D01*
X134790609Y-78620814D01*
X134790602Y-78620827D01*
X134730264Y-78766498D01*
X134730261Y-78766510D01*
X134699500Y-78921153D01*
X130013231Y-78921153D01*
X129598351Y-78506273D01*
X129564866Y-78444950D01*
X129563559Y-78399194D01*
X129566883Y-78378211D01*
X129600500Y-78165962D01*
X129600500Y-77914038D01*
X129561090Y-77665215D01*
X129483241Y-77425621D01*
X129483239Y-77425618D01*
X129483239Y-77425616D01*
X129368869Y-77201154D01*
X129351000Y-77176559D01*
X129301233Y-77108060D01*
X129277754Y-77042257D01*
X129293579Y-76974203D01*
X129313871Y-76947495D01*
X129318650Y-76942715D01*
X129318656Y-76942712D01*
X129442712Y-76818656D01*
X129534814Y-76669335D01*
X129589999Y-76502798D01*
X129600500Y-76400010D01*
X129600500Y-75421153D01*
X134699500Y-75421153D01*
X134699500Y-75578846D01*
X134730261Y-75733489D01*
X134730264Y-75733501D01*
X134790602Y-75879172D01*
X134790609Y-75879185D01*
X134878210Y-76010288D01*
X134878213Y-76010292D01*
X134989707Y-76121786D01*
X134989711Y-76121789D01*
X135120814Y-76209390D01*
X135120827Y-76209397D01*
X135200215Y-76242280D01*
X135266503Y-76269737D01*
X135421153Y-76300499D01*
X135421156Y-76300500D01*
X135421158Y-76300500D01*
X135578844Y-76300500D01*
X135578845Y-76300499D01*
X135733497Y-76269737D01*
X135879179Y-76209394D01*
X136010289Y-76121789D01*
X136121789Y-76010289D01*
X136209394Y-75879179D01*
X136210918Y-75875501D01*
X136245043Y-75793113D01*
X136269737Y-75733497D01*
X136300500Y-75578842D01*
X136300500Y-75421158D01*
X136300500Y-75421155D01*
X136300499Y-75421153D01*
X136291127Y-75374038D01*
X136269737Y-75266503D01*
X136247906Y-75213798D01*
X136209397Y-75120827D01*
X136209390Y-75120814D01*
X136121789Y-74989711D01*
X136121786Y-74989707D01*
X136010292Y-74878213D01*
X136010288Y-74878210D01*
X135879185Y-74790609D01*
X135879172Y-74790602D01*
X135733501Y-74730264D01*
X135733489Y-74730261D01*
X135578845Y-74699500D01*
X135578842Y-74699500D01*
X135421158Y-74699500D01*
X135421155Y-74699500D01*
X135266510Y-74730261D01*
X135266498Y-74730264D01*
X135120827Y-74790602D01*
X135120814Y-74790609D01*
X134989711Y-74878210D01*
X134989707Y-74878213D01*
X134878213Y-74989707D01*
X134878210Y-74989711D01*
X134790609Y-75120814D01*
X134790602Y-75120827D01*
X134730264Y-75266498D01*
X134730261Y-75266510D01*
X134699500Y-75421153D01*
X129600500Y-75421153D01*
X129600500Y-74599990D01*
X129589999Y-74497202D01*
X129534814Y-74330665D01*
X129442712Y-74181344D01*
X129318656Y-74057288D01*
X129169335Y-73965186D01*
X129002798Y-73910001D01*
X129002796Y-73910000D01*
X128900017Y-73899500D01*
X128900010Y-73899500D01*
X127099990Y-73899500D01*
X127099982Y-73899500D01*
X126997203Y-73910000D01*
X126997202Y-73910001D01*
X126914669Y-73937349D01*
X126830667Y-73965185D01*
X126830662Y-73965187D01*
X126681342Y-74057289D01*
X126557289Y-74181342D01*
X126465187Y-74330662D01*
X126465186Y-74330665D01*
X126410001Y-74497202D01*
X126410001Y-74497203D01*
X126410000Y-74497203D01*
X126399500Y-74599982D01*
X126399500Y-75056424D01*
X126379815Y-75123463D01*
X126327011Y-75169218D01*
X126257853Y-75179162D01*
X126194297Y-75150137D01*
X126172398Y-75125315D01*
X126081789Y-74989711D01*
X126081786Y-74989707D01*
X125970292Y-74878213D01*
X125970288Y-74878210D01*
X125839185Y-74790609D01*
X125839172Y-74790602D01*
X125693501Y-74730264D01*
X125693489Y-74730261D01*
X125538845Y-74699500D01*
X125538842Y-74699500D01*
X125381158Y-74699500D01*
X125381155Y-74699500D01*
X125226510Y-74730261D01*
X125226498Y-74730264D01*
X125080827Y-74790602D01*
X125080814Y-74790609D01*
X124949711Y-74878210D01*
X124949707Y-74878213D01*
X124838213Y-74989707D01*
X124838210Y-74989711D01*
X124750609Y-75120814D01*
X124750602Y-75120827D01*
X124690264Y-75266498D01*
X124690261Y-75266510D01*
X124659500Y-75421153D01*
X124659500Y-75578846D01*
X124690261Y-75733489D01*
X124690264Y-75733501D01*
X124750602Y-75879172D01*
X124750609Y-75879185D01*
X124822775Y-75987188D01*
X124829069Y-76007290D01*
X124839821Y-76025410D01*
X124839301Y-76039967D01*
X124843653Y-76053865D01*
X124838079Y-76074181D01*
X124837328Y-76095236D01*
X124829022Y-76107198D01*
X124825169Y-76121246D01*
X124809494Y-76135325D01*
X124797481Y-76152629D01*
X124776121Y-76165302D01*
X124773190Y-76167936D01*
X124767128Y-76170639D01*
X124727786Y-76186936D01*
X124727784Y-76186937D01*
X124624774Y-76229604D01*
X124624766Y-76229609D01*
X124518672Y-76300500D01*
X124518671Y-76300500D01*
X124493665Y-76317208D01*
X124493657Y-76317214D01*
X124212181Y-76598691D01*
X124150858Y-76632176D01*
X124081166Y-76627192D01*
X124025233Y-76585320D01*
X124000816Y-76519856D01*
X124000500Y-76511010D01*
X124000500Y-67421153D01*
X128699500Y-67421153D01*
X128699500Y-67578846D01*
X128730261Y-67733489D01*
X128730264Y-67733501D01*
X128790602Y-67879172D01*
X128790609Y-67879185D01*
X128878210Y-68010288D01*
X128878213Y-68010292D01*
X128989707Y-68121786D01*
X128989711Y-68121789D01*
X129120814Y-68209390D01*
X129120827Y-68209397D01*
X129266498Y-68269735D01*
X129266503Y-68269737D01*
X129421153Y-68300499D01*
X129421156Y-68300500D01*
X129421158Y-68300500D01*
X129578844Y-68300500D01*
X129578845Y-68300499D01*
X129733497Y-68269737D01*
X129879179Y-68209394D01*
X130010289Y-68121789D01*
X130121789Y-68010289D01*
X130209394Y-67879179D01*
X130210918Y-67875501D01*
X130253971Y-67771560D01*
X130269737Y-67733497D01*
X130300500Y-67578842D01*
X130300500Y-67421158D01*
X130300500Y-67421155D01*
X130300499Y-67421153D01*
X130273474Y-67285292D01*
X130269737Y-67266503D01*
X130223214Y-67154185D01*
X130209397Y-67120827D01*
X130209390Y-67120814D01*
X130121789Y-66989711D01*
X130121786Y-66989707D01*
X130010292Y-66878213D01*
X130010288Y-66878210D01*
X129879185Y-66790609D01*
X129879172Y-66790602D01*
X129733501Y-66730264D01*
X129733489Y-66730261D01*
X129578845Y-66699500D01*
X129578842Y-66699500D01*
X129421158Y-66699500D01*
X129421155Y-66699500D01*
X129266510Y-66730261D01*
X129266498Y-66730264D01*
X129120827Y-66790602D01*
X129120814Y-66790609D01*
X128989711Y-66878210D01*
X128989707Y-66878213D01*
X128878213Y-66989707D01*
X128878210Y-66989711D01*
X128790609Y-67120814D01*
X128790602Y-67120827D01*
X128730264Y-67266498D01*
X128730261Y-67266510D01*
X128699500Y-67421153D01*
X124000500Y-67421153D01*
X124000500Y-56926662D01*
X133575500Y-56926662D01*
X133575500Y-57123338D01*
X133582955Y-57170405D01*
X133606267Y-57317593D01*
X133606267Y-57317596D01*
X133667041Y-57504639D01*
X133712404Y-57593668D01*
X133756332Y-57679881D01*
X133871935Y-57838995D01*
X134011005Y-57978065D01*
X134170119Y-58093668D01*
X134243760Y-58131190D01*
X134345360Y-58182958D01*
X134532404Y-58243732D01*
X134532405Y-58243732D01*
X134532408Y-58243733D01*
X134726662Y-58274500D01*
X134726663Y-58274500D01*
X134923337Y-58274500D01*
X134923338Y-58274500D01*
X135117592Y-58243733D01*
X135117595Y-58243732D01*
X135117596Y-58243732D01*
X135304639Y-58182958D01*
X135304639Y-58182957D01*
X135304642Y-58182957D01*
X135479881Y-58093668D01*
X135638995Y-57978065D01*
X135778065Y-57838995D01*
X135893668Y-57679881D01*
X135982957Y-57504642D01*
X136014432Y-57407773D01*
X136043732Y-57317596D01*
X136043732Y-57317595D01*
X136043733Y-57317592D01*
X136074500Y-57123338D01*
X136074500Y-56926662D01*
X136043733Y-56732408D01*
X136043732Y-56732404D01*
X136043732Y-56732403D01*
X135982958Y-56545360D01*
X135975132Y-56530000D01*
X135893668Y-56370119D01*
X135778065Y-56211005D01*
X135638995Y-56071935D01*
X135479881Y-55956332D01*
X135433328Y-55932612D01*
X135304639Y-55867041D01*
X135117595Y-55806267D01*
X134971901Y-55783191D01*
X134923338Y-55775500D01*
X134726662Y-55775500D01*
X134664863Y-55785288D01*
X134532406Y-55806267D01*
X134532403Y-55806267D01*
X134345360Y-55867041D01*
X134170118Y-55956332D01*
X134011002Y-56071937D01*
X133871937Y-56211002D01*
X133756332Y-56370118D01*
X133667041Y-56545360D01*
X133606267Y-56732403D01*
X133606267Y-56732406D01*
X133584462Y-56870077D01*
X133575500Y-56926662D01*
X124000500Y-56926662D01*
X124000500Y-41346154D01*
X124020185Y-41279115D01*
X124072989Y-41233360D01*
X124142147Y-41223416D01*
X124205703Y-41252441D01*
X124212181Y-41258473D01*
X124310295Y-41356587D01*
X124310302Y-41356593D01*
X124375069Y-41406290D01*
X124497550Y-41500273D01*
X124628918Y-41576118D01*
X124701943Y-41618280D01*
X124701948Y-41618282D01*
X124701951Y-41618284D01*
X124920007Y-41708606D01*
X125147986Y-41769693D01*
X125381989Y-41800500D01*
X125381996Y-41800500D01*
X125618004Y-41800500D01*
X125618011Y-41800500D01*
X125852014Y-41769693D01*
X126079993Y-41708606D01*
X126298049Y-41618284D01*
X126502450Y-41500273D01*
X126689699Y-41356592D01*
X126856592Y-41189699D01*
X127000273Y-41002450D01*
X127118284Y-40798049D01*
X127208606Y-40579993D01*
X127269693Y-40352014D01*
X127300500Y-40118011D01*
X127300500Y-39881989D01*
X127269693Y-39647986D01*
X127208606Y-39420007D01*
X127118284Y-39201951D01*
X127118282Y-39201948D01*
X127118280Y-39201943D01*
X127076118Y-39128918D01*
X127000273Y-38997550D01*
X126856592Y-38810301D01*
X126856587Y-38810295D01*
X126758473Y-38712181D01*
X126724988Y-38650858D01*
X126729972Y-38581166D01*
X126771844Y-38525233D01*
X126837308Y-38500816D01*
X126846154Y-38500500D01*
X136141000Y-38500500D01*
X136208039Y-38520185D01*
G37*
%TD.AperFunction*%
%TA.AperFunction,Conductor*%
G36*
X141005484Y-48395185D02*
G01*
X141051239Y-48447989D01*
X141061183Y-48517147D01*
X141056159Y-48535411D01*
X141057031Y-48535676D01*
X141055261Y-48541510D01*
X141024500Y-48696153D01*
X141024500Y-48853846D01*
X141055261Y-49008489D01*
X141055264Y-49008501D01*
X141115602Y-49154172D01*
X141115609Y-49154185D01*
X141203210Y-49285288D01*
X141203213Y-49285292D01*
X141314707Y-49396786D01*
X141314711Y-49396789D01*
X141445814Y-49484390D01*
X141445827Y-49484397D01*
X141587814Y-49543209D01*
X141591503Y-49544737D01*
X141656147Y-49557595D01*
X141746849Y-49575638D01*
X141808760Y-49608023D01*
X141810339Y-49609574D01*
X142188181Y-49987416D01*
X142221666Y-50048739D01*
X142224500Y-50075097D01*
X142224500Y-81377044D01*
X142204815Y-81444083D01*
X142152011Y-81489838D01*
X142124691Y-81498661D01*
X142091510Y-81505261D01*
X142091498Y-81505264D01*
X141945827Y-81565602D01*
X141945814Y-81565609D01*
X141814125Y-81653602D01*
X141796078Y-81659252D01*
X141780169Y-81669477D01*
X141749207Y-81673928D01*
X141747447Y-81674480D01*
X141745234Y-81674500D01*
X141625098Y-81674500D01*
X141558059Y-81654815D01*
X141537417Y-81638181D01*
X141159573Y-81260337D01*
X141126088Y-81199014D01*
X141125637Y-81196847D01*
X141125500Y-81196158D01*
X141094737Y-81041503D01*
X141073283Y-80989707D01*
X141034397Y-80895827D01*
X141034390Y-80895814D01*
X140946789Y-80764711D01*
X140946786Y-80764707D01*
X140835292Y-80653213D01*
X140835288Y-80653210D01*
X140704185Y-80565609D01*
X140704172Y-80565602D01*
X140558501Y-80505264D01*
X140558489Y-80505261D01*
X140403845Y-80474500D01*
X140403842Y-80474500D01*
X140249500Y-80474500D01*
X140182461Y-80454815D01*
X140136706Y-80402011D01*
X140125500Y-80350500D01*
X140125500Y-79696155D01*
X140125499Y-79696153D01*
X140118471Y-79660821D01*
X140094737Y-79541503D01*
X140081808Y-79510289D01*
X140034397Y-79395827D01*
X140034390Y-79395814D01*
X139946789Y-79264711D01*
X139946786Y-79264707D01*
X139835292Y-79153213D01*
X139835288Y-79153210D01*
X139704185Y-79065609D01*
X139704172Y-79065602D01*
X139558501Y-79005264D01*
X139558489Y-79005261D01*
X139403845Y-78974500D01*
X139403842Y-78974500D01*
X139246158Y-78974500D01*
X139246155Y-78974500D01*
X139091510Y-79005261D01*
X139091498Y-79005264D01*
X139046952Y-79023716D01*
X138977483Y-79031185D01*
X138915004Y-78999909D01*
X138879352Y-78939820D01*
X138875500Y-78909155D01*
X138875500Y-64862840D01*
X138895185Y-64795801D01*
X138947989Y-64750046D01*
X139017147Y-64740102D01*
X139028443Y-64742265D01*
X139032528Y-64743245D01*
X139226703Y-64774000D01*
X139423297Y-64774000D01*
X139617476Y-64743244D01*
X139804447Y-64682495D01*
X139804449Y-64682494D01*
X139979619Y-64593239D01*
X140014408Y-64567962D01*
X140014409Y-64567962D01*
X139450327Y-64003880D01*
X139516063Y-63986266D01*
X139628937Y-63921098D01*
X139721098Y-63828937D01*
X139786266Y-63716063D01*
X139803880Y-63650327D01*
X140367961Y-64214409D01*
X140367962Y-64214408D01*
X140393239Y-64179619D01*
X140482494Y-64004449D01*
X140482495Y-64004447D01*
X140543244Y-63817476D01*
X140574000Y-63623297D01*
X140574000Y-63426702D01*
X140543244Y-63232523D01*
X140482495Y-63045552D01*
X140482494Y-63045550D01*
X140393237Y-62870377D01*
X140367963Y-62835590D01*
X140367962Y-62835589D01*
X139803879Y-63399671D01*
X139786266Y-63333937D01*
X139721098Y-63221063D01*
X139628937Y-63128902D01*
X139516063Y-63063734D01*
X139450324Y-63046119D01*
X140014408Y-62482036D01*
X139979614Y-62456758D01*
X139804449Y-62367505D01*
X139804447Y-62367504D01*
X139617476Y-62306755D01*
X139423297Y-62276000D01*
X139226703Y-62276000D01*
X139032520Y-62306755D01*
X139028430Y-62307737D01*
X138958649Y-62304237D01*
X138901837Y-62263565D01*
X138876032Y-62198635D01*
X138875500Y-62187159D01*
X138875500Y-58398000D01*
X138895185Y-58330961D01*
X138947989Y-58285206D01*
X138999500Y-58274000D01*
X139075000Y-58274000D01*
X139075000Y-57452238D01*
X139133937Y-57486266D01*
X139259832Y-57520000D01*
X139390168Y-57520000D01*
X139516063Y-57486266D01*
X139575000Y-57452238D01*
X139575000Y-58274000D01*
X140121828Y-58274000D01*
X140121844Y-58273999D01*
X140181372Y-58267598D01*
X140181379Y-58267596D01*
X140316086Y-58217354D01*
X140316093Y-58217350D01*
X140431187Y-58131190D01*
X140431190Y-58131187D01*
X140517350Y-58016093D01*
X140517354Y-58016086D01*
X140567596Y-57881379D01*
X140567598Y-57881372D01*
X140573999Y-57821844D01*
X140574000Y-57821827D01*
X140574000Y-57275000D01*
X139752239Y-57275000D01*
X139786266Y-57216063D01*
X139820000Y-57090168D01*
X139820000Y-56959832D01*
X139786266Y-56833937D01*
X139752239Y-56775000D01*
X140574000Y-56775000D01*
X140574000Y-56228172D01*
X140573999Y-56228155D01*
X140567598Y-56168627D01*
X140567596Y-56168620D01*
X140517354Y-56033913D01*
X140517350Y-56033906D01*
X140431190Y-55918812D01*
X140431187Y-55918809D01*
X140316093Y-55832649D01*
X140316086Y-55832645D01*
X140181379Y-55782403D01*
X140181372Y-55782401D01*
X140121844Y-55776000D01*
X139575000Y-55776000D01*
X139575000Y-56597761D01*
X139516063Y-56563734D01*
X139390168Y-56530000D01*
X139259832Y-56530000D01*
X139133937Y-56563734D01*
X139075000Y-56597761D01*
X139075000Y-55811453D01*
X138957076Y-55768517D01*
X138945843Y-55760244D01*
X138932461Y-55756315D01*
X138918269Y-55739937D01*
X138900817Y-55727084D01*
X138895839Y-55714052D01*
X138886706Y-55703511D01*
X138879945Y-55672434D01*
X138875889Y-55661813D01*
X138876745Y-55657723D01*
X138875500Y-55652000D01*
X138875500Y-48640844D01*
X138895185Y-48573805D01*
X138947989Y-48528050D01*
X139017147Y-48518106D01*
X139046944Y-48526280D01*
X139091503Y-48544737D01*
X139237637Y-48573805D01*
X139246153Y-48575499D01*
X139246156Y-48575500D01*
X139246158Y-48575500D01*
X139403844Y-48575500D01*
X139403845Y-48575499D01*
X139558497Y-48544737D01*
X139704179Y-48484394D01*
X139758663Y-48447989D01*
X139835875Y-48396398D01*
X139902553Y-48375520D01*
X139904766Y-48375500D01*
X140938445Y-48375500D01*
X141005484Y-48395185D01*
G37*
%TD.AperFunction*%
%TA.AperFunction,Conductor*%
G36*
X160825000Y-64274000D02*
G01*
X161201208Y-64274000D01*
X161268247Y-64293685D01*
X161314002Y-64346489D01*
X161325208Y-64398000D01*
X161325208Y-71097410D01*
X161305523Y-71164449D01*
X161252719Y-71210204D01*
X161183561Y-71220148D01*
X161177017Y-71219027D01*
X161078846Y-71199500D01*
X161078842Y-71199500D01*
X160921158Y-71199500D01*
X160921155Y-71199500D01*
X160766510Y-71230261D01*
X160766498Y-71230264D01*
X160620827Y-71290602D01*
X160620814Y-71290609D01*
X160489711Y-71378210D01*
X160489707Y-71378213D01*
X160378213Y-71489707D01*
X160378208Y-71489713D01*
X160352601Y-71528037D01*
X160298989Y-71572841D01*
X160229664Y-71581548D01*
X160166636Y-71551393D01*
X160129918Y-71491949D01*
X160125500Y-71459145D01*
X160125500Y-64398000D01*
X160145185Y-64330961D01*
X160197989Y-64285206D01*
X160249500Y-64274000D01*
X160325000Y-64274000D01*
X160325000Y-63452238D01*
X160383937Y-63486266D01*
X160509832Y-63520000D01*
X160640168Y-63520000D01*
X160766063Y-63486266D01*
X160825000Y-63452238D01*
X160825000Y-64274000D01*
G37*
%TD.AperFunction*%
%TA.AperFunction,Conductor*%
G36*
X161278322Y-57649780D02*
G01*
X161318580Y-57706886D01*
X161325208Y-57746885D01*
X161325208Y-61652000D01*
X161305523Y-61719039D01*
X161252719Y-61764794D01*
X161201208Y-61776000D01*
X160825000Y-61776000D01*
X160825000Y-62597761D01*
X160766063Y-62563734D01*
X160640168Y-62530000D01*
X160509832Y-62530000D01*
X160383937Y-62563734D01*
X160325000Y-62597761D01*
X160325000Y-61776000D01*
X160249500Y-61776000D01*
X160182461Y-61756315D01*
X160136706Y-61703511D01*
X160125500Y-61652000D01*
X160125500Y-58940784D01*
X160145185Y-58873745D01*
X160161820Y-58853102D01*
X160205517Y-58809405D01*
X160205517Y-58809404D01*
X160205520Y-58809402D01*
X160284577Y-58672470D01*
X160325501Y-58519743D01*
X160325501Y-58361628D01*
X160325501Y-58354033D01*
X160325500Y-58354015D01*
X160325500Y-58198374D01*
X160325501Y-58198361D01*
X160325501Y-58030259D01*
X160325501Y-58030257D01*
X160296511Y-57922067D01*
X160298174Y-57852221D01*
X160337336Y-57794358D01*
X160401564Y-57766853D01*
X160435685Y-57767503D01*
X160476704Y-57774000D01*
X160673297Y-57774000D01*
X160867476Y-57743244D01*
X161054447Y-57682495D01*
X161054454Y-57682492D01*
X161144912Y-57636401D01*
X161213581Y-57623504D01*
X161278322Y-57649780D01*
G37*
%TD.AperFunction*%
%TA.AperFunction,Conductor*%
G36*
X142022649Y-44909641D02*
G01*
X142058301Y-44969730D01*
X142056813Y-45036392D01*
X142055262Y-45041503D01*
X142024500Y-45196153D01*
X142024500Y-45353846D01*
X142055261Y-45508489D01*
X142055264Y-45508501D01*
X142115602Y-45654172D01*
X142115609Y-45654185D01*
X142203210Y-45785288D01*
X142203213Y-45785292D01*
X142314707Y-45896786D01*
X142314711Y-45896789D01*
X142445814Y-45984390D01*
X142445827Y-45984397D01*
X142591498Y-46044735D01*
X142591503Y-46044737D01*
X142746153Y-46075499D01*
X142746156Y-46075500D01*
X142746158Y-46075500D01*
X142903844Y-46075500D01*
X142903845Y-46075499D01*
X143058497Y-46044737D01*
X143204179Y-45984394D01*
X143335289Y-45896789D01*
X143446789Y-45785289D01*
X143534394Y-45654179D01*
X143594737Y-45508497D01*
X143625500Y-45353842D01*
X143625500Y-45224097D01*
X143645185Y-45157058D01*
X143697989Y-45111303D01*
X143767147Y-45101359D01*
X143830703Y-45130384D01*
X143837181Y-45136416D01*
X144188181Y-45487416D01*
X144221666Y-45548739D01*
X144224500Y-45575097D01*
X144224500Y-50093059D01*
X144204815Y-50160098D01*
X144152011Y-50205853D01*
X144082853Y-50215797D01*
X144019297Y-50186772D01*
X144012819Y-50180740D01*
X143985292Y-50153213D01*
X143985288Y-50153210D01*
X143854185Y-50065609D01*
X143854172Y-50065602D01*
X143708501Y-50005264D01*
X143708489Y-50005261D01*
X143553845Y-49974500D01*
X143553842Y-49974500D01*
X143549501Y-49974500D01*
X143482462Y-49954815D01*
X143436707Y-49902011D01*
X143425501Y-49850500D01*
X143425501Y-49695944D01*
X143414051Y-49653213D01*
X143384577Y-49543216D01*
X143350618Y-49484397D01*
X143305524Y-49406290D01*
X143305518Y-49406282D01*
X142659573Y-48760337D01*
X142626088Y-48699014D01*
X142625637Y-48696847D01*
X142594738Y-48541510D01*
X142594737Y-48541503D01*
X142585046Y-48518106D01*
X142534397Y-48395827D01*
X142534390Y-48395814D01*
X142446789Y-48264711D01*
X142446786Y-48264707D01*
X142335292Y-48153213D01*
X142335288Y-48153210D01*
X142204185Y-48065609D01*
X142204172Y-48065602D01*
X142148969Y-48042737D01*
X142094565Y-47998896D01*
X142072500Y-47932602D01*
X142089779Y-47864903D01*
X142108740Y-47840495D01*
X142305520Y-47643716D01*
X142384577Y-47506784D01*
X142425501Y-47354057D01*
X142425501Y-47195942D01*
X142384577Y-47043215D01*
X142305520Y-46906284D01*
X142262579Y-46863343D01*
X142235699Y-46823114D01*
X142224396Y-46795827D01*
X142224394Y-46795821D01*
X142224392Y-46795819D01*
X142224392Y-46795817D01*
X142136789Y-46664711D01*
X142136786Y-46664707D01*
X142025292Y-46553213D01*
X142025288Y-46553210D01*
X141894185Y-46465609D01*
X141894172Y-46465602D01*
X141748501Y-46405264D01*
X141748489Y-46405261D01*
X141593845Y-46374500D01*
X141593842Y-46374500D01*
X141436158Y-46374500D01*
X141436155Y-46374500D01*
X141281510Y-46405261D01*
X141281498Y-46405264D01*
X141135827Y-46465602D01*
X141135814Y-46465609D01*
X141004711Y-46553210D01*
X141004707Y-46553213D01*
X140893213Y-46664707D01*
X140893210Y-46664711D01*
X140805609Y-46795814D01*
X140805602Y-46795827D01*
X140745264Y-46941498D01*
X140745261Y-46941508D01*
X140718769Y-47074692D01*
X140686384Y-47136603D01*
X140625668Y-47171177D01*
X140597152Y-47174500D01*
X139904766Y-47174500D01*
X139837727Y-47154815D01*
X139835875Y-47153602D01*
X139704185Y-47065609D01*
X139704172Y-47065602D01*
X139558501Y-47005264D01*
X139558492Y-47005261D01*
X139515342Y-46996678D01*
X139453431Y-46964292D01*
X139418858Y-46903576D01*
X139422599Y-46833806D01*
X139451852Y-46787382D01*
X141245476Y-44993757D01*
X141306797Y-44960274D01*
X141357344Y-44959823D01*
X141418820Y-44972051D01*
X141436157Y-44975500D01*
X141436158Y-44975500D01*
X141593844Y-44975500D01*
X141593845Y-44975499D01*
X141748497Y-44944737D01*
X141841327Y-44906286D01*
X141890701Y-44885835D01*
X141960170Y-44878366D01*
X142022649Y-44909641D01*
G37*
%TD.AperFunction*%
%TD*%
M02*
