%TF.GenerationSoftware,KiCad,Pcbnew,9.0.1*%
%TF.CreationDate,2025-07-20T14:02:16+01:00*%
%TF.ProjectId,pcb_suiveur,7063625f-7375-4697-9665-75722e6b6963,rev?*%
%TF.SameCoordinates,Original*%
%TF.FileFunction,Paste,Top*%
%TF.FilePolarity,Positive*%
%FSLAX46Y46*%
G04 Gerber Fmt 4.6, Leading zero omitted, Abs format (unit mm)*
G04 Created by KiCad (PCBNEW 9.0.1) date 2025-07-20 14:02:16*
%MOMM*%
%LPD*%
G01*
G04 APERTURE LIST*
G04 Aperture macros list*
%AMRoundRect*
0 Rectangle with rounded corners*
0 $1 Rounding radius*
0 $2 $3 $4 $5 $6 $7 $8 $9 X,Y pos of 4 corners*
0 Add a 4 corners polygon primitive as box body*
4,1,4,$2,$3,$4,$5,$6,$7,$8,$9,$2,$3,0*
0 Add four circle primitives for the rounded corners*
1,1,$1+$1,$2,$3*
1,1,$1+$1,$4,$5*
1,1,$1+$1,$6,$7*
1,1,$1+$1,$8,$9*
0 Add four rect primitives between the rounded corners*
20,1,$1+$1,$2,$3,$4,$5,0*
20,1,$1+$1,$4,$5,$6,$7,0*
20,1,$1+$1,$6,$7,$8,$9,0*
20,1,$1+$1,$8,$9,$2,$3,0*%
G04 Aperture macros list end*
%ADD10C,0.010000*%
%ADD11RoundRect,0.250000X0.900000X-1.000000X0.900000X1.000000X-0.900000X1.000000X-0.900000X-1.000000X0*%
%ADD12RoundRect,0.250000X0.450000X-0.262500X0.450000X0.262500X-0.450000X0.262500X-0.450000X-0.262500X0*%
%ADD13RoundRect,0.250000X-0.550000X1.075000X-0.550000X-1.075000X0.550000X-1.075000X0.550000X1.075000X0*%
%ADD14RoundRect,0.250000X-0.250000X-0.475000X0.250000X-0.475000X0.250000X0.475000X-0.250000X0.475000X0*%
%ADD15RoundRect,0.250000X0.250000X0.475000X-0.250000X0.475000X-0.250000X-0.475000X0.250000X-0.475000X0*%
%ADD16RoundRect,0.250000X0.650000X-1.000000X0.650000X1.000000X-0.650000X1.000000X-0.650000X-1.000000X0*%
%ADD17RoundRect,0.150000X0.150000X-0.825000X0.150000X0.825000X-0.150000X0.825000X-0.150000X-0.825000X0*%
%ADD18RoundRect,0.250000X0.262500X0.450000X-0.262500X0.450000X-0.262500X-0.450000X0.262500X-0.450000X0*%
%ADD19R,0.300000X1.150000*%
%ADD20R,0.600000X1.150000*%
%ADD21RoundRect,0.200000X-0.200000X-1.150000X0.200000X-1.150000X0.200000X1.150000X-0.200000X1.150000X0*%
%ADD22RoundRect,0.150000X-0.587500X-0.150000X0.587500X-0.150000X0.587500X0.150000X-0.587500X0.150000X0*%
%ADD23RoundRect,0.250000X0.400000X0.450000X-0.400000X0.450000X-0.400000X-0.450000X0.400000X-0.450000X0*%
%ADD24RoundRect,0.250000X-0.450000X0.262500X-0.450000X-0.262500X0.450000X-0.262500X0.450000X0.262500X0*%
%ADD25RoundRect,0.250000X-0.350000X0.850000X-0.350000X-0.850000X0.350000X-0.850000X0.350000X0.850000X0*%
%ADD26RoundRect,0.250000X-1.125000X1.275000X-1.125000X-1.275000X1.125000X-1.275000X1.125000X1.275000X0*%
%ADD27RoundRect,0.250000X-0.262500X-0.450000X0.262500X-0.450000X0.262500X0.450000X-0.262500X0.450000X0*%
%ADD28RoundRect,0.147500X0.172500X-0.147500X0.172500X0.147500X-0.172500X0.147500X-0.172500X-0.147500X0*%
%ADD29RoundRect,0.250000X0.550000X-1.075000X0.550000X1.075000X-0.550000X1.075000X-0.550000X-1.075000X0*%
%ADD30RoundRect,0.243750X0.456250X-0.243750X0.456250X0.243750X-0.456250X0.243750X-0.456250X-0.243750X0*%
%ADD31RoundRect,0.250000X-2.050000X-0.300000X2.050000X-0.300000X2.050000X0.300000X-2.050000X0.300000X0*%
%ADD32RoundRect,0.250000X-2.025000X-2.375000X2.025000X-2.375000X2.025000X2.375000X-2.025000X2.375000X0*%
%ADD33RoundRect,0.250000X-0.450000X-0.250000X0.450000X-0.250000X0.450000X0.250000X-0.450000X0.250000X0*%
%ADD34RoundRect,0.250000X-0.475000X0.250000X-0.475000X-0.250000X0.475000X-0.250000X0.475000X0.250000X0*%
%ADD35R,2.000000X0.700000*%
%ADD36RoundRect,0.150000X0.587500X0.150000X-0.587500X0.150000X-0.587500X-0.150000X0.587500X-0.150000X0*%
%ADD37R,0.650000X1.800000*%
%ADD38RoundRect,0.150000X-0.150000X0.512500X-0.150000X-0.512500X0.150000X-0.512500X0.150000X0.512500X0*%
%ADD39R,0.700000X0.700000*%
%ADD40R,1.500000X0.900000*%
G04 APERTURE END LIST*
D10*
%TO.C,U2*%
X151225000Y-101776060D02*
X147424330Y-101776060D01*
X147424330Y-95775000D01*
X151225000Y-95775000D01*
X151225000Y-101776060D01*
G36*
X151225000Y-101776060D02*
G01*
X147424330Y-101776060D01*
X147424330Y-95775000D01*
X151225000Y-95775000D01*
X151225000Y-101776060D01*
G37*
%TD*%
D11*
%TO.C,D4*%
X136375000Y-100260000D03*
X136375000Y-104560000D03*
%TD*%
D12*
%TO.C,R15*%
X166750000Y-128587500D03*
X166750000Y-130412500D03*
%TD*%
D13*
%TO.C,C4*%
X137250000Y-126675000D03*
X137250000Y-123325000D03*
%TD*%
D12*
%TO.C,R8*%
X157325000Y-62362500D03*
X157325000Y-64187500D03*
%TD*%
D14*
%TO.C,C6*%
X138275000Y-68275000D03*
X136375000Y-68275000D03*
%TD*%
D15*
%TO.C,C22*%
X155575000Y-108910000D03*
X157475000Y-108910000D03*
%TD*%
D16*
%TO.C,D12*%
X132250000Y-128500000D03*
X132250000Y-132500000D03*
%TD*%
D17*
%TO.C,U4*%
X143285000Y-69275000D03*
X144555000Y-69275000D03*
X145825000Y-69275000D03*
X147095000Y-69275000D03*
X148365000Y-69275000D03*
X149635000Y-69275000D03*
X150905000Y-69275000D03*
X152175000Y-69275000D03*
X152175000Y-74225000D03*
X150905000Y-74225000D03*
X149635000Y-74225000D03*
X148365000Y-74225000D03*
X147095000Y-74225000D03*
X145825000Y-74225000D03*
X144555000Y-74225000D03*
X143285000Y-74225000D03*
%TD*%
D18*
%TO.C,R11*%
X162112500Y-107410000D03*
X163937500Y-107410000D03*
%TD*%
D19*
%TO.C,P1*%
X148075000Y-141537500D03*
D20*
X151225000Y-141537500D03*
X146425000Y-141537500D03*
D19*
X150075000Y-141537500D03*
X147075000Y-141537500D03*
X149075000Y-141537500D03*
X149575000Y-141537500D03*
X148575000Y-141537500D03*
X150575000Y-141537500D03*
X147575000Y-141537500D03*
D20*
X152025000Y-141537500D03*
X145625000Y-141537500D03*
%TD*%
D21*
%TO.C,L1*%
X138400000Y-131500000D03*
X136100000Y-131500000D03*
%TD*%
D12*
%TO.C,R13*%
X150635000Y-82725000D03*
X150635000Y-84550000D03*
%TD*%
D15*
%TO.C,C21*%
X134575000Y-110410000D03*
X136475000Y-110410000D03*
%TD*%
D22*
%TO.C,Q2*%
X143825000Y-64775000D03*
X141950000Y-65725000D03*
X141950000Y-63825000D03*
%TD*%
D23*
%TO.C,D15*%
X136000000Y-115500000D03*
X138900000Y-115500000D03*
%TD*%
D14*
%TO.C,C18*%
X141325000Y-79775000D03*
X139425000Y-79775000D03*
%TD*%
D11*
%TO.C,D1*%
X136375000Y-92260000D03*
X136375000Y-96560000D03*
%TD*%
D24*
%TO.C,R21*%
X132500000Y-120912500D03*
X132500000Y-119087500D03*
%TD*%
D11*
%TO.C,D3*%
X130375000Y-100260000D03*
X130375000Y-104560000D03*
%TD*%
D15*
%TO.C,C7*%
X155875000Y-72775000D03*
X157775000Y-72775000D03*
%TD*%
D25*
%TO.C,Q6*%
X143745000Y-112025000D03*
X148305000Y-112025000D03*
D26*
X144500000Y-120000000D03*
X147550000Y-120000000D03*
X144500000Y-116650000D03*
X147550000Y-116650000D03*
%TD*%
D15*
%TO.C,C23*%
X138075000Y-89410000D03*
X139975000Y-89410000D03*
%TD*%
D24*
%TO.C,R22*%
X132500000Y-117325000D03*
X132500000Y-115500000D03*
%TD*%
D27*
%TO.C,R9*%
X148737500Y-64275000D03*
X146912500Y-64275000D03*
%TD*%
D28*
%TO.C,FB1*%
X145635000Y-84240000D03*
X145635000Y-85210000D03*
%TD*%
D15*
%TO.C,C20*%
X151875000Y-109275000D03*
X153775000Y-109275000D03*
%TD*%
D29*
%TO.C,C1*%
X161250000Y-122500000D03*
X161250000Y-125850000D03*
%TD*%
D30*
%TO.C,D9*%
X166750000Y-124625000D03*
X166750000Y-126500000D03*
%TD*%
D31*
%TO.C,U6*%
X143600000Y-130900000D03*
X143600000Y-129200000D03*
X143600000Y-127500000D03*
X143600000Y-125800000D03*
X143600000Y-124100000D03*
D32*
X155175000Y-130275000D03*
X155175000Y-124725000D03*
X150325000Y-130275000D03*
X150325000Y-124725000D03*
%TD*%
D33*
%TO.C,Q3*%
X133100000Y-124500000D03*
X130900000Y-125450000D03*
X130900000Y-123550000D03*
%TD*%
D11*
%TO.C,D8*%
X162025000Y-92410000D03*
X162025000Y-96710000D03*
%TD*%
D14*
%TO.C,C8*%
X162250000Y-130000000D03*
X160350000Y-130000000D03*
%TD*%
D18*
%TO.C,R10*%
X158500000Y-66775000D03*
X160325000Y-66775000D03*
%TD*%
D14*
%TO.C,C17*%
X145275000Y-79775000D03*
X143375000Y-79775000D03*
%TD*%
D34*
%TO.C,C15*%
X138515000Y-43625000D03*
X138515000Y-41725000D03*
%TD*%
D35*
%TO.C,U2*%
X156025000Y-93060000D03*
X156025000Y-94330000D03*
X156025000Y-95600000D03*
X156025000Y-96870000D03*
X156025000Y-98140000D03*
X156025000Y-99410000D03*
X156025000Y-100680000D03*
X156025000Y-101950000D03*
X156025000Y-103220000D03*
X156025000Y-104490000D03*
X142625000Y-104490000D03*
X142625000Y-103220000D03*
X142625000Y-101950000D03*
X142625000Y-100680000D03*
X142625000Y-99410000D03*
X142625000Y-98140000D03*
X142625000Y-96870000D03*
X142625000Y-95600000D03*
X142625000Y-94330000D03*
X142625000Y-93060000D03*
%TD*%
D11*
%TO.C,D7*%
X162025000Y-100410000D03*
X162025000Y-104710000D03*
%TD*%
%TO.C,D5*%
X168025000Y-100410000D03*
X168025000Y-104710000D03*
%TD*%
D34*
%TO.C,C16*%
X136015000Y-43625000D03*
X136015000Y-41725000D03*
%TD*%
D36*
%TO.C,Q1*%
X151450000Y-63725000D03*
X153325000Y-62775000D03*
X153325000Y-64675000D03*
%TD*%
D37*
%TO.C,J1*%
X154715000Y-59625000D03*
X153445000Y-56925000D03*
X152175000Y-59625000D03*
X150905000Y-56925000D03*
X149635000Y-59625000D03*
X148365000Y-56925000D03*
X147095000Y-59625000D03*
X145825000Y-56925000D03*
%TD*%
D11*
%TO.C,D2*%
X130375000Y-92260000D03*
X130375000Y-96560000D03*
%TD*%
D34*
%TO.C,C2*%
X139635000Y-72675000D03*
X139635000Y-70775000D03*
%TD*%
D23*
%TO.C,D14*%
X136000000Y-118850000D03*
X138900000Y-118850000D03*
%TD*%
D27*
%TO.C,R14*%
X136525000Y-107910000D03*
X134700000Y-107910000D03*
%TD*%
D38*
%TO.C,U3*%
X150085000Y-80362500D03*
X149135000Y-80362500D03*
X148185000Y-80362500D03*
X148185000Y-78087500D03*
X149135000Y-78087500D03*
X150085000Y-78087500D03*
%TD*%
D11*
%TO.C,D6*%
X168025000Y-92410000D03*
X168025000Y-96710000D03*
%TD*%
D34*
%TO.C,C3*%
X139635000Y-76675000D03*
X139635000Y-74775000D03*
%TD*%
D14*
%TO.C,C19*%
X137775000Y-46275000D03*
X135875000Y-46275000D03*
%TD*%
D12*
%TO.C,R12*%
X147685000Y-82725000D03*
X147685000Y-84550000D03*
%TD*%
D39*
%TO.C,U1*%
X150125000Y-46275000D03*
X150125000Y-47375000D03*
X150125000Y-48475000D03*
X151225000Y-46275000D03*
X151225000Y-47375000D03*
X151225000Y-48475000D03*
X152325000Y-46275000D03*
X152325000Y-47375000D03*
X152325000Y-48475000D03*
D40*
X141515000Y-41175000D03*
X141515000Y-42675000D03*
X141515000Y-44175000D03*
X141515000Y-45675000D03*
X141515000Y-47175000D03*
X141515000Y-48675000D03*
X141515000Y-50175000D03*
X141515000Y-51675000D03*
X141515000Y-53175000D03*
X159015000Y-53175000D03*
X159015000Y-51675000D03*
X159015000Y-50175000D03*
X159015000Y-48675000D03*
X159015000Y-47175000D03*
X159015000Y-45675000D03*
X159015000Y-44175000D03*
X159015000Y-42675000D03*
X159015000Y-41175000D03*
%TD*%
M02*
