%TF.GenerationSoftware,KiCad,Pcbnew,9.0.1*%
%TF.CreationDate,2025-07-20T14:02:16+01:00*%
%TF.ProjectId,pcb_suiveur,7063625f-7375-4697-9665-75722e6b6963,rev?*%
%TF.SameCoordinates,Original*%
%TF.FileFunction,Legend,Top*%
%TF.FilePolarity,Positive*%
%FSLAX46Y46*%
G04 Gerber Fmt 4.6, Leading zero omitted, Abs format (unit mm)*
G04 Created by KiCad (PCBNEW 9.0.1) date 2025-07-20 14:02:16*
%MOMM*%
%LPD*%
G01*
G04 APERTURE LIST*
%ADD10C,0.100000*%
%ADD11C,0.087500*%
%ADD12C,0.150000*%
%ADD13C,0.120000*%
%ADD14C,0.200000*%
%ADD15C,0.127000*%
%ADD16C,0.400000*%
%ADD17C,0.254000*%
G04 APERTURE END LIST*
D10*
X132848609Y-61362782D02*
X132896228Y-61219925D01*
X132896228Y-61219925D02*
X132943847Y-61172306D01*
X132943847Y-61172306D02*
X133039085Y-61124687D01*
X133039085Y-61124687D02*
X133181942Y-61124687D01*
X133181942Y-61124687D02*
X133277180Y-61172306D01*
X133277180Y-61172306D02*
X133324800Y-61219925D01*
X133324800Y-61219925D02*
X133372419Y-61315163D01*
X133372419Y-61315163D02*
X133372419Y-61696115D01*
X133372419Y-61696115D02*
X132372419Y-61696115D01*
X132372419Y-61696115D02*
X132372419Y-61362782D01*
X132372419Y-61362782D02*
X132420038Y-61267544D01*
X132420038Y-61267544D02*
X132467657Y-61219925D01*
X132467657Y-61219925D02*
X132562895Y-61172306D01*
X132562895Y-61172306D02*
X132658133Y-61172306D01*
X132658133Y-61172306D02*
X132753371Y-61219925D01*
X132753371Y-61219925D02*
X132800990Y-61267544D01*
X132800990Y-61267544D02*
X132848609Y-61362782D01*
X132848609Y-61362782D02*
X132848609Y-61696115D01*
X133372419Y-60553258D02*
X133324800Y-60648496D01*
X133324800Y-60648496D02*
X133277180Y-60696115D01*
X133277180Y-60696115D02*
X133181942Y-60743734D01*
X133181942Y-60743734D02*
X132896228Y-60743734D01*
X132896228Y-60743734D02*
X132800990Y-60696115D01*
X132800990Y-60696115D02*
X132753371Y-60648496D01*
X132753371Y-60648496D02*
X132705752Y-60553258D01*
X132705752Y-60553258D02*
X132705752Y-60410401D01*
X132705752Y-60410401D02*
X132753371Y-60315163D01*
X132753371Y-60315163D02*
X132800990Y-60267544D01*
X132800990Y-60267544D02*
X132896228Y-60219925D01*
X132896228Y-60219925D02*
X133181942Y-60219925D01*
X133181942Y-60219925D02*
X133277180Y-60267544D01*
X133277180Y-60267544D02*
X133324800Y-60315163D01*
X133324800Y-60315163D02*
X133372419Y-60410401D01*
X133372419Y-60410401D02*
X133372419Y-60553258D01*
X133372419Y-59648496D02*
X133324800Y-59743734D01*
X133324800Y-59743734D02*
X133277180Y-59791353D01*
X133277180Y-59791353D02*
X133181942Y-59838972D01*
X133181942Y-59838972D02*
X132896228Y-59838972D01*
X132896228Y-59838972D02*
X132800990Y-59791353D01*
X132800990Y-59791353D02*
X132753371Y-59743734D01*
X132753371Y-59743734D02*
X132705752Y-59648496D01*
X132705752Y-59648496D02*
X132705752Y-59505639D01*
X132705752Y-59505639D02*
X132753371Y-59410401D01*
X132753371Y-59410401D02*
X132800990Y-59362782D01*
X132800990Y-59362782D02*
X132896228Y-59315163D01*
X132896228Y-59315163D02*
X133181942Y-59315163D01*
X133181942Y-59315163D02*
X133277180Y-59362782D01*
X133277180Y-59362782D02*
X133324800Y-59410401D01*
X133324800Y-59410401D02*
X133372419Y-59505639D01*
X133372419Y-59505639D02*
X133372419Y-59648496D01*
X132705752Y-59029448D02*
X132705752Y-58648496D01*
X132372419Y-58886591D02*
X133229561Y-58886591D01*
X133229561Y-58886591D02*
X133324800Y-58838972D01*
X133324800Y-58838972D02*
X133372419Y-58743734D01*
X133372419Y-58743734D02*
X133372419Y-58648496D01*
D11*
X151709783Y-56866244D02*
X151709783Y-56409101D01*
X152409783Y-56637673D02*
X151709783Y-56637673D01*
X151709783Y-56218625D02*
X152409783Y-55685291D01*
X151709783Y-55685291D02*
X152409783Y-56218625D01*
X153909783Y-60794815D02*
X153576450Y-61061482D01*
X153909783Y-61251958D02*
X153209783Y-61251958D01*
X153209783Y-61251958D02*
X153209783Y-60947196D01*
X153209783Y-60947196D02*
X153243116Y-60871006D01*
X153243116Y-60871006D02*
X153276450Y-60832911D01*
X153276450Y-60832911D02*
X153343116Y-60794815D01*
X153343116Y-60794815D02*
X153443116Y-60794815D01*
X153443116Y-60794815D02*
X153509783Y-60832911D01*
X153509783Y-60832911D02*
X153543116Y-60871006D01*
X153543116Y-60871006D02*
X153576450Y-60947196D01*
X153576450Y-60947196D02*
X153576450Y-61251958D01*
X153209783Y-60528149D02*
X153909783Y-59994815D01*
X153209783Y-59994815D02*
X153909783Y-60528149D01*
X154243116Y-56332911D02*
X154209783Y-56409101D01*
X154209783Y-56409101D02*
X154209783Y-56523387D01*
X154209783Y-56523387D02*
X154243116Y-56637673D01*
X154243116Y-56637673D02*
X154309783Y-56713863D01*
X154309783Y-56713863D02*
X154376450Y-56751958D01*
X154376450Y-56751958D02*
X154509783Y-56790054D01*
X154509783Y-56790054D02*
X154609783Y-56790054D01*
X154609783Y-56790054D02*
X154743116Y-56751958D01*
X154743116Y-56751958D02*
X154809783Y-56713863D01*
X154809783Y-56713863D02*
X154876450Y-56637673D01*
X154876450Y-56637673D02*
X154909783Y-56523387D01*
X154909783Y-56523387D02*
X154909783Y-56447196D01*
X154909783Y-56447196D02*
X154876450Y-56332911D01*
X154876450Y-56332911D02*
X154843116Y-56294815D01*
X154843116Y-56294815D02*
X154609783Y-56294815D01*
X154609783Y-56294815D02*
X154609783Y-56447196D01*
X154909783Y-55951958D02*
X154209783Y-55951958D01*
X154209783Y-55951958D02*
X154909783Y-55494815D01*
X154909783Y-55494815D02*
X154209783Y-55494815D01*
X154909783Y-55113863D02*
X154209783Y-55113863D01*
X154209783Y-55113863D02*
X154209783Y-54923387D01*
X154209783Y-54923387D02*
X154243116Y-54809101D01*
X154243116Y-54809101D02*
X154309783Y-54732911D01*
X154309783Y-54732911D02*
X154376450Y-54694816D01*
X154376450Y-54694816D02*
X154509783Y-54656720D01*
X154509783Y-54656720D02*
X154609783Y-54656720D01*
X154609783Y-54656720D02*
X154743116Y-54694816D01*
X154743116Y-54694816D02*
X154809783Y-54732911D01*
X154809783Y-54732911D02*
X154876450Y-54809101D01*
X154876450Y-54809101D02*
X154909783Y-54923387D01*
X154909783Y-54923387D02*
X154909783Y-55113863D01*
X149544783Y-56751958D02*
X148844783Y-56751958D01*
X148844783Y-56218625D02*
X148844783Y-56066244D01*
X148844783Y-56066244D02*
X148878116Y-55990054D01*
X148878116Y-55990054D02*
X148944783Y-55913863D01*
X148944783Y-55913863D02*
X149078116Y-55875768D01*
X149078116Y-55875768D02*
X149311450Y-55875768D01*
X149311450Y-55875768D02*
X149444783Y-55913863D01*
X149444783Y-55913863D02*
X149511450Y-55990054D01*
X149511450Y-55990054D02*
X149544783Y-56066244D01*
X149544783Y-56066244D02*
X149544783Y-56218625D01*
X149544783Y-56218625D02*
X149511450Y-56294816D01*
X149511450Y-56294816D02*
X149444783Y-56371006D01*
X149444783Y-56371006D02*
X149311450Y-56409102D01*
X149311450Y-56409102D02*
X149078116Y-56409102D01*
X149078116Y-56409102D02*
X148944783Y-56371006D01*
X148944783Y-56371006D02*
X148878116Y-56294816D01*
X148878116Y-56294816D02*
X148844783Y-56218625D01*
X149144783Y-55418626D02*
X149111450Y-55494816D01*
X149111450Y-55494816D02*
X149078116Y-55532911D01*
X149078116Y-55532911D02*
X149011450Y-55571007D01*
X149011450Y-55571007D02*
X148978116Y-55571007D01*
X148978116Y-55571007D02*
X148911450Y-55532911D01*
X148911450Y-55532911D02*
X148878116Y-55494816D01*
X148878116Y-55494816D02*
X148844783Y-55418626D01*
X148844783Y-55418626D02*
X148844783Y-55266245D01*
X148844783Y-55266245D02*
X148878116Y-55190054D01*
X148878116Y-55190054D02*
X148911450Y-55151959D01*
X148911450Y-55151959D02*
X148978116Y-55113864D01*
X148978116Y-55113864D02*
X149011450Y-55113864D01*
X149011450Y-55113864D02*
X149078116Y-55151959D01*
X149078116Y-55151959D02*
X149111450Y-55190054D01*
X149111450Y-55190054D02*
X149144783Y-55266245D01*
X149144783Y-55266245D02*
X149144783Y-55418626D01*
X149144783Y-55418626D02*
X149178116Y-55494816D01*
X149178116Y-55494816D02*
X149211450Y-55532911D01*
X149211450Y-55532911D02*
X149278116Y-55571007D01*
X149278116Y-55571007D02*
X149411450Y-55571007D01*
X149411450Y-55571007D02*
X149478116Y-55532911D01*
X149478116Y-55532911D02*
X149511450Y-55494816D01*
X149511450Y-55494816D02*
X149544783Y-55418626D01*
X149544783Y-55418626D02*
X149544783Y-55266245D01*
X149544783Y-55266245D02*
X149511450Y-55190054D01*
X149511450Y-55190054D02*
X149478116Y-55151959D01*
X149478116Y-55151959D02*
X149411450Y-55113864D01*
X149411450Y-55113864D02*
X149278116Y-55113864D01*
X149278116Y-55113864D02*
X149211450Y-55151959D01*
X149211450Y-55151959D02*
X149178116Y-55190054D01*
X149178116Y-55190054D02*
X149144783Y-55266245D01*
D10*
X160303884Y-116491466D02*
X161065789Y-116491466D01*
X161399122Y-115872419D02*
X161732455Y-116872419D01*
X161732455Y-116872419D02*
X162065788Y-115872419D01*
X162399122Y-116872419D02*
X162399122Y-115872419D01*
X162399122Y-116253371D02*
X162494360Y-116205752D01*
X162494360Y-116205752D02*
X162684836Y-116205752D01*
X162684836Y-116205752D02*
X162780074Y-116253371D01*
X162780074Y-116253371D02*
X162827693Y-116300990D01*
X162827693Y-116300990D02*
X162875312Y-116396228D01*
X162875312Y-116396228D02*
X162875312Y-116681942D01*
X162875312Y-116681942D02*
X162827693Y-116777180D01*
X162827693Y-116777180D02*
X162780074Y-116824800D01*
X162780074Y-116824800D02*
X162684836Y-116872419D01*
X162684836Y-116872419D02*
X162494360Y-116872419D01*
X162494360Y-116872419D02*
X162399122Y-116824800D01*
X163732455Y-116872419D02*
X163732455Y-116348609D01*
X163732455Y-116348609D02*
X163684836Y-116253371D01*
X163684836Y-116253371D02*
X163589598Y-116205752D01*
X163589598Y-116205752D02*
X163399122Y-116205752D01*
X163399122Y-116205752D02*
X163303884Y-116253371D01*
X163732455Y-116824800D02*
X163637217Y-116872419D01*
X163637217Y-116872419D02*
X163399122Y-116872419D01*
X163399122Y-116872419D02*
X163303884Y-116824800D01*
X163303884Y-116824800D02*
X163256265Y-116729561D01*
X163256265Y-116729561D02*
X163256265Y-116634323D01*
X163256265Y-116634323D02*
X163303884Y-116539085D01*
X163303884Y-116539085D02*
X163399122Y-116491466D01*
X163399122Y-116491466D02*
X163637217Y-116491466D01*
X163637217Y-116491466D02*
X163732455Y-116443847D01*
X164065789Y-116205752D02*
X164446741Y-116205752D01*
X164208646Y-115872419D02*
X164208646Y-116729561D01*
X164208646Y-116729561D02*
X164256265Y-116824800D01*
X164256265Y-116824800D02*
X164351503Y-116872419D01*
X164351503Y-116872419D02*
X164446741Y-116872419D01*
X165303884Y-72872419D02*
X165303884Y-71872419D01*
X165303884Y-71872419D02*
X165637217Y-72586704D01*
X165637217Y-72586704D02*
X165970550Y-71872419D01*
X165970550Y-71872419D02*
X165970550Y-72872419D01*
X166637217Y-71872419D02*
X166827693Y-71872419D01*
X166827693Y-71872419D02*
X166922931Y-71920038D01*
X166922931Y-71920038D02*
X167018169Y-72015276D01*
X167018169Y-72015276D02*
X167065788Y-72205752D01*
X167065788Y-72205752D02*
X167065788Y-72539085D01*
X167065788Y-72539085D02*
X167018169Y-72729561D01*
X167018169Y-72729561D02*
X166922931Y-72824800D01*
X166922931Y-72824800D02*
X166827693Y-72872419D01*
X166827693Y-72872419D02*
X166637217Y-72872419D01*
X166637217Y-72872419D02*
X166541979Y-72824800D01*
X166541979Y-72824800D02*
X166446741Y-72729561D01*
X166446741Y-72729561D02*
X166399122Y-72539085D01*
X166399122Y-72539085D02*
X166399122Y-72205752D01*
X166399122Y-72205752D02*
X166446741Y-72015276D01*
X166446741Y-72015276D02*
X166541979Y-71920038D01*
X166541979Y-71920038D02*
X166637217Y-71872419D01*
X167351503Y-71872419D02*
X167922931Y-71872419D01*
X167637217Y-72872419D02*
X167637217Y-71872419D01*
X168446741Y-71872419D02*
X168637217Y-71872419D01*
X168637217Y-71872419D02*
X168732455Y-71920038D01*
X168732455Y-71920038D02*
X168827693Y-72015276D01*
X168827693Y-72015276D02*
X168875312Y-72205752D01*
X168875312Y-72205752D02*
X168875312Y-72539085D01*
X168875312Y-72539085D02*
X168827693Y-72729561D01*
X168827693Y-72729561D02*
X168732455Y-72824800D01*
X168732455Y-72824800D02*
X168637217Y-72872419D01*
X168637217Y-72872419D02*
X168446741Y-72872419D01*
X168446741Y-72872419D02*
X168351503Y-72824800D01*
X168351503Y-72824800D02*
X168256265Y-72729561D01*
X168256265Y-72729561D02*
X168208646Y-72539085D01*
X168208646Y-72539085D02*
X168208646Y-72205752D01*
X168208646Y-72205752D02*
X168256265Y-72015276D01*
X168256265Y-72015276D02*
X168351503Y-71920038D01*
X168351503Y-71920038D02*
X168446741Y-71872419D01*
X169875312Y-72872419D02*
X169541979Y-72396228D01*
X169303884Y-72872419D02*
X169303884Y-71872419D01*
X169303884Y-71872419D02*
X169684836Y-71872419D01*
X169684836Y-71872419D02*
X169780074Y-71920038D01*
X169780074Y-71920038D02*
X169827693Y-71967657D01*
X169827693Y-71967657D02*
X169875312Y-72062895D01*
X169875312Y-72062895D02*
X169875312Y-72205752D01*
X169875312Y-72205752D02*
X169827693Y-72300990D01*
X169827693Y-72300990D02*
X169780074Y-72348609D01*
X169780074Y-72348609D02*
X169684836Y-72396228D01*
X169684836Y-72396228D02*
X169303884Y-72396228D01*
X170256265Y-71967657D02*
X170303884Y-71920038D01*
X170303884Y-71920038D02*
X170399122Y-71872419D01*
X170399122Y-71872419D02*
X170637217Y-71872419D01*
X170637217Y-71872419D02*
X170732455Y-71920038D01*
X170732455Y-71920038D02*
X170780074Y-71967657D01*
X170780074Y-71967657D02*
X170827693Y-72062895D01*
X170827693Y-72062895D02*
X170827693Y-72158133D01*
X170827693Y-72158133D02*
X170780074Y-72300990D01*
X170780074Y-72300990D02*
X170208646Y-72872419D01*
X170208646Y-72872419D02*
X170827693Y-72872419D01*
X169372419Y-128696115D02*
X168372419Y-128696115D01*
X168372419Y-128696115D02*
X168372419Y-128315163D01*
X168372419Y-128315163D02*
X168420038Y-128219925D01*
X168420038Y-128219925D02*
X168467657Y-128172306D01*
X168467657Y-128172306D02*
X168562895Y-128124687D01*
X168562895Y-128124687D02*
X168705752Y-128124687D01*
X168705752Y-128124687D02*
X168800990Y-128172306D01*
X168800990Y-128172306D02*
X168848609Y-128219925D01*
X168848609Y-128219925D02*
X168896228Y-128315163D01*
X168896228Y-128315163D02*
X168896228Y-128696115D01*
X168372419Y-127791353D02*
X169372419Y-127553258D01*
X169372419Y-127553258D02*
X168658133Y-127362782D01*
X168658133Y-127362782D02*
X169372419Y-127172306D01*
X169372419Y-127172306D02*
X168372419Y-126934211D01*
X169372419Y-125981830D02*
X168896228Y-126315163D01*
X169372419Y-126553258D02*
X168372419Y-126553258D01*
X168372419Y-126553258D02*
X168372419Y-126172306D01*
X168372419Y-126172306D02*
X168420038Y-126077068D01*
X168420038Y-126077068D02*
X168467657Y-126029449D01*
X168467657Y-126029449D02*
X168562895Y-125981830D01*
X168562895Y-125981830D02*
X168705752Y-125981830D01*
X168705752Y-125981830D02*
X168800990Y-126029449D01*
X168800990Y-126029449D02*
X168848609Y-126077068D01*
X168848609Y-126077068D02*
X168896228Y-126172306D01*
X168896228Y-126172306D02*
X168896228Y-126553258D01*
X169467657Y-125791354D02*
X169467657Y-125029449D01*
X169372419Y-124315163D02*
X169372419Y-124791353D01*
X169372419Y-124791353D02*
X168372419Y-124791353D01*
X168848609Y-123981829D02*
X168848609Y-123648496D01*
X169372419Y-123505639D02*
X169372419Y-123981829D01*
X169372419Y-123981829D02*
X168372419Y-123981829D01*
X168372419Y-123981829D02*
X168372419Y-123505639D01*
X169372419Y-123077067D02*
X168372419Y-123077067D01*
X168372419Y-123077067D02*
X168372419Y-122838972D01*
X168372419Y-122838972D02*
X168420038Y-122696115D01*
X168420038Y-122696115D02*
X168515276Y-122600877D01*
X168515276Y-122600877D02*
X168610514Y-122553258D01*
X168610514Y-122553258D02*
X168800990Y-122505639D01*
X168800990Y-122505639D02*
X168943847Y-122505639D01*
X168943847Y-122505639D02*
X169134323Y-122553258D01*
X169134323Y-122553258D02*
X169229561Y-122600877D01*
X169229561Y-122600877D02*
X169324800Y-122696115D01*
X169324800Y-122696115D02*
X169372419Y-122838972D01*
X169372419Y-122838972D02*
X169372419Y-123077067D01*
X129232455Y-141872419D02*
X129232455Y-140872419D01*
X129232455Y-141824800D02*
X129137217Y-141872419D01*
X129137217Y-141872419D02*
X128946741Y-141872419D01*
X128946741Y-141872419D02*
X128851503Y-141824800D01*
X128851503Y-141824800D02*
X128803884Y-141777180D01*
X128803884Y-141777180D02*
X128756265Y-141681942D01*
X128756265Y-141681942D02*
X128756265Y-141396228D01*
X128756265Y-141396228D02*
X128803884Y-141300990D01*
X128803884Y-141300990D02*
X128851503Y-141253371D01*
X128851503Y-141253371D02*
X128946741Y-141205752D01*
X128946741Y-141205752D02*
X129137217Y-141205752D01*
X129137217Y-141205752D02*
X129232455Y-141253371D01*
X130089598Y-141824800D02*
X129994360Y-141872419D01*
X129994360Y-141872419D02*
X129803884Y-141872419D01*
X129803884Y-141872419D02*
X129708646Y-141824800D01*
X129708646Y-141824800D02*
X129661027Y-141729561D01*
X129661027Y-141729561D02*
X129661027Y-141348609D01*
X129661027Y-141348609D02*
X129708646Y-141253371D01*
X129708646Y-141253371D02*
X129803884Y-141205752D01*
X129803884Y-141205752D02*
X129994360Y-141205752D01*
X129994360Y-141205752D02*
X130089598Y-141253371D01*
X130089598Y-141253371D02*
X130137217Y-141348609D01*
X130137217Y-141348609D02*
X130137217Y-141443847D01*
X130137217Y-141443847D02*
X129661027Y-141539085D01*
X130518170Y-141824800D02*
X130613408Y-141872419D01*
X130613408Y-141872419D02*
X130803884Y-141872419D01*
X130803884Y-141872419D02*
X130899122Y-141824800D01*
X130899122Y-141824800D02*
X130946741Y-141729561D01*
X130946741Y-141729561D02*
X130946741Y-141681942D01*
X130946741Y-141681942D02*
X130899122Y-141586704D01*
X130899122Y-141586704D02*
X130803884Y-141539085D01*
X130803884Y-141539085D02*
X130661027Y-141539085D01*
X130661027Y-141539085D02*
X130565789Y-141491466D01*
X130565789Y-141491466D02*
X130518170Y-141396228D01*
X130518170Y-141396228D02*
X130518170Y-141348609D01*
X130518170Y-141348609D02*
X130565789Y-141253371D01*
X130565789Y-141253371D02*
X130661027Y-141205752D01*
X130661027Y-141205752D02*
X130803884Y-141205752D01*
X130803884Y-141205752D02*
X130899122Y-141253371D01*
X131375313Y-141872419D02*
X131375313Y-141205752D01*
X131375313Y-140872419D02*
X131327694Y-140920038D01*
X131327694Y-140920038D02*
X131375313Y-140967657D01*
X131375313Y-140967657D02*
X131422932Y-140920038D01*
X131422932Y-140920038D02*
X131375313Y-140872419D01*
X131375313Y-140872419D02*
X131375313Y-140967657D01*
X132280074Y-141205752D02*
X132280074Y-142015276D01*
X132280074Y-142015276D02*
X132232455Y-142110514D01*
X132232455Y-142110514D02*
X132184836Y-142158133D01*
X132184836Y-142158133D02*
X132089598Y-142205752D01*
X132089598Y-142205752D02*
X131946741Y-142205752D01*
X131946741Y-142205752D02*
X131851503Y-142158133D01*
X132280074Y-141824800D02*
X132184836Y-141872419D01*
X132184836Y-141872419D02*
X131994360Y-141872419D01*
X131994360Y-141872419D02*
X131899122Y-141824800D01*
X131899122Y-141824800D02*
X131851503Y-141777180D01*
X131851503Y-141777180D02*
X131803884Y-141681942D01*
X131803884Y-141681942D02*
X131803884Y-141396228D01*
X131803884Y-141396228D02*
X131851503Y-141300990D01*
X131851503Y-141300990D02*
X131899122Y-141253371D01*
X131899122Y-141253371D02*
X131994360Y-141205752D01*
X131994360Y-141205752D02*
X132184836Y-141205752D01*
X132184836Y-141205752D02*
X132280074Y-141253371D01*
X132756265Y-141205752D02*
X132756265Y-141872419D01*
X132756265Y-141300990D02*
X132803884Y-141253371D01*
X132803884Y-141253371D02*
X132899122Y-141205752D01*
X132899122Y-141205752D02*
X133041979Y-141205752D01*
X133041979Y-141205752D02*
X133137217Y-141253371D01*
X133137217Y-141253371D02*
X133184836Y-141348609D01*
X133184836Y-141348609D02*
X133184836Y-141872419D01*
X134041979Y-141824800D02*
X133946741Y-141872419D01*
X133946741Y-141872419D02*
X133756265Y-141872419D01*
X133756265Y-141872419D02*
X133661027Y-141824800D01*
X133661027Y-141824800D02*
X133613408Y-141729561D01*
X133613408Y-141729561D02*
X133613408Y-141348609D01*
X133613408Y-141348609D02*
X133661027Y-141253371D01*
X133661027Y-141253371D02*
X133756265Y-141205752D01*
X133756265Y-141205752D02*
X133946741Y-141205752D01*
X133946741Y-141205752D02*
X134041979Y-141253371D01*
X134041979Y-141253371D02*
X134089598Y-141348609D01*
X134089598Y-141348609D02*
X134089598Y-141443847D01*
X134089598Y-141443847D02*
X133613408Y-141539085D01*
X134946741Y-141872419D02*
X134946741Y-140872419D01*
X134946741Y-141824800D02*
X134851503Y-141872419D01*
X134851503Y-141872419D02*
X134661027Y-141872419D01*
X134661027Y-141872419D02*
X134565789Y-141824800D01*
X134565789Y-141824800D02*
X134518170Y-141777180D01*
X134518170Y-141777180D02*
X134470551Y-141681942D01*
X134470551Y-141681942D02*
X134470551Y-141396228D01*
X134470551Y-141396228D02*
X134518170Y-141300990D01*
X134518170Y-141300990D02*
X134565789Y-141253371D01*
X134565789Y-141253371D02*
X134661027Y-141205752D01*
X134661027Y-141205752D02*
X134851503Y-141205752D01*
X134851503Y-141205752D02*
X134946741Y-141253371D01*
X136184837Y-141872419D02*
X136184837Y-140872419D01*
X136184837Y-141253371D02*
X136280075Y-141205752D01*
X136280075Y-141205752D02*
X136470551Y-141205752D01*
X136470551Y-141205752D02*
X136565789Y-141253371D01*
X136565789Y-141253371D02*
X136613408Y-141300990D01*
X136613408Y-141300990D02*
X136661027Y-141396228D01*
X136661027Y-141396228D02*
X136661027Y-141681942D01*
X136661027Y-141681942D02*
X136613408Y-141777180D01*
X136613408Y-141777180D02*
X136565789Y-141824800D01*
X136565789Y-141824800D02*
X136470551Y-141872419D01*
X136470551Y-141872419D02*
X136280075Y-141872419D01*
X136280075Y-141872419D02*
X136184837Y-141824800D01*
X136994361Y-141205752D02*
X137232456Y-141872419D01*
X137470551Y-141205752D02*
X137232456Y-141872419D01*
X137232456Y-141872419D02*
X137137218Y-142110514D01*
X137137218Y-142110514D02*
X137089599Y-142158133D01*
X137089599Y-142158133D02*
X136994361Y-142205752D01*
X138946742Y-141348609D02*
X139089599Y-141396228D01*
X139089599Y-141396228D02*
X139137218Y-141443847D01*
X139137218Y-141443847D02*
X139184837Y-141539085D01*
X139184837Y-141539085D02*
X139184837Y-141681942D01*
X139184837Y-141681942D02*
X139137218Y-141777180D01*
X139137218Y-141777180D02*
X139089599Y-141824800D01*
X139089599Y-141824800D02*
X138994361Y-141872419D01*
X138994361Y-141872419D02*
X138613409Y-141872419D01*
X138613409Y-141872419D02*
X138613409Y-140872419D01*
X138613409Y-140872419D02*
X138946742Y-140872419D01*
X138946742Y-140872419D02*
X139041980Y-140920038D01*
X139041980Y-140920038D02*
X139089599Y-140967657D01*
X139089599Y-140967657D02*
X139137218Y-141062895D01*
X139137218Y-141062895D02*
X139137218Y-141158133D01*
X139137218Y-141158133D02*
X139089599Y-141253371D01*
X139089599Y-141253371D02*
X139041980Y-141300990D01*
X139041980Y-141300990D02*
X138946742Y-141348609D01*
X138946742Y-141348609D02*
X138613409Y-141348609D01*
X139613409Y-141777180D02*
X139661028Y-141824800D01*
X139661028Y-141824800D02*
X139613409Y-141872419D01*
X139613409Y-141872419D02*
X139565790Y-141824800D01*
X139565790Y-141824800D02*
X139613409Y-141777180D01*
X139613409Y-141777180D02*
X139613409Y-141872419D01*
X140089599Y-141872419D02*
X140089599Y-140872419D01*
X140089599Y-141348609D02*
X140661027Y-141348609D01*
X140661027Y-141872419D02*
X140661027Y-140872419D01*
X160303884Y-113991466D02*
X161065789Y-113991466D01*
X160684836Y-114372419D02*
X160684836Y-113610514D01*
X161399122Y-113372419D02*
X161732455Y-114372419D01*
X161732455Y-114372419D02*
X162065788Y-113372419D01*
X162399122Y-114372419D02*
X162399122Y-113372419D01*
X162399122Y-113753371D02*
X162494360Y-113705752D01*
X162494360Y-113705752D02*
X162684836Y-113705752D01*
X162684836Y-113705752D02*
X162780074Y-113753371D01*
X162780074Y-113753371D02*
X162827693Y-113800990D01*
X162827693Y-113800990D02*
X162875312Y-113896228D01*
X162875312Y-113896228D02*
X162875312Y-114181942D01*
X162875312Y-114181942D02*
X162827693Y-114277180D01*
X162827693Y-114277180D02*
X162780074Y-114324800D01*
X162780074Y-114324800D02*
X162684836Y-114372419D01*
X162684836Y-114372419D02*
X162494360Y-114372419D01*
X162494360Y-114372419D02*
X162399122Y-114324800D01*
X163732455Y-114372419D02*
X163732455Y-113848609D01*
X163732455Y-113848609D02*
X163684836Y-113753371D01*
X163684836Y-113753371D02*
X163589598Y-113705752D01*
X163589598Y-113705752D02*
X163399122Y-113705752D01*
X163399122Y-113705752D02*
X163303884Y-113753371D01*
X163732455Y-114324800D02*
X163637217Y-114372419D01*
X163637217Y-114372419D02*
X163399122Y-114372419D01*
X163399122Y-114372419D02*
X163303884Y-114324800D01*
X163303884Y-114324800D02*
X163256265Y-114229561D01*
X163256265Y-114229561D02*
X163256265Y-114134323D01*
X163256265Y-114134323D02*
X163303884Y-114039085D01*
X163303884Y-114039085D02*
X163399122Y-113991466D01*
X163399122Y-113991466D02*
X163637217Y-113991466D01*
X163637217Y-113991466D02*
X163732455Y-113943847D01*
X164065789Y-113705752D02*
X164446741Y-113705752D01*
X164208646Y-113372419D02*
X164208646Y-114229561D01*
X164208646Y-114229561D02*
X164256265Y-114324800D01*
X164256265Y-114324800D02*
X164351503Y-114372419D01*
X164351503Y-114372419D02*
X164446741Y-114372419D01*
X147409133Y-56743734D02*
X146709133Y-56743734D01*
X146709133Y-56210401D02*
X146709133Y-56058020D01*
X146709133Y-56058020D02*
X146742466Y-55981830D01*
X146742466Y-55981830D02*
X146809133Y-55905639D01*
X146809133Y-55905639D02*
X146942466Y-55867544D01*
X146942466Y-55867544D02*
X147175800Y-55867544D01*
X147175800Y-55867544D02*
X147309133Y-55905639D01*
X147309133Y-55905639D02*
X147375800Y-55981830D01*
X147375800Y-55981830D02*
X147409133Y-56058020D01*
X147409133Y-56058020D02*
X147409133Y-56210401D01*
X147409133Y-56210401D02*
X147375800Y-56286592D01*
X147375800Y-56286592D02*
X147309133Y-56362782D01*
X147309133Y-56362782D02*
X147175800Y-56400878D01*
X147175800Y-56400878D02*
X146942466Y-56400878D01*
X146942466Y-56400878D02*
X146809133Y-56362782D01*
X146809133Y-56362782D02*
X146742466Y-56286592D01*
X146742466Y-56286592D02*
X146709133Y-56210401D01*
X147409133Y-55105640D02*
X147409133Y-55562783D01*
X147409133Y-55334211D02*
X146709133Y-55334211D01*
X146709133Y-55334211D02*
X146809133Y-55410402D01*
X146809133Y-55410402D02*
X146875800Y-55486592D01*
X146875800Y-55486592D02*
X146909133Y-55562783D01*
X166627580Y-58375312D02*
X167103771Y-58041979D01*
X166627580Y-57803884D02*
X167627580Y-57803884D01*
X167627580Y-57803884D02*
X167627580Y-58184836D01*
X167627580Y-58184836D02*
X167579961Y-58280074D01*
X167579961Y-58280074D02*
X167532342Y-58327693D01*
X167532342Y-58327693D02*
X167437104Y-58375312D01*
X167437104Y-58375312D02*
X167294247Y-58375312D01*
X167294247Y-58375312D02*
X167199009Y-58327693D01*
X167199009Y-58327693D02*
X167151390Y-58280074D01*
X167151390Y-58280074D02*
X167103771Y-58184836D01*
X167103771Y-58184836D02*
X167103771Y-57803884D01*
X166675200Y-59184836D02*
X166627580Y-59089598D01*
X166627580Y-59089598D02*
X166627580Y-58899122D01*
X166627580Y-58899122D02*
X166675200Y-58803884D01*
X166675200Y-58803884D02*
X166770438Y-58756265D01*
X166770438Y-58756265D02*
X167151390Y-58756265D01*
X167151390Y-58756265D02*
X167246628Y-58803884D01*
X167246628Y-58803884D02*
X167294247Y-58899122D01*
X167294247Y-58899122D02*
X167294247Y-59089598D01*
X167294247Y-59089598D02*
X167246628Y-59184836D01*
X167246628Y-59184836D02*
X167151390Y-59232455D01*
X167151390Y-59232455D02*
X167056152Y-59232455D01*
X167056152Y-59232455D02*
X166960914Y-58756265D01*
X166675200Y-59613408D02*
X166627580Y-59708646D01*
X166627580Y-59708646D02*
X166627580Y-59899122D01*
X166627580Y-59899122D02*
X166675200Y-59994360D01*
X166675200Y-59994360D02*
X166770438Y-60041979D01*
X166770438Y-60041979D02*
X166818057Y-60041979D01*
X166818057Y-60041979D02*
X166913295Y-59994360D01*
X166913295Y-59994360D02*
X166960914Y-59899122D01*
X166960914Y-59899122D02*
X166960914Y-59756265D01*
X166960914Y-59756265D02*
X167008533Y-59661027D01*
X167008533Y-59661027D02*
X167103771Y-59613408D01*
X167103771Y-59613408D02*
X167151390Y-59613408D01*
X167151390Y-59613408D02*
X167246628Y-59661027D01*
X167246628Y-59661027D02*
X167294247Y-59756265D01*
X167294247Y-59756265D02*
X167294247Y-59899122D01*
X167294247Y-59899122D02*
X167246628Y-59994360D01*
X166675200Y-60851503D02*
X166627580Y-60756265D01*
X166627580Y-60756265D02*
X166627580Y-60565789D01*
X166627580Y-60565789D02*
X166675200Y-60470551D01*
X166675200Y-60470551D02*
X166770438Y-60422932D01*
X166770438Y-60422932D02*
X167151390Y-60422932D01*
X167151390Y-60422932D02*
X167246628Y-60470551D01*
X167246628Y-60470551D02*
X167294247Y-60565789D01*
X167294247Y-60565789D02*
X167294247Y-60756265D01*
X167294247Y-60756265D02*
X167246628Y-60851503D01*
X167246628Y-60851503D02*
X167151390Y-60899122D01*
X167151390Y-60899122D02*
X167056152Y-60899122D01*
X167056152Y-60899122D02*
X166960914Y-60422932D01*
X167294247Y-61184837D02*
X167294247Y-61565789D01*
X167627580Y-61327694D02*
X166770438Y-61327694D01*
X166770438Y-61327694D02*
X166675200Y-61375313D01*
X166675200Y-61375313D02*
X166627580Y-61470551D01*
X166627580Y-61470551D02*
X166627580Y-61565789D01*
D11*
X148909783Y-61251958D02*
X148209783Y-61251958D01*
X148209783Y-60718625D02*
X148209783Y-60566244D01*
X148209783Y-60566244D02*
X148243116Y-60490054D01*
X148243116Y-60490054D02*
X148309783Y-60413863D01*
X148309783Y-60413863D02*
X148443116Y-60375768D01*
X148443116Y-60375768D02*
X148676450Y-60375768D01*
X148676450Y-60375768D02*
X148809783Y-60413863D01*
X148809783Y-60413863D02*
X148876450Y-60490054D01*
X148876450Y-60490054D02*
X148909783Y-60566244D01*
X148909783Y-60566244D02*
X148909783Y-60718625D01*
X148909783Y-60718625D02*
X148876450Y-60794816D01*
X148876450Y-60794816D02*
X148809783Y-60871006D01*
X148809783Y-60871006D02*
X148676450Y-60909102D01*
X148676450Y-60909102D02*
X148443116Y-60909102D01*
X148443116Y-60909102D02*
X148309783Y-60871006D01*
X148309783Y-60871006D02*
X148243116Y-60794816D01*
X148243116Y-60794816D02*
X148209783Y-60718625D01*
X148276450Y-60071007D02*
X148243116Y-60032911D01*
X148243116Y-60032911D02*
X148209783Y-59956721D01*
X148209783Y-59956721D02*
X148209783Y-59766245D01*
X148209783Y-59766245D02*
X148243116Y-59690054D01*
X148243116Y-59690054D02*
X148276450Y-59651959D01*
X148276450Y-59651959D02*
X148343116Y-59613864D01*
X148343116Y-59613864D02*
X148409783Y-59613864D01*
X148409783Y-59613864D02*
X148509783Y-59651959D01*
X148509783Y-59651959D02*
X148909783Y-60109102D01*
X148909783Y-60109102D02*
X148909783Y-59613864D01*
X145643116Y-62751958D02*
X145643116Y-62142435D01*
X145909783Y-62447196D02*
X145376450Y-62447196D01*
X145209783Y-61837673D02*
X145209783Y-61342435D01*
X145209783Y-61342435D02*
X145476450Y-61609101D01*
X145476450Y-61609101D02*
X145476450Y-61494816D01*
X145476450Y-61494816D02*
X145509783Y-61418625D01*
X145509783Y-61418625D02*
X145543116Y-61380530D01*
X145543116Y-61380530D02*
X145609783Y-61342435D01*
X145609783Y-61342435D02*
X145776450Y-61342435D01*
X145776450Y-61342435D02*
X145843116Y-61380530D01*
X145843116Y-61380530D02*
X145876450Y-61418625D01*
X145876450Y-61418625D02*
X145909783Y-61494816D01*
X145909783Y-61494816D02*
X145909783Y-61723387D01*
X145909783Y-61723387D02*
X145876450Y-61799578D01*
X145876450Y-61799578D02*
X145843116Y-61837673D01*
X145843116Y-60999577D02*
X145876450Y-60961482D01*
X145876450Y-60961482D02*
X145909783Y-60999577D01*
X145909783Y-60999577D02*
X145876450Y-61037673D01*
X145876450Y-61037673D02*
X145843116Y-60999577D01*
X145843116Y-60999577D02*
X145909783Y-60999577D01*
X145209783Y-60694816D02*
X145209783Y-60199578D01*
X145209783Y-60199578D02*
X145476450Y-60466244D01*
X145476450Y-60466244D02*
X145476450Y-60351959D01*
X145476450Y-60351959D02*
X145509783Y-60275768D01*
X145509783Y-60275768D02*
X145543116Y-60237673D01*
X145543116Y-60237673D02*
X145609783Y-60199578D01*
X145609783Y-60199578D02*
X145776450Y-60199578D01*
X145776450Y-60199578D02*
X145843116Y-60237673D01*
X145843116Y-60237673D02*
X145876450Y-60275768D01*
X145876450Y-60275768D02*
X145909783Y-60351959D01*
X145909783Y-60351959D02*
X145909783Y-60580530D01*
X145909783Y-60580530D02*
X145876450Y-60656721D01*
X145876450Y-60656721D02*
X145843116Y-60694816D01*
X145443116Y-59932911D02*
X145909783Y-59742435D01*
X145909783Y-59742435D02*
X145443116Y-59551958D01*
D10*
X125303884Y-73372419D02*
X125303884Y-72372419D01*
X125303884Y-72372419D02*
X125637217Y-73086704D01*
X125637217Y-73086704D02*
X125970550Y-72372419D01*
X125970550Y-72372419D02*
X125970550Y-73372419D01*
X126637217Y-72372419D02*
X126827693Y-72372419D01*
X126827693Y-72372419D02*
X126922931Y-72420038D01*
X126922931Y-72420038D02*
X127018169Y-72515276D01*
X127018169Y-72515276D02*
X127065788Y-72705752D01*
X127065788Y-72705752D02*
X127065788Y-73039085D01*
X127065788Y-73039085D02*
X127018169Y-73229561D01*
X127018169Y-73229561D02*
X126922931Y-73324800D01*
X126922931Y-73324800D02*
X126827693Y-73372419D01*
X126827693Y-73372419D02*
X126637217Y-73372419D01*
X126637217Y-73372419D02*
X126541979Y-73324800D01*
X126541979Y-73324800D02*
X126446741Y-73229561D01*
X126446741Y-73229561D02*
X126399122Y-73039085D01*
X126399122Y-73039085D02*
X126399122Y-72705752D01*
X126399122Y-72705752D02*
X126446741Y-72515276D01*
X126446741Y-72515276D02*
X126541979Y-72420038D01*
X126541979Y-72420038D02*
X126637217Y-72372419D01*
X127351503Y-72372419D02*
X127922931Y-72372419D01*
X127637217Y-73372419D02*
X127637217Y-72372419D01*
X128446741Y-72372419D02*
X128637217Y-72372419D01*
X128637217Y-72372419D02*
X128732455Y-72420038D01*
X128732455Y-72420038D02*
X128827693Y-72515276D01*
X128827693Y-72515276D02*
X128875312Y-72705752D01*
X128875312Y-72705752D02*
X128875312Y-73039085D01*
X128875312Y-73039085D02*
X128827693Y-73229561D01*
X128827693Y-73229561D02*
X128732455Y-73324800D01*
X128732455Y-73324800D02*
X128637217Y-73372419D01*
X128637217Y-73372419D02*
X128446741Y-73372419D01*
X128446741Y-73372419D02*
X128351503Y-73324800D01*
X128351503Y-73324800D02*
X128256265Y-73229561D01*
X128256265Y-73229561D02*
X128208646Y-73039085D01*
X128208646Y-73039085D02*
X128208646Y-72705752D01*
X128208646Y-72705752D02*
X128256265Y-72515276D01*
X128256265Y-72515276D02*
X128351503Y-72420038D01*
X128351503Y-72420038D02*
X128446741Y-72372419D01*
X129875312Y-73372419D02*
X129541979Y-72896228D01*
X129303884Y-73372419D02*
X129303884Y-72372419D01*
X129303884Y-72372419D02*
X129684836Y-72372419D01*
X129684836Y-72372419D02*
X129780074Y-72420038D01*
X129780074Y-72420038D02*
X129827693Y-72467657D01*
X129827693Y-72467657D02*
X129875312Y-72562895D01*
X129875312Y-72562895D02*
X129875312Y-72705752D01*
X129875312Y-72705752D02*
X129827693Y-72800990D01*
X129827693Y-72800990D02*
X129780074Y-72848609D01*
X129780074Y-72848609D02*
X129684836Y-72896228D01*
X129684836Y-72896228D02*
X129303884Y-72896228D01*
X130827693Y-73372419D02*
X130256265Y-73372419D01*
X130541979Y-73372419D02*
X130541979Y-72372419D01*
X130541979Y-72372419D02*
X130446741Y-72515276D01*
X130446741Y-72515276D02*
X130351503Y-72610514D01*
X130351503Y-72610514D02*
X130256265Y-72658133D01*
D11*
X151409783Y-61251958D02*
X150709783Y-61251958D01*
X150709783Y-60718625D02*
X150709783Y-60566244D01*
X150709783Y-60566244D02*
X150743116Y-60490054D01*
X150743116Y-60490054D02*
X150809783Y-60413863D01*
X150809783Y-60413863D02*
X150943116Y-60375768D01*
X150943116Y-60375768D02*
X151176450Y-60375768D01*
X151176450Y-60375768D02*
X151309783Y-60413863D01*
X151309783Y-60413863D02*
X151376450Y-60490054D01*
X151376450Y-60490054D02*
X151409783Y-60566244D01*
X151409783Y-60566244D02*
X151409783Y-60718625D01*
X151409783Y-60718625D02*
X151376450Y-60794816D01*
X151376450Y-60794816D02*
X151309783Y-60871006D01*
X151309783Y-60871006D02*
X151176450Y-60909102D01*
X151176450Y-60909102D02*
X150943116Y-60909102D01*
X150943116Y-60909102D02*
X150809783Y-60871006D01*
X150809783Y-60871006D02*
X150743116Y-60794816D01*
X150743116Y-60794816D02*
X150709783Y-60718625D01*
X151409783Y-59994816D02*
X151409783Y-59842435D01*
X151409783Y-59842435D02*
X151376450Y-59766245D01*
X151376450Y-59766245D02*
X151343116Y-59728149D01*
X151343116Y-59728149D02*
X151243116Y-59651959D01*
X151243116Y-59651959D02*
X151109783Y-59613864D01*
X151109783Y-59613864D02*
X150843116Y-59613864D01*
X150843116Y-59613864D02*
X150776450Y-59651959D01*
X150776450Y-59651959D02*
X150743116Y-59690054D01*
X150743116Y-59690054D02*
X150709783Y-59766245D01*
X150709783Y-59766245D02*
X150709783Y-59918626D01*
X150709783Y-59918626D02*
X150743116Y-59994816D01*
X150743116Y-59994816D02*
X150776450Y-60032911D01*
X150776450Y-60032911D02*
X150843116Y-60071007D01*
X150843116Y-60071007D02*
X151009783Y-60071007D01*
X151009783Y-60071007D02*
X151076450Y-60032911D01*
X151076450Y-60032911D02*
X151109783Y-59994816D01*
X151109783Y-59994816D02*
X151143116Y-59918626D01*
X151143116Y-59918626D02*
X151143116Y-59766245D01*
X151143116Y-59766245D02*
X151109783Y-59690054D01*
X151109783Y-59690054D02*
X151076450Y-59651959D01*
X151076450Y-59651959D02*
X151009783Y-59613864D01*
D12*
X133829819Y-103148094D02*
X132829819Y-103148094D01*
X132829819Y-103148094D02*
X132829819Y-102909999D01*
X132829819Y-102909999D02*
X132877438Y-102767142D01*
X132877438Y-102767142D02*
X132972676Y-102671904D01*
X132972676Y-102671904D02*
X133067914Y-102624285D01*
X133067914Y-102624285D02*
X133258390Y-102576666D01*
X133258390Y-102576666D02*
X133401247Y-102576666D01*
X133401247Y-102576666D02*
X133591723Y-102624285D01*
X133591723Y-102624285D02*
X133686961Y-102671904D01*
X133686961Y-102671904D02*
X133782200Y-102767142D01*
X133782200Y-102767142D02*
X133829819Y-102909999D01*
X133829819Y-102909999D02*
X133829819Y-103148094D01*
X133163152Y-101719523D02*
X133829819Y-101719523D01*
X132782200Y-101957618D02*
X133496485Y-102195713D01*
X133496485Y-102195713D02*
X133496485Y-101576666D01*
X165554819Y-130142857D02*
X165078628Y-130476190D01*
X165554819Y-130714285D02*
X164554819Y-130714285D01*
X164554819Y-130714285D02*
X164554819Y-130333333D01*
X164554819Y-130333333D02*
X164602438Y-130238095D01*
X164602438Y-130238095D02*
X164650057Y-130190476D01*
X164650057Y-130190476D02*
X164745295Y-130142857D01*
X164745295Y-130142857D02*
X164888152Y-130142857D01*
X164888152Y-130142857D02*
X164983390Y-130190476D01*
X164983390Y-130190476D02*
X165031009Y-130238095D01*
X165031009Y-130238095D02*
X165078628Y-130333333D01*
X165078628Y-130333333D02*
X165078628Y-130714285D01*
X165554819Y-129190476D02*
X165554819Y-129761904D01*
X165554819Y-129476190D02*
X164554819Y-129476190D01*
X164554819Y-129476190D02*
X164697676Y-129571428D01*
X164697676Y-129571428D02*
X164792914Y-129666666D01*
X164792914Y-129666666D02*
X164840533Y-129761904D01*
X164554819Y-128285714D02*
X164554819Y-128761904D01*
X164554819Y-128761904D02*
X165031009Y-128809523D01*
X165031009Y-128809523D02*
X164983390Y-128761904D01*
X164983390Y-128761904D02*
X164935771Y-128666666D01*
X164935771Y-128666666D02*
X164935771Y-128428571D01*
X164935771Y-128428571D02*
X164983390Y-128333333D01*
X164983390Y-128333333D02*
X165031009Y-128285714D01*
X165031009Y-128285714D02*
X165126247Y-128238095D01*
X165126247Y-128238095D02*
X165364342Y-128238095D01*
X165364342Y-128238095D02*
X165459580Y-128285714D01*
X165459580Y-128285714D02*
X165507200Y-128333333D01*
X165507200Y-128333333D02*
X165554819Y-128428571D01*
X165554819Y-128428571D02*
X165554819Y-128666666D01*
X165554819Y-128666666D02*
X165507200Y-128761904D01*
X165507200Y-128761904D02*
X165459580Y-128809523D01*
X140809580Y-125166666D02*
X140857200Y-125214285D01*
X140857200Y-125214285D02*
X140904819Y-125357142D01*
X140904819Y-125357142D02*
X140904819Y-125452380D01*
X140904819Y-125452380D02*
X140857200Y-125595237D01*
X140857200Y-125595237D02*
X140761961Y-125690475D01*
X140761961Y-125690475D02*
X140666723Y-125738094D01*
X140666723Y-125738094D02*
X140476247Y-125785713D01*
X140476247Y-125785713D02*
X140333390Y-125785713D01*
X140333390Y-125785713D02*
X140142914Y-125738094D01*
X140142914Y-125738094D02*
X140047676Y-125690475D01*
X140047676Y-125690475D02*
X139952438Y-125595237D01*
X139952438Y-125595237D02*
X139904819Y-125452380D01*
X139904819Y-125452380D02*
X139904819Y-125357142D01*
X139904819Y-125357142D02*
X139952438Y-125214285D01*
X139952438Y-125214285D02*
X140000057Y-125166666D01*
X140238152Y-124309523D02*
X140904819Y-124309523D01*
X139857200Y-124547618D02*
X140571485Y-124785713D01*
X140571485Y-124785713D02*
X140571485Y-124166666D01*
X156129819Y-63441666D02*
X155653628Y-63774999D01*
X156129819Y-64013094D02*
X155129819Y-64013094D01*
X155129819Y-64013094D02*
X155129819Y-63632142D01*
X155129819Y-63632142D02*
X155177438Y-63536904D01*
X155177438Y-63536904D02*
X155225057Y-63489285D01*
X155225057Y-63489285D02*
X155320295Y-63441666D01*
X155320295Y-63441666D02*
X155463152Y-63441666D01*
X155463152Y-63441666D02*
X155558390Y-63489285D01*
X155558390Y-63489285D02*
X155606009Y-63536904D01*
X155606009Y-63536904D02*
X155653628Y-63632142D01*
X155653628Y-63632142D02*
X155653628Y-64013094D01*
X155558390Y-62870237D02*
X155510771Y-62965475D01*
X155510771Y-62965475D02*
X155463152Y-63013094D01*
X155463152Y-63013094D02*
X155367914Y-63060713D01*
X155367914Y-63060713D02*
X155320295Y-63060713D01*
X155320295Y-63060713D02*
X155225057Y-63013094D01*
X155225057Y-63013094D02*
X155177438Y-62965475D01*
X155177438Y-62965475D02*
X155129819Y-62870237D01*
X155129819Y-62870237D02*
X155129819Y-62679761D01*
X155129819Y-62679761D02*
X155177438Y-62584523D01*
X155177438Y-62584523D02*
X155225057Y-62536904D01*
X155225057Y-62536904D02*
X155320295Y-62489285D01*
X155320295Y-62489285D02*
X155367914Y-62489285D01*
X155367914Y-62489285D02*
X155463152Y-62536904D01*
X155463152Y-62536904D02*
X155510771Y-62584523D01*
X155510771Y-62584523D02*
X155558390Y-62679761D01*
X155558390Y-62679761D02*
X155558390Y-62870237D01*
X155558390Y-62870237D02*
X155606009Y-62965475D01*
X155606009Y-62965475D02*
X155653628Y-63013094D01*
X155653628Y-63013094D02*
X155748866Y-63060713D01*
X155748866Y-63060713D02*
X155939342Y-63060713D01*
X155939342Y-63060713D02*
X156034580Y-63013094D01*
X156034580Y-63013094D02*
X156082200Y-62965475D01*
X156082200Y-62965475D02*
X156129819Y-62870237D01*
X156129819Y-62870237D02*
X156129819Y-62679761D01*
X156129819Y-62679761D02*
X156082200Y-62584523D01*
X156082200Y-62584523D02*
X156034580Y-62536904D01*
X156034580Y-62536904D02*
X155939342Y-62489285D01*
X155939342Y-62489285D02*
X155748866Y-62489285D01*
X155748866Y-62489285D02*
X155653628Y-62536904D01*
X155653628Y-62536904D02*
X155606009Y-62584523D01*
X155606009Y-62584523D02*
X155558390Y-62679761D01*
X137158333Y-66954580D02*
X137110714Y-67002200D01*
X137110714Y-67002200D02*
X136967857Y-67049819D01*
X136967857Y-67049819D02*
X136872619Y-67049819D01*
X136872619Y-67049819D02*
X136729762Y-67002200D01*
X136729762Y-67002200D02*
X136634524Y-66906961D01*
X136634524Y-66906961D02*
X136586905Y-66811723D01*
X136586905Y-66811723D02*
X136539286Y-66621247D01*
X136539286Y-66621247D02*
X136539286Y-66478390D01*
X136539286Y-66478390D02*
X136586905Y-66287914D01*
X136586905Y-66287914D02*
X136634524Y-66192676D01*
X136634524Y-66192676D02*
X136729762Y-66097438D01*
X136729762Y-66097438D02*
X136872619Y-66049819D01*
X136872619Y-66049819D02*
X136967857Y-66049819D01*
X136967857Y-66049819D02*
X137110714Y-66097438D01*
X137110714Y-66097438D02*
X137158333Y-66145057D01*
X138015476Y-66049819D02*
X137825000Y-66049819D01*
X137825000Y-66049819D02*
X137729762Y-66097438D01*
X137729762Y-66097438D02*
X137682143Y-66145057D01*
X137682143Y-66145057D02*
X137586905Y-66287914D01*
X137586905Y-66287914D02*
X137539286Y-66478390D01*
X137539286Y-66478390D02*
X137539286Y-66859342D01*
X137539286Y-66859342D02*
X137586905Y-66954580D01*
X137586905Y-66954580D02*
X137634524Y-67002200D01*
X137634524Y-67002200D02*
X137729762Y-67049819D01*
X137729762Y-67049819D02*
X137920238Y-67049819D01*
X137920238Y-67049819D02*
X138015476Y-67002200D01*
X138015476Y-67002200D02*
X138063095Y-66954580D01*
X138063095Y-66954580D02*
X138110714Y-66859342D01*
X138110714Y-66859342D02*
X138110714Y-66621247D01*
X138110714Y-66621247D02*
X138063095Y-66526009D01*
X138063095Y-66526009D02*
X138015476Y-66478390D01*
X138015476Y-66478390D02*
X137920238Y-66430771D01*
X137920238Y-66430771D02*
X137729762Y-66430771D01*
X137729762Y-66430771D02*
X137634524Y-66478390D01*
X137634524Y-66478390D02*
X137586905Y-66526009D01*
X137586905Y-66526009D02*
X137539286Y-66621247D01*
X155882142Y-110949580D02*
X155834523Y-110997200D01*
X155834523Y-110997200D02*
X155691666Y-111044819D01*
X155691666Y-111044819D02*
X155596428Y-111044819D01*
X155596428Y-111044819D02*
X155453571Y-110997200D01*
X155453571Y-110997200D02*
X155358333Y-110901961D01*
X155358333Y-110901961D02*
X155310714Y-110806723D01*
X155310714Y-110806723D02*
X155263095Y-110616247D01*
X155263095Y-110616247D02*
X155263095Y-110473390D01*
X155263095Y-110473390D02*
X155310714Y-110282914D01*
X155310714Y-110282914D02*
X155358333Y-110187676D01*
X155358333Y-110187676D02*
X155453571Y-110092438D01*
X155453571Y-110092438D02*
X155596428Y-110044819D01*
X155596428Y-110044819D02*
X155691666Y-110044819D01*
X155691666Y-110044819D02*
X155834523Y-110092438D01*
X155834523Y-110092438D02*
X155882142Y-110140057D01*
X156263095Y-110140057D02*
X156310714Y-110092438D01*
X156310714Y-110092438D02*
X156405952Y-110044819D01*
X156405952Y-110044819D02*
X156644047Y-110044819D01*
X156644047Y-110044819D02*
X156739285Y-110092438D01*
X156739285Y-110092438D02*
X156786904Y-110140057D01*
X156786904Y-110140057D02*
X156834523Y-110235295D01*
X156834523Y-110235295D02*
X156834523Y-110330533D01*
X156834523Y-110330533D02*
X156786904Y-110473390D01*
X156786904Y-110473390D02*
X156215476Y-111044819D01*
X156215476Y-111044819D02*
X156834523Y-111044819D01*
X157215476Y-110140057D02*
X157263095Y-110092438D01*
X157263095Y-110092438D02*
X157358333Y-110044819D01*
X157358333Y-110044819D02*
X157596428Y-110044819D01*
X157596428Y-110044819D02*
X157691666Y-110092438D01*
X157691666Y-110092438D02*
X157739285Y-110140057D01*
X157739285Y-110140057D02*
X157786904Y-110235295D01*
X157786904Y-110235295D02*
X157786904Y-110330533D01*
X157786904Y-110330533D02*
X157739285Y-110473390D01*
X157739285Y-110473390D02*
X157167857Y-111044819D01*
X157167857Y-111044819D02*
X157786904Y-111044819D01*
X130204819Y-131714285D02*
X129204819Y-131714285D01*
X129204819Y-131714285D02*
X129204819Y-131476190D01*
X129204819Y-131476190D02*
X129252438Y-131333333D01*
X129252438Y-131333333D02*
X129347676Y-131238095D01*
X129347676Y-131238095D02*
X129442914Y-131190476D01*
X129442914Y-131190476D02*
X129633390Y-131142857D01*
X129633390Y-131142857D02*
X129776247Y-131142857D01*
X129776247Y-131142857D02*
X129966723Y-131190476D01*
X129966723Y-131190476D02*
X130061961Y-131238095D01*
X130061961Y-131238095D02*
X130157200Y-131333333D01*
X130157200Y-131333333D02*
X130204819Y-131476190D01*
X130204819Y-131476190D02*
X130204819Y-131714285D01*
X130204819Y-130190476D02*
X130204819Y-130761904D01*
X130204819Y-130476190D02*
X129204819Y-130476190D01*
X129204819Y-130476190D02*
X129347676Y-130571428D01*
X129347676Y-130571428D02*
X129442914Y-130666666D01*
X129442914Y-130666666D02*
X129490533Y-130761904D01*
X129300057Y-129809523D02*
X129252438Y-129761904D01*
X129252438Y-129761904D02*
X129204819Y-129666666D01*
X129204819Y-129666666D02*
X129204819Y-129428571D01*
X129204819Y-129428571D02*
X129252438Y-129333333D01*
X129252438Y-129333333D02*
X129300057Y-129285714D01*
X129300057Y-129285714D02*
X129395295Y-129238095D01*
X129395295Y-129238095D02*
X129490533Y-129238095D01*
X129490533Y-129238095D02*
X129633390Y-129285714D01*
X129633390Y-129285714D02*
X130204819Y-129857142D01*
X130204819Y-129857142D02*
X130204819Y-129238095D01*
X141284819Y-72511904D02*
X142094342Y-72511904D01*
X142094342Y-72511904D02*
X142189580Y-72464285D01*
X142189580Y-72464285D02*
X142237200Y-72416666D01*
X142237200Y-72416666D02*
X142284819Y-72321428D01*
X142284819Y-72321428D02*
X142284819Y-72130952D01*
X142284819Y-72130952D02*
X142237200Y-72035714D01*
X142237200Y-72035714D02*
X142189580Y-71988095D01*
X142189580Y-71988095D02*
X142094342Y-71940476D01*
X142094342Y-71940476D02*
X141284819Y-71940476D01*
X141618152Y-71035714D02*
X142284819Y-71035714D01*
X141237200Y-71273809D02*
X141951485Y-71511904D01*
X141951485Y-71511904D02*
X141951485Y-70892857D01*
X162382142Y-109514819D02*
X162048809Y-109038628D01*
X161810714Y-109514819D02*
X161810714Y-108514819D01*
X161810714Y-108514819D02*
X162191666Y-108514819D01*
X162191666Y-108514819D02*
X162286904Y-108562438D01*
X162286904Y-108562438D02*
X162334523Y-108610057D01*
X162334523Y-108610057D02*
X162382142Y-108705295D01*
X162382142Y-108705295D02*
X162382142Y-108848152D01*
X162382142Y-108848152D02*
X162334523Y-108943390D01*
X162334523Y-108943390D02*
X162286904Y-108991009D01*
X162286904Y-108991009D02*
X162191666Y-109038628D01*
X162191666Y-109038628D02*
X161810714Y-109038628D01*
X163334523Y-109514819D02*
X162763095Y-109514819D01*
X163048809Y-109514819D02*
X163048809Y-108514819D01*
X163048809Y-108514819D02*
X162953571Y-108657676D01*
X162953571Y-108657676D02*
X162858333Y-108752914D01*
X162858333Y-108752914D02*
X162763095Y-108800533D01*
X164286904Y-109514819D02*
X163715476Y-109514819D01*
X164001190Y-109514819D02*
X164001190Y-108514819D01*
X164001190Y-108514819D02*
X163905952Y-108657676D01*
X163905952Y-108657676D02*
X163810714Y-108752914D01*
X163810714Y-108752914D02*
X163715476Y-108800533D01*
X149279819Y-148013094D02*
X148279819Y-148013094D01*
X148279819Y-148013094D02*
X148279819Y-147632142D01*
X148279819Y-147632142D02*
X148327438Y-147536904D01*
X148327438Y-147536904D02*
X148375057Y-147489285D01*
X148375057Y-147489285D02*
X148470295Y-147441666D01*
X148470295Y-147441666D02*
X148613152Y-147441666D01*
X148613152Y-147441666D02*
X148708390Y-147489285D01*
X148708390Y-147489285D02*
X148756009Y-147536904D01*
X148756009Y-147536904D02*
X148803628Y-147632142D01*
X148803628Y-147632142D02*
X148803628Y-148013094D01*
X149279819Y-146489285D02*
X149279819Y-147060713D01*
X149279819Y-146774999D02*
X148279819Y-146774999D01*
X148279819Y-146774999D02*
X148422676Y-146870237D01*
X148422676Y-146870237D02*
X148517914Y-146965475D01*
X148517914Y-146965475D02*
X148565533Y-147060713D01*
X137083333Y-129454819D02*
X136607143Y-129454819D01*
X136607143Y-129454819D02*
X136607143Y-128454819D01*
X137940476Y-129454819D02*
X137369048Y-129454819D01*
X137654762Y-129454819D02*
X137654762Y-128454819D01*
X137654762Y-128454819D02*
X137559524Y-128597676D01*
X137559524Y-128597676D02*
X137464286Y-128692914D01*
X137464286Y-128692914D02*
X137369048Y-128740533D01*
X149439819Y-84280357D02*
X148963628Y-84613690D01*
X149439819Y-84851785D02*
X148439819Y-84851785D01*
X148439819Y-84851785D02*
X148439819Y-84470833D01*
X148439819Y-84470833D02*
X148487438Y-84375595D01*
X148487438Y-84375595D02*
X148535057Y-84327976D01*
X148535057Y-84327976D02*
X148630295Y-84280357D01*
X148630295Y-84280357D02*
X148773152Y-84280357D01*
X148773152Y-84280357D02*
X148868390Y-84327976D01*
X148868390Y-84327976D02*
X148916009Y-84375595D01*
X148916009Y-84375595D02*
X148963628Y-84470833D01*
X148963628Y-84470833D02*
X148963628Y-84851785D01*
X149439819Y-83327976D02*
X149439819Y-83899404D01*
X149439819Y-83613690D02*
X148439819Y-83613690D01*
X148439819Y-83613690D02*
X148582676Y-83708928D01*
X148582676Y-83708928D02*
X148677914Y-83804166D01*
X148677914Y-83804166D02*
X148725533Y-83899404D01*
X148439819Y-82994642D02*
X148439819Y-82375595D01*
X148439819Y-82375595D02*
X148820771Y-82708928D01*
X148820771Y-82708928D02*
X148820771Y-82566071D01*
X148820771Y-82566071D02*
X148868390Y-82470833D01*
X148868390Y-82470833D02*
X148916009Y-82423214D01*
X148916009Y-82423214D02*
X149011247Y-82375595D01*
X149011247Y-82375595D02*
X149249342Y-82375595D01*
X149249342Y-82375595D02*
X149344580Y-82423214D01*
X149344580Y-82423214D02*
X149392200Y-82470833D01*
X149392200Y-82470833D02*
X149439819Y-82566071D01*
X149439819Y-82566071D02*
X149439819Y-82851785D01*
X149439819Y-82851785D02*
X149392200Y-82947023D01*
X149392200Y-82947023D02*
X149344580Y-82994642D01*
X134882142Y-112449580D02*
X134834523Y-112497200D01*
X134834523Y-112497200D02*
X134691666Y-112544819D01*
X134691666Y-112544819D02*
X134596428Y-112544819D01*
X134596428Y-112544819D02*
X134453571Y-112497200D01*
X134453571Y-112497200D02*
X134358333Y-112401961D01*
X134358333Y-112401961D02*
X134310714Y-112306723D01*
X134310714Y-112306723D02*
X134263095Y-112116247D01*
X134263095Y-112116247D02*
X134263095Y-111973390D01*
X134263095Y-111973390D02*
X134310714Y-111782914D01*
X134310714Y-111782914D02*
X134358333Y-111687676D01*
X134358333Y-111687676D02*
X134453571Y-111592438D01*
X134453571Y-111592438D02*
X134596428Y-111544819D01*
X134596428Y-111544819D02*
X134691666Y-111544819D01*
X134691666Y-111544819D02*
X134834523Y-111592438D01*
X134834523Y-111592438D02*
X134882142Y-111640057D01*
X135263095Y-111640057D02*
X135310714Y-111592438D01*
X135310714Y-111592438D02*
X135405952Y-111544819D01*
X135405952Y-111544819D02*
X135644047Y-111544819D01*
X135644047Y-111544819D02*
X135739285Y-111592438D01*
X135739285Y-111592438D02*
X135786904Y-111640057D01*
X135786904Y-111640057D02*
X135834523Y-111735295D01*
X135834523Y-111735295D02*
X135834523Y-111830533D01*
X135834523Y-111830533D02*
X135786904Y-111973390D01*
X135786904Y-111973390D02*
X135215476Y-112544819D01*
X135215476Y-112544819D02*
X135834523Y-112544819D01*
X136786904Y-112544819D02*
X136215476Y-112544819D01*
X136501190Y-112544819D02*
X136501190Y-111544819D01*
X136501190Y-111544819D02*
X136405952Y-111687676D01*
X136405952Y-111687676D02*
X136310714Y-111782914D01*
X136310714Y-111782914D02*
X136215476Y-111830533D01*
X142792261Y-62925057D02*
X142697023Y-62877438D01*
X142697023Y-62877438D02*
X142601785Y-62782200D01*
X142601785Y-62782200D02*
X142458928Y-62639342D01*
X142458928Y-62639342D02*
X142363690Y-62591723D01*
X142363690Y-62591723D02*
X142268452Y-62591723D01*
X142316071Y-62829819D02*
X142220833Y-62782200D01*
X142220833Y-62782200D02*
X142125595Y-62686961D01*
X142125595Y-62686961D02*
X142077976Y-62496485D01*
X142077976Y-62496485D02*
X142077976Y-62163152D01*
X142077976Y-62163152D02*
X142125595Y-61972676D01*
X142125595Y-61972676D02*
X142220833Y-61877438D01*
X142220833Y-61877438D02*
X142316071Y-61829819D01*
X142316071Y-61829819D02*
X142506547Y-61829819D01*
X142506547Y-61829819D02*
X142601785Y-61877438D01*
X142601785Y-61877438D02*
X142697023Y-61972676D01*
X142697023Y-61972676D02*
X142744642Y-62163152D01*
X142744642Y-62163152D02*
X142744642Y-62496485D01*
X142744642Y-62496485D02*
X142697023Y-62686961D01*
X142697023Y-62686961D02*
X142601785Y-62782200D01*
X142601785Y-62782200D02*
X142506547Y-62829819D01*
X142506547Y-62829819D02*
X142316071Y-62829819D01*
X143125595Y-61925057D02*
X143173214Y-61877438D01*
X143173214Y-61877438D02*
X143268452Y-61829819D01*
X143268452Y-61829819D02*
X143506547Y-61829819D01*
X143506547Y-61829819D02*
X143601785Y-61877438D01*
X143601785Y-61877438D02*
X143649404Y-61925057D01*
X143649404Y-61925057D02*
X143697023Y-62020295D01*
X143697023Y-62020295D02*
X143697023Y-62115533D01*
X143697023Y-62115533D02*
X143649404Y-62258390D01*
X143649404Y-62258390D02*
X143077976Y-62829819D01*
X143077976Y-62829819D02*
X143697023Y-62829819D01*
X136235714Y-117954819D02*
X136235714Y-116954819D01*
X136235714Y-116954819D02*
X136473809Y-116954819D01*
X136473809Y-116954819D02*
X136616666Y-117002438D01*
X136616666Y-117002438D02*
X136711904Y-117097676D01*
X136711904Y-117097676D02*
X136759523Y-117192914D01*
X136759523Y-117192914D02*
X136807142Y-117383390D01*
X136807142Y-117383390D02*
X136807142Y-117526247D01*
X136807142Y-117526247D02*
X136759523Y-117716723D01*
X136759523Y-117716723D02*
X136711904Y-117811961D01*
X136711904Y-117811961D02*
X136616666Y-117907200D01*
X136616666Y-117907200D02*
X136473809Y-117954819D01*
X136473809Y-117954819D02*
X136235714Y-117954819D01*
X137759523Y-117954819D02*
X137188095Y-117954819D01*
X137473809Y-117954819D02*
X137473809Y-116954819D01*
X137473809Y-116954819D02*
X137378571Y-117097676D01*
X137378571Y-117097676D02*
X137283333Y-117192914D01*
X137283333Y-117192914D02*
X137188095Y-117240533D01*
X138664285Y-116954819D02*
X138188095Y-116954819D01*
X138188095Y-116954819D02*
X138140476Y-117431009D01*
X138140476Y-117431009D02*
X138188095Y-117383390D01*
X138188095Y-117383390D02*
X138283333Y-117335771D01*
X138283333Y-117335771D02*
X138521428Y-117335771D01*
X138521428Y-117335771D02*
X138616666Y-117383390D01*
X138616666Y-117383390D02*
X138664285Y-117431009D01*
X138664285Y-117431009D02*
X138711904Y-117526247D01*
X138711904Y-117526247D02*
X138711904Y-117764342D01*
X138711904Y-117764342D02*
X138664285Y-117859580D01*
X138664285Y-117859580D02*
X138616666Y-117907200D01*
X138616666Y-117907200D02*
X138521428Y-117954819D01*
X138521428Y-117954819D02*
X138283333Y-117954819D01*
X138283333Y-117954819D02*
X138188095Y-117907200D01*
X138188095Y-117907200D02*
X138140476Y-117859580D01*
X139732142Y-78454580D02*
X139684523Y-78502200D01*
X139684523Y-78502200D02*
X139541666Y-78549819D01*
X139541666Y-78549819D02*
X139446428Y-78549819D01*
X139446428Y-78549819D02*
X139303571Y-78502200D01*
X139303571Y-78502200D02*
X139208333Y-78406961D01*
X139208333Y-78406961D02*
X139160714Y-78311723D01*
X139160714Y-78311723D02*
X139113095Y-78121247D01*
X139113095Y-78121247D02*
X139113095Y-77978390D01*
X139113095Y-77978390D02*
X139160714Y-77787914D01*
X139160714Y-77787914D02*
X139208333Y-77692676D01*
X139208333Y-77692676D02*
X139303571Y-77597438D01*
X139303571Y-77597438D02*
X139446428Y-77549819D01*
X139446428Y-77549819D02*
X139541666Y-77549819D01*
X139541666Y-77549819D02*
X139684523Y-77597438D01*
X139684523Y-77597438D02*
X139732142Y-77645057D01*
X140684523Y-78549819D02*
X140113095Y-78549819D01*
X140398809Y-78549819D02*
X140398809Y-77549819D01*
X140398809Y-77549819D02*
X140303571Y-77692676D01*
X140303571Y-77692676D02*
X140208333Y-77787914D01*
X140208333Y-77787914D02*
X140113095Y-77835533D01*
X141255952Y-77978390D02*
X141160714Y-77930771D01*
X141160714Y-77930771D02*
X141113095Y-77883152D01*
X141113095Y-77883152D02*
X141065476Y-77787914D01*
X141065476Y-77787914D02*
X141065476Y-77740295D01*
X141065476Y-77740295D02*
X141113095Y-77645057D01*
X141113095Y-77645057D02*
X141160714Y-77597438D01*
X141160714Y-77597438D02*
X141255952Y-77549819D01*
X141255952Y-77549819D02*
X141446428Y-77549819D01*
X141446428Y-77549819D02*
X141541666Y-77597438D01*
X141541666Y-77597438D02*
X141589285Y-77645057D01*
X141589285Y-77645057D02*
X141636904Y-77740295D01*
X141636904Y-77740295D02*
X141636904Y-77787914D01*
X141636904Y-77787914D02*
X141589285Y-77883152D01*
X141589285Y-77883152D02*
X141541666Y-77930771D01*
X141541666Y-77930771D02*
X141446428Y-77978390D01*
X141446428Y-77978390D02*
X141255952Y-77978390D01*
X141255952Y-77978390D02*
X141160714Y-78026009D01*
X141160714Y-78026009D02*
X141113095Y-78073628D01*
X141113095Y-78073628D02*
X141065476Y-78168866D01*
X141065476Y-78168866D02*
X141065476Y-78359342D01*
X141065476Y-78359342D02*
X141113095Y-78454580D01*
X141113095Y-78454580D02*
X141160714Y-78502200D01*
X141160714Y-78502200D02*
X141255952Y-78549819D01*
X141255952Y-78549819D02*
X141446428Y-78549819D01*
X141446428Y-78549819D02*
X141541666Y-78502200D01*
X141541666Y-78502200D02*
X141589285Y-78454580D01*
X141589285Y-78454580D02*
X141636904Y-78359342D01*
X141636904Y-78359342D02*
X141636904Y-78168866D01*
X141636904Y-78168866D02*
X141589285Y-78073628D01*
X141589285Y-78073628D02*
X141541666Y-78026009D01*
X141541666Y-78026009D02*
X141446428Y-77978390D01*
X133829819Y-95148094D02*
X132829819Y-95148094D01*
X132829819Y-95148094D02*
X132829819Y-94909999D01*
X132829819Y-94909999D02*
X132877438Y-94767142D01*
X132877438Y-94767142D02*
X132972676Y-94671904D01*
X132972676Y-94671904D02*
X133067914Y-94624285D01*
X133067914Y-94624285D02*
X133258390Y-94576666D01*
X133258390Y-94576666D02*
X133401247Y-94576666D01*
X133401247Y-94576666D02*
X133591723Y-94624285D01*
X133591723Y-94624285D02*
X133686961Y-94671904D01*
X133686961Y-94671904D02*
X133782200Y-94767142D01*
X133782200Y-94767142D02*
X133829819Y-94909999D01*
X133829819Y-94909999D02*
X133829819Y-95148094D01*
X133829819Y-93624285D02*
X133829819Y-94195713D01*
X133829819Y-93909999D02*
X132829819Y-93909999D01*
X132829819Y-93909999D02*
X132972676Y-94005237D01*
X132972676Y-94005237D02*
X133067914Y-94100475D01*
X133067914Y-94100475D02*
X133115533Y-94195713D01*
X134604819Y-120642857D02*
X134128628Y-120976190D01*
X134604819Y-121214285D02*
X133604819Y-121214285D01*
X133604819Y-121214285D02*
X133604819Y-120833333D01*
X133604819Y-120833333D02*
X133652438Y-120738095D01*
X133652438Y-120738095D02*
X133700057Y-120690476D01*
X133700057Y-120690476D02*
X133795295Y-120642857D01*
X133795295Y-120642857D02*
X133938152Y-120642857D01*
X133938152Y-120642857D02*
X134033390Y-120690476D01*
X134033390Y-120690476D02*
X134081009Y-120738095D01*
X134081009Y-120738095D02*
X134128628Y-120833333D01*
X134128628Y-120833333D02*
X134128628Y-121214285D01*
X133700057Y-120261904D02*
X133652438Y-120214285D01*
X133652438Y-120214285D02*
X133604819Y-120119047D01*
X133604819Y-120119047D02*
X133604819Y-119880952D01*
X133604819Y-119880952D02*
X133652438Y-119785714D01*
X133652438Y-119785714D02*
X133700057Y-119738095D01*
X133700057Y-119738095D02*
X133795295Y-119690476D01*
X133795295Y-119690476D02*
X133890533Y-119690476D01*
X133890533Y-119690476D02*
X134033390Y-119738095D01*
X134033390Y-119738095D02*
X134604819Y-120309523D01*
X134604819Y-120309523D02*
X134604819Y-119690476D01*
X134604819Y-118738095D02*
X134604819Y-119309523D01*
X134604819Y-119023809D02*
X133604819Y-119023809D01*
X133604819Y-119023809D02*
X133747676Y-119119047D01*
X133747676Y-119119047D02*
X133842914Y-119214285D01*
X133842914Y-119214285D02*
X133890533Y-119309523D01*
X127829819Y-103148094D02*
X126829819Y-103148094D01*
X126829819Y-103148094D02*
X126829819Y-102909999D01*
X126829819Y-102909999D02*
X126877438Y-102767142D01*
X126877438Y-102767142D02*
X126972676Y-102671904D01*
X126972676Y-102671904D02*
X127067914Y-102624285D01*
X127067914Y-102624285D02*
X127258390Y-102576666D01*
X127258390Y-102576666D02*
X127401247Y-102576666D01*
X127401247Y-102576666D02*
X127591723Y-102624285D01*
X127591723Y-102624285D02*
X127686961Y-102671904D01*
X127686961Y-102671904D02*
X127782200Y-102767142D01*
X127782200Y-102767142D02*
X127829819Y-102909999D01*
X127829819Y-102909999D02*
X127829819Y-103148094D01*
X126829819Y-102243332D02*
X126829819Y-101624285D01*
X126829819Y-101624285D02*
X127210771Y-101957618D01*
X127210771Y-101957618D02*
X127210771Y-101814761D01*
X127210771Y-101814761D02*
X127258390Y-101719523D01*
X127258390Y-101719523D02*
X127306009Y-101671904D01*
X127306009Y-101671904D02*
X127401247Y-101624285D01*
X127401247Y-101624285D02*
X127639342Y-101624285D01*
X127639342Y-101624285D02*
X127734580Y-101671904D01*
X127734580Y-101671904D02*
X127782200Y-101719523D01*
X127782200Y-101719523D02*
X127829819Y-101814761D01*
X127829819Y-101814761D02*
X127829819Y-102100475D01*
X127829819Y-102100475D02*
X127782200Y-102195713D01*
X127782200Y-102195713D02*
X127734580Y-102243332D01*
X156658333Y-74814580D02*
X156610714Y-74862200D01*
X156610714Y-74862200D02*
X156467857Y-74909819D01*
X156467857Y-74909819D02*
X156372619Y-74909819D01*
X156372619Y-74909819D02*
X156229762Y-74862200D01*
X156229762Y-74862200D02*
X156134524Y-74766961D01*
X156134524Y-74766961D02*
X156086905Y-74671723D01*
X156086905Y-74671723D02*
X156039286Y-74481247D01*
X156039286Y-74481247D02*
X156039286Y-74338390D01*
X156039286Y-74338390D02*
X156086905Y-74147914D01*
X156086905Y-74147914D02*
X156134524Y-74052676D01*
X156134524Y-74052676D02*
X156229762Y-73957438D01*
X156229762Y-73957438D02*
X156372619Y-73909819D01*
X156372619Y-73909819D02*
X156467857Y-73909819D01*
X156467857Y-73909819D02*
X156610714Y-73957438D01*
X156610714Y-73957438D02*
X156658333Y-74005057D01*
X156991667Y-73909819D02*
X157658333Y-73909819D01*
X157658333Y-73909819D02*
X157229762Y-74909819D01*
X151075057Y-117160238D02*
X151027438Y-117255476D01*
X151027438Y-117255476D02*
X150932200Y-117350714D01*
X150932200Y-117350714D02*
X150789342Y-117493571D01*
X150789342Y-117493571D02*
X150741723Y-117588809D01*
X150741723Y-117588809D02*
X150741723Y-117684047D01*
X150979819Y-117636428D02*
X150932200Y-117731666D01*
X150932200Y-117731666D02*
X150836961Y-117826904D01*
X150836961Y-117826904D02*
X150646485Y-117874523D01*
X150646485Y-117874523D02*
X150313152Y-117874523D01*
X150313152Y-117874523D02*
X150122676Y-117826904D01*
X150122676Y-117826904D02*
X150027438Y-117731666D01*
X150027438Y-117731666D02*
X149979819Y-117636428D01*
X149979819Y-117636428D02*
X149979819Y-117445952D01*
X149979819Y-117445952D02*
X150027438Y-117350714D01*
X150027438Y-117350714D02*
X150122676Y-117255476D01*
X150122676Y-117255476D02*
X150313152Y-117207857D01*
X150313152Y-117207857D02*
X150646485Y-117207857D01*
X150646485Y-117207857D02*
X150836961Y-117255476D01*
X150836961Y-117255476D02*
X150932200Y-117350714D01*
X150932200Y-117350714D02*
X150979819Y-117445952D01*
X150979819Y-117445952D02*
X150979819Y-117636428D01*
X149979819Y-116350714D02*
X149979819Y-116541190D01*
X149979819Y-116541190D02*
X150027438Y-116636428D01*
X150027438Y-116636428D02*
X150075057Y-116684047D01*
X150075057Y-116684047D02*
X150217914Y-116779285D01*
X150217914Y-116779285D02*
X150408390Y-116826904D01*
X150408390Y-116826904D02*
X150789342Y-116826904D01*
X150789342Y-116826904D02*
X150884580Y-116779285D01*
X150884580Y-116779285D02*
X150932200Y-116731666D01*
X150932200Y-116731666D02*
X150979819Y-116636428D01*
X150979819Y-116636428D02*
X150979819Y-116445952D01*
X150979819Y-116445952D02*
X150932200Y-116350714D01*
X150932200Y-116350714D02*
X150884580Y-116303095D01*
X150884580Y-116303095D02*
X150789342Y-116255476D01*
X150789342Y-116255476D02*
X150551247Y-116255476D01*
X150551247Y-116255476D02*
X150456009Y-116303095D01*
X150456009Y-116303095D02*
X150408390Y-116350714D01*
X150408390Y-116350714D02*
X150360771Y-116445952D01*
X150360771Y-116445952D02*
X150360771Y-116636428D01*
X150360771Y-116636428D02*
X150408390Y-116731666D01*
X150408390Y-116731666D02*
X150456009Y-116779285D01*
X150456009Y-116779285D02*
X150551247Y-116826904D01*
X138382142Y-91449580D02*
X138334523Y-91497200D01*
X138334523Y-91497200D02*
X138191666Y-91544819D01*
X138191666Y-91544819D02*
X138096428Y-91544819D01*
X138096428Y-91544819D02*
X137953571Y-91497200D01*
X137953571Y-91497200D02*
X137858333Y-91401961D01*
X137858333Y-91401961D02*
X137810714Y-91306723D01*
X137810714Y-91306723D02*
X137763095Y-91116247D01*
X137763095Y-91116247D02*
X137763095Y-90973390D01*
X137763095Y-90973390D02*
X137810714Y-90782914D01*
X137810714Y-90782914D02*
X137858333Y-90687676D01*
X137858333Y-90687676D02*
X137953571Y-90592438D01*
X137953571Y-90592438D02*
X138096428Y-90544819D01*
X138096428Y-90544819D02*
X138191666Y-90544819D01*
X138191666Y-90544819D02*
X138334523Y-90592438D01*
X138334523Y-90592438D02*
X138382142Y-90640057D01*
X138763095Y-90640057D02*
X138810714Y-90592438D01*
X138810714Y-90592438D02*
X138905952Y-90544819D01*
X138905952Y-90544819D02*
X139144047Y-90544819D01*
X139144047Y-90544819D02*
X139239285Y-90592438D01*
X139239285Y-90592438D02*
X139286904Y-90640057D01*
X139286904Y-90640057D02*
X139334523Y-90735295D01*
X139334523Y-90735295D02*
X139334523Y-90830533D01*
X139334523Y-90830533D02*
X139286904Y-90973390D01*
X139286904Y-90973390D02*
X138715476Y-91544819D01*
X138715476Y-91544819D02*
X139334523Y-91544819D01*
X139667857Y-90544819D02*
X140286904Y-90544819D01*
X140286904Y-90544819D02*
X139953571Y-90925771D01*
X139953571Y-90925771D02*
X140096428Y-90925771D01*
X140096428Y-90925771D02*
X140191666Y-90973390D01*
X140191666Y-90973390D02*
X140239285Y-91021009D01*
X140239285Y-91021009D02*
X140286904Y-91116247D01*
X140286904Y-91116247D02*
X140286904Y-91354342D01*
X140286904Y-91354342D02*
X140239285Y-91449580D01*
X140239285Y-91449580D02*
X140191666Y-91497200D01*
X140191666Y-91497200D02*
X140096428Y-91544819D01*
X140096428Y-91544819D02*
X139810714Y-91544819D01*
X139810714Y-91544819D02*
X139715476Y-91497200D01*
X139715476Y-91497200D02*
X139667857Y-91449580D01*
X134604819Y-117055357D02*
X134128628Y-117388690D01*
X134604819Y-117626785D02*
X133604819Y-117626785D01*
X133604819Y-117626785D02*
X133604819Y-117245833D01*
X133604819Y-117245833D02*
X133652438Y-117150595D01*
X133652438Y-117150595D02*
X133700057Y-117102976D01*
X133700057Y-117102976D02*
X133795295Y-117055357D01*
X133795295Y-117055357D02*
X133938152Y-117055357D01*
X133938152Y-117055357D02*
X134033390Y-117102976D01*
X134033390Y-117102976D02*
X134081009Y-117150595D01*
X134081009Y-117150595D02*
X134128628Y-117245833D01*
X134128628Y-117245833D02*
X134128628Y-117626785D01*
X133700057Y-116674404D02*
X133652438Y-116626785D01*
X133652438Y-116626785D02*
X133604819Y-116531547D01*
X133604819Y-116531547D02*
X133604819Y-116293452D01*
X133604819Y-116293452D02*
X133652438Y-116198214D01*
X133652438Y-116198214D02*
X133700057Y-116150595D01*
X133700057Y-116150595D02*
X133795295Y-116102976D01*
X133795295Y-116102976D02*
X133890533Y-116102976D01*
X133890533Y-116102976D02*
X134033390Y-116150595D01*
X134033390Y-116150595D02*
X134604819Y-116722023D01*
X134604819Y-116722023D02*
X134604819Y-116102976D01*
X133700057Y-115722023D02*
X133652438Y-115674404D01*
X133652438Y-115674404D02*
X133604819Y-115579166D01*
X133604819Y-115579166D02*
X133604819Y-115341071D01*
X133604819Y-115341071D02*
X133652438Y-115245833D01*
X133652438Y-115245833D02*
X133700057Y-115198214D01*
X133700057Y-115198214D02*
X133795295Y-115150595D01*
X133795295Y-115150595D02*
X133890533Y-115150595D01*
X133890533Y-115150595D02*
X134033390Y-115198214D01*
X134033390Y-115198214D02*
X134604819Y-115769642D01*
X134604819Y-115769642D02*
X134604819Y-115150595D01*
X144396009Y-85558333D02*
X144396009Y-85891666D01*
X144919819Y-85891666D02*
X143919819Y-85891666D01*
X143919819Y-85891666D02*
X143919819Y-85415476D01*
X144396009Y-84701190D02*
X144443628Y-84558333D01*
X144443628Y-84558333D02*
X144491247Y-84510714D01*
X144491247Y-84510714D02*
X144586485Y-84463095D01*
X144586485Y-84463095D02*
X144729342Y-84463095D01*
X144729342Y-84463095D02*
X144824580Y-84510714D01*
X144824580Y-84510714D02*
X144872200Y-84558333D01*
X144872200Y-84558333D02*
X144919819Y-84653571D01*
X144919819Y-84653571D02*
X144919819Y-85034523D01*
X144919819Y-85034523D02*
X143919819Y-85034523D01*
X143919819Y-85034523D02*
X143919819Y-84701190D01*
X143919819Y-84701190D02*
X143967438Y-84605952D01*
X143967438Y-84605952D02*
X144015057Y-84558333D01*
X144015057Y-84558333D02*
X144110295Y-84510714D01*
X144110295Y-84510714D02*
X144205533Y-84510714D01*
X144205533Y-84510714D02*
X144300771Y-84558333D01*
X144300771Y-84558333D02*
X144348390Y-84605952D01*
X144348390Y-84605952D02*
X144396009Y-84701190D01*
X144396009Y-84701190D02*
X144396009Y-85034523D01*
X144919819Y-83510714D02*
X144919819Y-84082142D01*
X144919819Y-83796428D02*
X143919819Y-83796428D01*
X143919819Y-83796428D02*
X144062676Y-83891666D01*
X144062676Y-83891666D02*
X144157914Y-83986904D01*
X144157914Y-83986904D02*
X144205533Y-84082142D01*
X152182142Y-111314580D02*
X152134523Y-111362200D01*
X152134523Y-111362200D02*
X151991666Y-111409819D01*
X151991666Y-111409819D02*
X151896428Y-111409819D01*
X151896428Y-111409819D02*
X151753571Y-111362200D01*
X151753571Y-111362200D02*
X151658333Y-111266961D01*
X151658333Y-111266961D02*
X151610714Y-111171723D01*
X151610714Y-111171723D02*
X151563095Y-110981247D01*
X151563095Y-110981247D02*
X151563095Y-110838390D01*
X151563095Y-110838390D02*
X151610714Y-110647914D01*
X151610714Y-110647914D02*
X151658333Y-110552676D01*
X151658333Y-110552676D02*
X151753571Y-110457438D01*
X151753571Y-110457438D02*
X151896428Y-110409819D01*
X151896428Y-110409819D02*
X151991666Y-110409819D01*
X151991666Y-110409819D02*
X152134523Y-110457438D01*
X152134523Y-110457438D02*
X152182142Y-110505057D01*
X152563095Y-110505057D02*
X152610714Y-110457438D01*
X152610714Y-110457438D02*
X152705952Y-110409819D01*
X152705952Y-110409819D02*
X152944047Y-110409819D01*
X152944047Y-110409819D02*
X153039285Y-110457438D01*
X153039285Y-110457438D02*
X153086904Y-110505057D01*
X153086904Y-110505057D02*
X153134523Y-110600295D01*
X153134523Y-110600295D02*
X153134523Y-110695533D01*
X153134523Y-110695533D02*
X153086904Y-110838390D01*
X153086904Y-110838390D02*
X152515476Y-111409819D01*
X152515476Y-111409819D02*
X153134523Y-111409819D01*
X153753571Y-110409819D02*
X153848809Y-110409819D01*
X153848809Y-110409819D02*
X153944047Y-110457438D01*
X153944047Y-110457438D02*
X153991666Y-110505057D01*
X153991666Y-110505057D02*
X154039285Y-110600295D01*
X154039285Y-110600295D02*
X154086904Y-110790771D01*
X154086904Y-110790771D02*
X154086904Y-111028866D01*
X154086904Y-111028866D02*
X154039285Y-111219342D01*
X154039285Y-111219342D02*
X153991666Y-111314580D01*
X153991666Y-111314580D02*
X153944047Y-111362200D01*
X153944047Y-111362200D02*
X153848809Y-111409819D01*
X153848809Y-111409819D02*
X153753571Y-111409819D01*
X153753571Y-111409819D02*
X153658333Y-111362200D01*
X153658333Y-111362200D02*
X153610714Y-111314580D01*
X153610714Y-111314580D02*
X153563095Y-111219342D01*
X153563095Y-111219342D02*
X153515476Y-111028866D01*
X153515476Y-111028866D02*
X153515476Y-110790771D01*
X153515476Y-110790771D02*
X153563095Y-110600295D01*
X153563095Y-110600295D02*
X153610714Y-110505057D01*
X153610714Y-110505057D02*
X153658333Y-110457438D01*
X153658333Y-110457438D02*
X153753571Y-110409819D01*
X158409580Y-124341666D02*
X158457200Y-124389285D01*
X158457200Y-124389285D02*
X158504819Y-124532142D01*
X158504819Y-124532142D02*
X158504819Y-124627380D01*
X158504819Y-124627380D02*
X158457200Y-124770237D01*
X158457200Y-124770237D02*
X158361961Y-124865475D01*
X158361961Y-124865475D02*
X158266723Y-124913094D01*
X158266723Y-124913094D02*
X158076247Y-124960713D01*
X158076247Y-124960713D02*
X157933390Y-124960713D01*
X157933390Y-124960713D02*
X157742914Y-124913094D01*
X157742914Y-124913094D02*
X157647676Y-124865475D01*
X157647676Y-124865475D02*
X157552438Y-124770237D01*
X157552438Y-124770237D02*
X157504819Y-124627380D01*
X157504819Y-124627380D02*
X157504819Y-124532142D01*
X157504819Y-124532142D02*
X157552438Y-124389285D01*
X157552438Y-124389285D02*
X157600057Y-124341666D01*
X158504819Y-123389285D02*
X158504819Y-123960713D01*
X158504819Y-123674999D02*
X157504819Y-123674999D01*
X157504819Y-123674999D02*
X157647676Y-123770237D01*
X157647676Y-123770237D02*
X157742914Y-123865475D01*
X157742914Y-123865475D02*
X157790533Y-123960713D01*
X165554819Y-126300594D02*
X164554819Y-126300594D01*
X164554819Y-126300594D02*
X164554819Y-126062499D01*
X164554819Y-126062499D02*
X164602438Y-125919642D01*
X164602438Y-125919642D02*
X164697676Y-125824404D01*
X164697676Y-125824404D02*
X164792914Y-125776785D01*
X164792914Y-125776785D02*
X164983390Y-125729166D01*
X164983390Y-125729166D02*
X165126247Y-125729166D01*
X165126247Y-125729166D02*
X165316723Y-125776785D01*
X165316723Y-125776785D02*
X165411961Y-125824404D01*
X165411961Y-125824404D02*
X165507200Y-125919642D01*
X165507200Y-125919642D02*
X165554819Y-126062499D01*
X165554819Y-126062499D02*
X165554819Y-126300594D01*
X165554819Y-125252975D02*
X165554819Y-125062499D01*
X165554819Y-125062499D02*
X165507200Y-124967261D01*
X165507200Y-124967261D02*
X165459580Y-124919642D01*
X165459580Y-124919642D02*
X165316723Y-124824404D01*
X165316723Y-124824404D02*
X165126247Y-124776785D01*
X165126247Y-124776785D02*
X164745295Y-124776785D01*
X164745295Y-124776785D02*
X164650057Y-124824404D01*
X164650057Y-124824404D02*
X164602438Y-124872023D01*
X164602438Y-124872023D02*
X164554819Y-124967261D01*
X164554819Y-124967261D02*
X164554819Y-125157737D01*
X164554819Y-125157737D02*
X164602438Y-125252975D01*
X164602438Y-125252975D02*
X164650057Y-125300594D01*
X164650057Y-125300594D02*
X164745295Y-125348213D01*
X164745295Y-125348213D02*
X164983390Y-125348213D01*
X164983390Y-125348213D02*
X165078628Y-125300594D01*
X165078628Y-125300594D02*
X165126247Y-125252975D01*
X165126247Y-125252975D02*
X165173866Y-125157737D01*
X165173866Y-125157737D02*
X165173866Y-124967261D01*
X165173866Y-124967261D02*
X165126247Y-124872023D01*
X165126247Y-124872023D02*
X165078628Y-124824404D01*
X165078628Y-124824404D02*
X164983390Y-124776785D01*
X150488095Y-120304819D02*
X150488095Y-121114342D01*
X150488095Y-121114342D02*
X150535714Y-121209580D01*
X150535714Y-121209580D02*
X150583333Y-121257200D01*
X150583333Y-121257200D02*
X150678571Y-121304819D01*
X150678571Y-121304819D02*
X150869047Y-121304819D01*
X150869047Y-121304819D02*
X150964285Y-121257200D01*
X150964285Y-121257200D02*
X151011904Y-121209580D01*
X151011904Y-121209580D02*
X151059523Y-121114342D01*
X151059523Y-121114342D02*
X151059523Y-120304819D01*
X151964285Y-120304819D02*
X151773809Y-120304819D01*
X151773809Y-120304819D02*
X151678571Y-120352438D01*
X151678571Y-120352438D02*
X151630952Y-120400057D01*
X151630952Y-120400057D02*
X151535714Y-120542914D01*
X151535714Y-120542914D02*
X151488095Y-120733390D01*
X151488095Y-120733390D02*
X151488095Y-121114342D01*
X151488095Y-121114342D02*
X151535714Y-121209580D01*
X151535714Y-121209580D02*
X151583333Y-121257200D01*
X151583333Y-121257200D02*
X151678571Y-121304819D01*
X151678571Y-121304819D02*
X151869047Y-121304819D01*
X151869047Y-121304819D02*
X151964285Y-121257200D01*
X151964285Y-121257200D02*
X152011904Y-121209580D01*
X152011904Y-121209580D02*
X152059523Y-121114342D01*
X152059523Y-121114342D02*
X152059523Y-120876247D01*
X152059523Y-120876247D02*
X152011904Y-120781009D01*
X152011904Y-120781009D02*
X151964285Y-120733390D01*
X151964285Y-120733390D02*
X151869047Y-120685771D01*
X151869047Y-120685771D02*
X151678571Y-120685771D01*
X151678571Y-120685771D02*
X151583333Y-120733390D01*
X151583333Y-120733390D02*
X151535714Y-120781009D01*
X151535714Y-120781009D02*
X151488095Y-120876247D01*
X131904761Y-122300057D02*
X131809523Y-122252438D01*
X131809523Y-122252438D02*
X131714285Y-122157200D01*
X131714285Y-122157200D02*
X131571428Y-122014342D01*
X131571428Y-122014342D02*
X131476190Y-121966723D01*
X131476190Y-121966723D02*
X131380952Y-121966723D01*
X131428571Y-122204819D02*
X131333333Y-122157200D01*
X131333333Y-122157200D02*
X131238095Y-122061961D01*
X131238095Y-122061961D02*
X131190476Y-121871485D01*
X131190476Y-121871485D02*
X131190476Y-121538152D01*
X131190476Y-121538152D02*
X131238095Y-121347676D01*
X131238095Y-121347676D02*
X131333333Y-121252438D01*
X131333333Y-121252438D02*
X131428571Y-121204819D01*
X131428571Y-121204819D02*
X131619047Y-121204819D01*
X131619047Y-121204819D02*
X131714285Y-121252438D01*
X131714285Y-121252438D02*
X131809523Y-121347676D01*
X131809523Y-121347676D02*
X131857142Y-121538152D01*
X131857142Y-121538152D02*
X131857142Y-121871485D01*
X131857142Y-121871485D02*
X131809523Y-122061961D01*
X131809523Y-122061961D02*
X131714285Y-122157200D01*
X131714285Y-122157200D02*
X131619047Y-122204819D01*
X131619047Y-122204819D02*
X131428571Y-122204819D01*
X132190476Y-121204819D02*
X132809523Y-121204819D01*
X132809523Y-121204819D02*
X132476190Y-121585771D01*
X132476190Y-121585771D02*
X132619047Y-121585771D01*
X132619047Y-121585771D02*
X132714285Y-121633390D01*
X132714285Y-121633390D02*
X132761904Y-121681009D01*
X132761904Y-121681009D02*
X132809523Y-121776247D01*
X132809523Y-121776247D02*
X132809523Y-122014342D01*
X132809523Y-122014342D02*
X132761904Y-122109580D01*
X132761904Y-122109580D02*
X132714285Y-122157200D01*
X132714285Y-122157200D02*
X132619047Y-122204819D01*
X132619047Y-122204819D02*
X132333333Y-122204819D01*
X132333333Y-122204819D02*
X132238095Y-122157200D01*
X132238095Y-122157200D02*
X132190476Y-122109580D01*
X159479819Y-95298094D02*
X158479819Y-95298094D01*
X158479819Y-95298094D02*
X158479819Y-95059999D01*
X158479819Y-95059999D02*
X158527438Y-94917142D01*
X158527438Y-94917142D02*
X158622676Y-94821904D01*
X158622676Y-94821904D02*
X158717914Y-94774285D01*
X158717914Y-94774285D02*
X158908390Y-94726666D01*
X158908390Y-94726666D02*
X159051247Y-94726666D01*
X159051247Y-94726666D02*
X159241723Y-94774285D01*
X159241723Y-94774285D02*
X159336961Y-94821904D01*
X159336961Y-94821904D02*
X159432200Y-94917142D01*
X159432200Y-94917142D02*
X159479819Y-95059999D01*
X159479819Y-95059999D02*
X159479819Y-95298094D01*
X158908390Y-94155237D02*
X158860771Y-94250475D01*
X158860771Y-94250475D02*
X158813152Y-94298094D01*
X158813152Y-94298094D02*
X158717914Y-94345713D01*
X158717914Y-94345713D02*
X158670295Y-94345713D01*
X158670295Y-94345713D02*
X158575057Y-94298094D01*
X158575057Y-94298094D02*
X158527438Y-94250475D01*
X158527438Y-94250475D02*
X158479819Y-94155237D01*
X158479819Y-94155237D02*
X158479819Y-93964761D01*
X158479819Y-93964761D02*
X158527438Y-93869523D01*
X158527438Y-93869523D02*
X158575057Y-93821904D01*
X158575057Y-93821904D02*
X158670295Y-93774285D01*
X158670295Y-93774285D02*
X158717914Y-93774285D01*
X158717914Y-93774285D02*
X158813152Y-93821904D01*
X158813152Y-93821904D02*
X158860771Y-93869523D01*
X158860771Y-93869523D02*
X158908390Y-93964761D01*
X158908390Y-93964761D02*
X158908390Y-94155237D01*
X158908390Y-94155237D02*
X158956009Y-94250475D01*
X158956009Y-94250475D02*
X159003628Y-94298094D01*
X159003628Y-94298094D02*
X159098866Y-94345713D01*
X159098866Y-94345713D02*
X159289342Y-94345713D01*
X159289342Y-94345713D02*
X159384580Y-94298094D01*
X159384580Y-94298094D02*
X159432200Y-94250475D01*
X159432200Y-94250475D02*
X159479819Y-94155237D01*
X159479819Y-94155237D02*
X159479819Y-93964761D01*
X159479819Y-93964761D02*
X159432200Y-93869523D01*
X159432200Y-93869523D02*
X159384580Y-93821904D01*
X159384580Y-93821904D02*
X159289342Y-93774285D01*
X159289342Y-93774285D02*
X159098866Y-93774285D01*
X159098866Y-93774285D02*
X159003628Y-93821904D01*
X159003628Y-93821904D02*
X158956009Y-93869523D01*
X158956009Y-93869523D02*
X158908390Y-93964761D01*
X161133333Y-128679580D02*
X161085714Y-128727200D01*
X161085714Y-128727200D02*
X160942857Y-128774819D01*
X160942857Y-128774819D02*
X160847619Y-128774819D01*
X160847619Y-128774819D02*
X160704762Y-128727200D01*
X160704762Y-128727200D02*
X160609524Y-128631961D01*
X160609524Y-128631961D02*
X160561905Y-128536723D01*
X160561905Y-128536723D02*
X160514286Y-128346247D01*
X160514286Y-128346247D02*
X160514286Y-128203390D01*
X160514286Y-128203390D02*
X160561905Y-128012914D01*
X160561905Y-128012914D02*
X160609524Y-127917676D01*
X160609524Y-127917676D02*
X160704762Y-127822438D01*
X160704762Y-127822438D02*
X160847619Y-127774819D01*
X160847619Y-127774819D02*
X160942857Y-127774819D01*
X160942857Y-127774819D02*
X161085714Y-127822438D01*
X161085714Y-127822438D02*
X161133333Y-127870057D01*
X161704762Y-128203390D02*
X161609524Y-128155771D01*
X161609524Y-128155771D02*
X161561905Y-128108152D01*
X161561905Y-128108152D02*
X161514286Y-128012914D01*
X161514286Y-128012914D02*
X161514286Y-127965295D01*
X161514286Y-127965295D02*
X161561905Y-127870057D01*
X161561905Y-127870057D02*
X161609524Y-127822438D01*
X161609524Y-127822438D02*
X161704762Y-127774819D01*
X161704762Y-127774819D02*
X161895238Y-127774819D01*
X161895238Y-127774819D02*
X161990476Y-127822438D01*
X161990476Y-127822438D02*
X162038095Y-127870057D01*
X162038095Y-127870057D02*
X162085714Y-127965295D01*
X162085714Y-127965295D02*
X162085714Y-128012914D01*
X162085714Y-128012914D02*
X162038095Y-128108152D01*
X162038095Y-128108152D02*
X161990476Y-128155771D01*
X161990476Y-128155771D02*
X161895238Y-128203390D01*
X161895238Y-128203390D02*
X161704762Y-128203390D01*
X161704762Y-128203390D02*
X161609524Y-128251009D01*
X161609524Y-128251009D02*
X161561905Y-128298628D01*
X161561905Y-128298628D02*
X161514286Y-128393866D01*
X161514286Y-128393866D02*
X161514286Y-128584342D01*
X161514286Y-128584342D02*
X161561905Y-128679580D01*
X161561905Y-128679580D02*
X161609524Y-128727200D01*
X161609524Y-128727200D02*
X161704762Y-128774819D01*
X161704762Y-128774819D02*
X161895238Y-128774819D01*
X161895238Y-128774819D02*
X161990476Y-128727200D01*
X161990476Y-128727200D02*
X162038095Y-128679580D01*
X162038095Y-128679580D02*
X162085714Y-128584342D01*
X162085714Y-128584342D02*
X162085714Y-128393866D01*
X162085714Y-128393866D02*
X162038095Y-128298628D01*
X162038095Y-128298628D02*
X161990476Y-128251009D01*
X161990476Y-128251009D02*
X161895238Y-128203390D01*
X158769642Y-68879819D02*
X158436309Y-68403628D01*
X158198214Y-68879819D02*
X158198214Y-67879819D01*
X158198214Y-67879819D02*
X158579166Y-67879819D01*
X158579166Y-67879819D02*
X158674404Y-67927438D01*
X158674404Y-67927438D02*
X158722023Y-67975057D01*
X158722023Y-67975057D02*
X158769642Y-68070295D01*
X158769642Y-68070295D02*
X158769642Y-68213152D01*
X158769642Y-68213152D02*
X158722023Y-68308390D01*
X158722023Y-68308390D02*
X158674404Y-68356009D01*
X158674404Y-68356009D02*
X158579166Y-68403628D01*
X158579166Y-68403628D02*
X158198214Y-68403628D01*
X159722023Y-68879819D02*
X159150595Y-68879819D01*
X159436309Y-68879819D02*
X159436309Y-67879819D01*
X159436309Y-67879819D02*
X159341071Y-68022676D01*
X159341071Y-68022676D02*
X159245833Y-68117914D01*
X159245833Y-68117914D02*
X159150595Y-68165533D01*
X160341071Y-67879819D02*
X160436309Y-67879819D01*
X160436309Y-67879819D02*
X160531547Y-67927438D01*
X160531547Y-67927438D02*
X160579166Y-67975057D01*
X160579166Y-67975057D02*
X160626785Y-68070295D01*
X160626785Y-68070295D02*
X160674404Y-68260771D01*
X160674404Y-68260771D02*
X160674404Y-68498866D01*
X160674404Y-68498866D02*
X160626785Y-68689342D01*
X160626785Y-68689342D02*
X160579166Y-68784580D01*
X160579166Y-68784580D02*
X160531547Y-68832200D01*
X160531547Y-68832200D02*
X160436309Y-68879819D01*
X160436309Y-68879819D02*
X160341071Y-68879819D01*
X160341071Y-68879819D02*
X160245833Y-68832200D01*
X160245833Y-68832200D02*
X160198214Y-68784580D01*
X160198214Y-68784580D02*
X160150595Y-68689342D01*
X160150595Y-68689342D02*
X160102976Y-68498866D01*
X160102976Y-68498866D02*
X160102976Y-68260771D01*
X160102976Y-68260771D02*
X160150595Y-68070295D01*
X160150595Y-68070295D02*
X160198214Y-67975057D01*
X160198214Y-67975057D02*
X160245833Y-67927438D01*
X160245833Y-67927438D02*
X160341071Y-67879819D01*
X143682142Y-78454580D02*
X143634523Y-78502200D01*
X143634523Y-78502200D02*
X143491666Y-78549819D01*
X143491666Y-78549819D02*
X143396428Y-78549819D01*
X143396428Y-78549819D02*
X143253571Y-78502200D01*
X143253571Y-78502200D02*
X143158333Y-78406961D01*
X143158333Y-78406961D02*
X143110714Y-78311723D01*
X143110714Y-78311723D02*
X143063095Y-78121247D01*
X143063095Y-78121247D02*
X143063095Y-77978390D01*
X143063095Y-77978390D02*
X143110714Y-77787914D01*
X143110714Y-77787914D02*
X143158333Y-77692676D01*
X143158333Y-77692676D02*
X143253571Y-77597438D01*
X143253571Y-77597438D02*
X143396428Y-77549819D01*
X143396428Y-77549819D02*
X143491666Y-77549819D01*
X143491666Y-77549819D02*
X143634523Y-77597438D01*
X143634523Y-77597438D02*
X143682142Y-77645057D01*
X144634523Y-78549819D02*
X144063095Y-78549819D01*
X144348809Y-78549819D02*
X144348809Y-77549819D01*
X144348809Y-77549819D02*
X144253571Y-77692676D01*
X144253571Y-77692676D02*
X144158333Y-77787914D01*
X144158333Y-77787914D02*
X144063095Y-77835533D01*
X144967857Y-77549819D02*
X145634523Y-77549819D01*
X145634523Y-77549819D02*
X145205952Y-78549819D01*
X140554580Y-43317857D02*
X140602200Y-43365476D01*
X140602200Y-43365476D02*
X140649819Y-43508333D01*
X140649819Y-43508333D02*
X140649819Y-43603571D01*
X140649819Y-43603571D02*
X140602200Y-43746428D01*
X140602200Y-43746428D02*
X140506961Y-43841666D01*
X140506961Y-43841666D02*
X140411723Y-43889285D01*
X140411723Y-43889285D02*
X140221247Y-43936904D01*
X140221247Y-43936904D02*
X140078390Y-43936904D01*
X140078390Y-43936904D02*
X139887914Y-43889285D01*
X139887914Y-43889285D02*
X139792676Y-43841666D01*
X139792676Y-43841666D02*
X139697438Y-43746428D01*
X139697438Y-43746428D02*
X139649819Y-43603571D01*
X139649819Y-43603571D02*
X139649819Y-43508333D01*
X139649819Y-43508333D02*
X139697438Y-43365476D01*
X139697438Y-43365476D02*
X139745057Y-43317857D01*
X140649819Y-42365476D02*
X140649819Y-42936904D01*
X140649819Y-42651190D02*
X139649819Y-42651190D01*
X139649819Y-42651190D02*
X139792676Y-42746428D01*
X139792676Y-42746428D02*
X139887914Y-42841666D01*
X139887914Y-42841666D02*
X139935533Y-42936904D01*
X139649819Y-41460714D02*
X139649819Y-41936904D01*
X139649819Y-41936904D02*
X140126009Y-41984523D01*
X140126009Y-41984523D02*
X140078390Y-41936904D01*
X140078390Y-41936904D02*
X140030771Y-41841666D01*
X140030771Y-41841666D02*
X140030771Y-41603571D01*
X140030771Y-41603571D02*
X140078390Y-41508333D01*
X140078390Y-41508333D02*
X140126009Y-41460714D01*
X140126009Y-41460714D02*
X140221247Y-41413095D01*
X140221247Y-41413095D02*
X140459342Y-41413095D01*
X140459342Y-41413095D02*
X140554580Y-41460714D01*
X140554580Y-41460714D02*
X140602200Y-41508333D01*
X140602200Y-41508333D02*
X140649819Y-41603571D01*
X140649819Y-41603571D02*
X140649819Y-41841666D01*
X140649819Y-41841666D02*
X140602200Y-41936904D01*
X140602200Y-41936904D02*
X140554580Y-41984523D01*
X144114968Y-88952908D02*
X144114968Y-89762923D01*
X144114968Y-89762923D02*
X144162616Y-89858219D01*
X144162616Y-89858219D02*
X144210264Y-89905867D01*
X144210264Y-89905867D02*
X144305560Y-89953514D01*
X144305560Y-89953514D02*
X144496151Y-89953514D01*
X144496151Y-89953514D02*
X144591447Y-89905867D01*
X144591447Y-89905867D02*
X144639095Y-89858219D01*
X144639095Y-89858219D02*
X144686743Y-89762923D01*
X144686743Y-89762923D02*
X144686743Y-88952908D01*
X145115574Y-89048204D02*
X145163222Y-89000556D01*
X145163222Y-89000556D02*
X145258518Y-88952908D01*
X145258518Y-88952908D02*
X145496757Y-88952908D01*
X145496757Y-88952908D02*
X145592053Y-89000556D01*
X145592053Y-89000556D02*
X145639701Y-89048204D01*
X145639701Y-89048204D02*
X145687349Y-89143500D01*
X145687349Y-89143500D02*
X145687349Y-89238796D01*
X145687349Y-89238796D02*
X145639701Y-89381740D01*
X145639701Y-89381740D02*
X145067926Y-89953514D01*
X145067926Y-89953514D02*
X145687349Y-89953514D01*
X159479819Y-103298094D02*
X158479819Y-103298094D01*
X158479819Y-103298094D02*
X158479819Y-103059999D01*
X158479819Y-103059999D02*
X158527438Y-102917142D01*
X158527438Y-102917142D02*
X158622676Y-102821904D01*
X158622676Y-102821904D02*
X158717914Y-102774285D01*
X158717914Y-102774285D02*
X158908390Y-102726666D01*
X158908390Y-102726666D02*
X159051247Y-102726666D01*
X159051247Y-102726666D02*
X159241723Y-102774285D01*
X159241723Y-102774285D02*
X159336961Y-102821904D01*
X159336961Y-102821904D02*
X159432200Y-102917142D01*
X159432200Y-102917142D02*
X159479819Y-103059999D01*
X159479819Y-103059999D02*
X159479819Y-103298094D01*
X158479819Y-102393332D02*
X158479819Y-101726666D01*
X158479819Y-101726666D02*
X159479819Y-102155237D01*
X165479819Y-103298094D02*
X164479819Y-103298094D01*
X164479819Y-103298094D02*
X164479819Y-103059999D01*
X164479819Y-103059999D02*
X164527438Y-102917142D01*
X164527438Y-102917142D02*
X164622676Y-102821904D01*
X164622676Y-102821904D02*
X164717914Y-102774285D01*
X164717914Y-102774285D02*
X164908390Y-102726666D01*
X164908390Y-102726666D02*
X165051247Y-102726666D01*
X165051247Y-102726666D02*
X165241723Y-102774285D01*
X165241723Y-102774285D02*
X165336961Y-102821904D01*
X165336961Y-102821904D02*
X165432200Y-102917142D01*
X165432200Y-102917142D02*
X165479819Y-103059999D01*
X165479819Y-103059999D02*
X165479819Y-103298094D01*
X164479819Y-101821904D02*
X164479819Y-102298094D01*
X164479819Y-102298094D02*
X164956009Y-102345713D01*
X164956009Y-102345713D02*
X164908390Y-102298094D01*
X164908390Y-102298094D02*
X164860771Y-102202856D01*
X164860771Y-102202856D02*
X164860771Y-101964761D01*
X164860771Y-101964761D02*
X164908390Y-101869523D01*
X164908390Y-101869523D02*
X164956009Y-101821904D01*
X164956009Y-101821904D02*
X165051247Y-101774285D01*
X165051247Y-101774285D02*
X165289342Y-101774285D01*
X165289342Y-101774285D02*
X165384580Y-101821904D01*
X165384580Y-101821904D02*
X165432200Y-101869523D01*
X165432200Y-101869523D02*
X165479819Y-101964761D01*
X165479819Y-101964761D02*
X165479819Y-102202856D01*
X165479819Y-102202856D02*
X165432200Y-102298094D01*
X165432200Y-102298094D02*
X165384580Y-102345713D01*
X138054580Y-43317857D02*
X138102200Y-43365476D01*
X138102200Y-43365476D02*
X138149819Y-43508333D01*
X138149819Y-43508333D02*
X138149819Y-43603571D01*
X138149819Y-43603571D02*
X138102200Y-43746428D01*
X138102200Y-43746428D02*
X138006961Y-43841666D01*
X138006961Y-43841666D02*
X137911723Y-43889285D01*
X137911723Y-43889285D02*
X137721247Y-43936904D01*
X137721247Y-43936904D02*
X137578390Y-43936904D01*
X137578390Y-43936904D02*
X137387914Y-43889285D01*
X137387914Y-43889285D02*
X137292676Y-43841666D01*
X137292676Y-43841666D02*
X137197438Y-43746428D01*
X137197438Y-43746428D02*
X137149819Y-43603571D01*
X137149819Y-43603571D02*
X137149819Y-43508333D01*
X137149819Y-43508333D02*
X137197438Y-43365476D01*
X137197438Y-43365476D02*
X137245057Y-43317857D01*
X138149819Y-42365476D02*
X138149819Y-42936904D01*
X138149819Y-42651190D02*
X137149819Y-42651190D01*
X137149819Y-42651190D02*
X137292676Y-42746428D01*
X137292676Y-42746428D02*
X137387914Y-42841666D01*
X137387914Y-42841666D02*
X137435533Y-42936904D01*
X137149819Y-41508333D02*
X137149819Y-41698809D01*
X137149819Y-41698809D02*
X137197438Y-41794047D01*
X137197438Y-41794047D02*
X137245057Y-41841666D01*
X137245057Y-41841666D02*
X137387914Y-41936904D01*
X137387914Y-41936904D02*
X137578390Y-41984523D01*
X137578390Y-41984523D02*
X137959342Y-41984523D01*
X137959342Y-41984523D02*
X138054580Y-41936904D01*
X138054580Y-41936904D02*
X138102200Y-41889285D01*
X138102200Y-41889285D02*
X138149819Y-41794047D01*
X138149819Y-41794047D02*
X138149819Y-41603571D01*
X138149819Y-41603571D02*
X138102200Y-41508333D01*
X138102200Y-41508333D02*
X138054580Y-41460714D01*
X138054580Y-41460714D02*
X137959342Y-41413095D01*
X137959342Y-41413095D02*
X137721247Y-41413095D01*
X137721247Y-41413095D02*
X137626009Y-41460714D01*
X137626009Y-41460714D02*
X137578390Y-41508333D01*
X137578390Y-41508333D02*
X137530771Y-41603571D01*
X137530771Y-41603571D02*
X137530771Y-41794047D01*
X137530771Y-41794047D02*
X137578390Y-41889285D01*
X137578390Y-41889285D02*
X137626009Y-41936904D01*
X137626009Y-41936904D02*
X137721247Y-41984523D01*
X152292261Y-66675057D02*
X152197023Y-66627438D01*
X152197023Y-66627438D02*
X152101785Y-66532200D01*
X152101785Y-66532200D02*
X151958928Y-66389342D01*
X151958928Y-66389342D02*
X151863690Y-66341723D01*
X151863690Y-66341723D02*
X151768452Y-66341723D01*
X151816071Y-66579819D02*
X151720833Y-66532200D01*
X151720833Y-66532200D02*
X151625595Y-66436961D01*
X151625595Y-66436961D02*
X151577976Y-66246485D01*
X151577976Y-66246485D02*
X151577976Y-65913152D01*
X151577976Y-65913152D02*
X151625595Y-65722676D01*
X151625595Y-65722676D02*
X151720833Y-65627438D01*
X151720833Y-65627438D02*
X151816071Y-65579819D01*
X151816071Y-65579819D02*
X152006547Y-65579819D01*
X152006547Y-65579819D02*
X152101785Y-65627438D01*
X152101785Y-65627438D02*
X152197023Y-65722676D01*
X152197023Y-65722676D02*
X152244642Y-65913152D01*
X152244642Y-65913152D02*
X152244642Y-66246485D01*
X152244642Y-66246485D02*
X152197023Y-66436961D01*
X152197023Y-66436961D02*
X152101785Y-66532200D01*
X152101785Y-66532200D02*
X152006547Y-66579819D01*
X152006547Y-66579819D02*
X151816071Y-66579819D01*
X153197023Y-66579819D02*
X152625595Y-66579819D01*
X152911309Y-66579819D02*
X152911309Y-65579819D01*
X152911309Y-65579819D02*
X152816071Y-65722676D01*
X152816071Y-65722676D02*
X152720833Y-65817914D01*
X152720833Y-65817914D02*
X152625595Y-65865533D01*
X127829819Y-95148094D02*
X126829819Y-95148094D01*
X126829819Y-95148094D02*
X126829819Y-94909999D01*
X126829819Y-94909999D02*
X126877438Y-94767142D01*
X126877438Y-94767142D02*
X126972676Y-94671904D01*
X126972676Y-94671904D02*
X127067914Y-94624285D01*
X127067914Y-94624285D02*
X127258390Y-94576666D01*
X127258390Y-94576666D02*
X127401247Y-94576666D01*
X127401247Y-94576666D02*
X127591723Y-94624285D01*
X127591723Y-94624285D02*
X127686961Y-94671904D01*
X127686961Y-94671904D02*
X127782200Y-94767142D01*
X127782200Y-94767142D02*
X127829819Y-94909999D01*
X127829819Y-94909999D02*
X127829819Y-95148094D01*
X126925057Y-94195713D02*
X126877438Y-94148094D01*
X126877438Y-94148094D02*
X126829819Y-94052856D01*
X126829819Y-94052856D02*
X126829819Y-93814761D01*
X126829819Y-93814761D02*
X126877438Y-93719523D01*
X126877438Y-93719523D02*
X126925057Y-93671904D01*
X126925057Y-93671904D02*
X127020295Y-93624285D01*
X127020295Y-93624285D02*
X127115533Y-93624285D01*
X127115533Y-93624285D02*
X127258390Y-93671904D01*
X127258390Y-93671904D02*
X127829819Y-94243332D01*
X127829819Y-94243332D02*
X127829819Y-93624285D01*
X141674580Y-71891666D02*
X141722200Y-71939285D01*
X141722200Y-71939285D02*
X141769819Y-72082142D01*
X141769819Y-72082142D02*
X141769819Y-72177380D01*
X141769819Y-72177380D02*
X141722200Y-72320237D01*
X141722200Y-72320237D02*
X141626961Y-72415475D01*
X141626961Y-72415475D02*
X141531723Y-72463094D01*
X141531723Y-72463094D02*
X141341247Y-72510713D01*
X141341247Y-72510713D02*
X141198390Y-72510713D01*
X141198390Y-72510713D02*
X141007914Y-72463094D01*
X141007914Y-72463094D02*
X140912676Y-72415475D01*
X140912676Y-72415475D02*
X140817438Y-72320237D01*
X140817438Y-72320237D02*
X140769819Y-72177380D01*
X140769819Y-72177380D02*
X140769819Y-72082142D01*
X140769819Y-72082142D02*
X140817438Y-71939285D01*
X140817438Y-71939285D02*
X140865057Y-71891666D01*
X140865057Y-71510713D02*
X140817438Y-71463094D01*
X140817438Y-71463094D02*
X140769819Y-71367856D01*
X140769819Y-71367856D02*
X140769819Y-71129761D01*
X140769819Y-71129761D02*
X140817438Y-71034523D01*
X140817438Y-71034523D02*
X140865057Y-70986904D01*
X140865057Y-70986904D02*
X140960295Y-70939285D01*
X140960295Y-70939285D02*
X141055533Y-70939285D01*
X141055533Y-70939285D02*
X141198390Y-70986904D01*
X141198390Y-70986904D02*
X141769819Y-71558332D01*
X141769819Y-71558332D02*
X141769819Y-70939285D01*
X136235714Y-121304819D02*
X136235714Y-120304819D01*
X136235714Y-120304819D02*
X136473809Y-120304819D01*
X136473809Y-120304819D02*
X136616666Y-120352438D01*
X136616666Y-120352438D02*
X136711904Y-120447676D01*
X136711904Y-120447676D02*
X136759523Y-120542914D01*
X136759523Y-120542914D02*
X136807142Y-120733390D01*
X136807142Y-120733390D02*
X136807142Y-120876247D01*
X136807142Y-120876247D02*
X136759523Y-121066723D01*
X136759523Y-121066723D02*
X136711904Y-121161961D01*
X136711904Y-121161961D02*
X136616666Y-121257200D01*
X136616666Y-121257200D02*
X136473809Y-121304819D01*
X136473809Y-121304819D02*
X136235714Y-121304819D01*
X137759523Y-121304819D02*
X137188095Y-121304819D01*
X137473809Y-121304819D02*
X137473809Y-120304819D01*
X137473809Y-120304819D02*
X137378571Y-120447676D01*
X137378571Y-120447676D02*
X137283333Y-120542914D01*
X137283333Y-120542914D02*
X137188095Y-120590533D01*
X138616666Y-120638152D02*
X138616666Y-121304819D01*
X138378571Y-120257200D02*
X138140476Y-120971485D01*
X138140476Y-120971485D02*
X138759523Y-120971485D01*
X134969642Y-106714819D02*
X134636309Y-106238628D01*
X134398214Y-106714819D02*
X134398214Y-105714819D01*
X134398214Y-105714819D02*
X134779166Y-105714819D01*
X134779166Y-105714819D02*
X134874404Y-105762438D01*
X134874404Y-105762438D02*
X134922023Y-105810057D01*
X134922023Y-105810057D02*
X134969642Y-105905295D01*
X134969642Y-105905295D02*
X134969642Y-106048152D01*
X134969642Y-106048152D02*
X134922023Y-106143390D01*
X134922023Y-106143390D02*
X134874404Y-106191009D01*
X134874404Y-106191009D02*
X134779166Y-106238628D01*
X134779166Y-106238628D02*
X134398214Y-106238628D01*
X135922023Y-106714819D02*
X135350595Y-106714819D01*
X135636309Y-106714819D02*
X135636309Y-105714819D01*
X135636309Y-105714819D02*
X135541071Y-105857676D01*
X135541071Y-105857676D02*
X135445833Y-105952914D01*
X135445833Y-105952914D02*
X135350595Y-106000533D01*
X136779166Y-106048152D02*
X136779166Y-106714819D01*
X136541071Y-105667200D02*
X136302976Y-106381485D01*
X136302976Y-106381485D02*
X136922023Y-106381485D01*
X150989819Y-79986904D02*
X151799342Y-79986904D01*
X151799342Y-79986904D02*
X151894580Y-79939285D01*
X151894580Y-79939285D02*
X151942200Y-79891666D01*
X151942200Y-79891666D02*
X151989819Y-79796428D01*
X151989819Y-79796428D02*
X151989819Y-79605952D01*
X151989819Y-79605952D02*
X151942200Y-79510714D01*
X151942200Y-79510714D02*
X151894580Y-79463095D01*
X151894580Y-79463095D02*
X151799342Y-79415476D01*
X151799342Y-79415476D02*
X150989819Y-79415476D01*
X150989819Y-79034523D02*
X150989819Y-78415476D01*
X150989819Y-78415476D02*
X151370771Y-78748809D01*
X151370771Y-78748809D02*
X151370771Y-78605952D01*
X151370771Y-78605952D02*
X151418390Y-78510714D01*
X151418390Y-78510714D02*
X151466009Y-78463095D01*
X151466009Y-78463095D02*
X151561247Y-78415476D01*
X151561247Y-78415476D02*
X151799342Y-78415476D01*
X151799342Y-78415476D02*
X151894580Y-78463095D01*
X151894580Y-78463095D02*
X151942200Y-78510714D01*
X151942200Y-78510714D02*
X151989819Y-78605952D01*
X151989819Y-78605952D02*
X151989819Y-78891666D01*
X151989819Y-78891666D02*
X151942200Y-78986904D01*
X151942200Y-78986904D02*
X151894580Y-79034523D01*
X165479819Y-95298094D02*
X164479819Y-95298094D01*
X164479819Y-95298094D02*
X164479819Y-95059999D01*
X164479819Y-95059999D02*
X164527438Y-94917142D01*
X164527438Y-94917142D02*
X164622676Y-94821904D01*
X164622676Y-94821904D02*
X164717914Y-94774285D01*
X164717914Y-94774285D02*
X164908390Y-94726666D01*
X164908390Y-94726666D02*
X165051247Y-94726666D01*
X165051247Y-94726666D02*
X165241723Y-94774285D01*
X165241723Y-94774285D02*
X165336961Y-94821904D01*
X165336961Y-94821904D02*
X165432200Y-94917142D01*
X165432200Y-94917142D02*
X165479819Y-95059999D01*
X165479819Y-95059999D02*
X165479819Y-95298094D01*
X164479819Y-93869523D02*
X164479819Y-94059999D01*
X164479819Y-94059999D02*
X164527438Y-94155237D01*
X164527438Y-94155237D02*
X164575057Y-94202856D01*
X164575057Y-94202856D02*
X164717914Y-94298094D01*
X164717914Y-94298094D02*
X164908390Y-94345713D01*
X164908390Y-94345713D02*
X165289342Y-94345713D01*
X165289342Y-94345713D02*
X165384580Y-94298094D01*
X165384580Y-94298094D02*
X165432200Y-94250475D01*
X165432200Y-94250475D02*
X165479819Y-94155237D01*
X165479819Y-94155237D02*
X165479819Y-93964761D01*
X165479819Y-93964761D02*
X165432200Y-93869523D01*
X165432200Y-93869523D02*
X165384580Y-93821904D01*
X165384580Y-93821904D02*
X165289342Y-93774285D01*
X165289342Y-93774285D02*
X165051247Y-93774285D01*
X165051247Y-93774285D02*
X164956009Y-93821904D01*
X164956009Y-93821904D02*
X164908390Y-93869523D01*
X164908390Y-93869523D02*
X164860771Y-93964761D01*
X164860771Y-93964761D02*
X164860771Y-94155237D01*
X164860771Y-94155237D02*
X164908390Y-94250475D01*
X164908390Y-94250475D02*
X164956009Y-94298094D01*
X164956009Y-94298094D02*
X165051247Y-94345713D01*
X141674580Y-75891666D02*
X141722200Y-75939285D01*
X141722200Y-75939285D02*
X141769819Y-76082142D01*
X141769819Y-76082142D02*
X141769819Y-76177380D01*
X141769819Y-76177380D02*
X141722200Y-76320237D01*
X141722200Y-76320237D02*
X141626961Y-76415475D01*
X141626961Y-76415475D02*
X141531723Y-76463094D01*
X141531723Y-76463094D02*
X141341247Y-76510713D01*
X141341247Y-76510713D02*
X141198390Y-76510713D01*
X141198390Y-76510713D02*
X141007914Y-76463094D01*
X141007914Y-76463094D02*
X140912676Y-76415475D01*
X140912676Y-76415475D02*
X140817438Y-76320237D01*
X140817438Y-76320237D02*
X140769819Y-76177380D01*
X140769819Y-76177380D02*
X140769819Y-76082142D01*
X140769819Y-76082142D02*
X140817438Y-75939285D01*
X140817438Y-75939285D02*
X140865057Y-75891666D01*
X140769819Y-75558332D02*
X140769819Y-74939285D01*
X140769819Y-74939285D02*
X141150771Y-75272618D01*
X141150771Y-75272618D02*
X141150771Y-75129761D01*
X141150771Y-75129761D02*
X141198390Y-75034523D01*
X141198390Y-75034523D02*
X141246009Y-74986904D01*
X141246009Y-74986904D02*
X141341247Y-74939285D01*
X141341247Y-74939285D02*
X141579342Y-74939285D01*
X141579342Y-74939285D02*
X141674580Y-74986904D01*
X141674580Y-74986904D02*
X141722200Y-75034523D01*
X141722200Y-75034523D02*
X141769819Y-75129761D01*
X141769819Y-75129761D02*
X141769819Y-75415475D01*
X141769819Y-75415475D02*
X141722200Y-75510713D01*
X141722200Y-75510713D02*
X141674580Y-75558332D01*
X136182142Y-44954580D02*
X136134523Y-45002200D01*
X136134523Y-45002200D02*
X135991666Y-45049819D01*
X135991666Y-45049819D02*
X135896428Y-45049819D01*
X135896428Y-45049819D02*
X135753571Y-45002200D01*
X135753571Y-45002200D02*
X135658333Y-44906961D01*
X135658333Y-44906961D02*
X135610714Y-44811723D01*
X135610714Y-44811723D02*
X135563095Y-44621247D01*
X135563095Y-44621247D02*
X135563095Y-44478390D01*
X135563095Y-44478390D02*
X135610714Y-44287914D01*
X135610714Y-44287914D02*
X135658333Y-44192676D01*
X135658333Y-44192676D02*
X135753571Y-44097438D01*
X135753571Y-44097438D02*
X135896428Y-44049819D01*
X135896428Y-44049819D02*
X135991666Y-44049819D01*
X135991666Y-44049819D02*
X136134523Y-44097438D01*
X136134523Y-44097438D02*
X136182142Y-44145057D01*
X137134523Y-45049819D02*
X136563095Y-45049819D01*
X136848809Y-45049819D02*
X136848809Y-44049819D01*
X136848809Y-44049819D02*
X136753571Y-44192676D01*
X136753571Y-44192676D02*
X136658333Y-44287914D01*
X136658333Y-44287914D02*
X136563095Y-44335533D01*
X137610714Y-45049819D02*
X137801190Y-45049819D01*
X137801190Y-45049819D02*
X137896428Y-45002200D01*
X137896428Y-45002200D02*
X137944047Y-44954580D01*
X137944047Y-44954580D02*
X138039285Y-44811723D01*
X138039285Y-44811723D02*
X138086904Y-44621247D01*
X138086904Y-44621247D02*
X138086904Y-44240295D01*
X138086904Y-44240295D02*
X138039285Y-44145057D01*
X138039285Y-44145057D02*
X137991666Y-44097438D01*
X137991666Y-44097438D02*
X137896428Y-44049819D01*
X137896428Y-44049819D02*
X137705952Y-44049819D01*
X137705952Y-44049819D02*
X137610714Y-44097438D01*
X137610714Y-44097438D02*
X137563095Y-44145057D01*
X137563095Y-44145057D02*
X137515476Y-44240295D01*
X137515476Y-44240295D02*
X137515476Y-44478390D01*
X137515476Y-44478390D02*
X137563095Y-44573628D01*
X137563095Y-44573628D02*
X137610714Y-44621247D01*
X137610714Y-44621247D02*
X137705952Y-44668866D01*
X137705952Y-44668866D02*
X137896428Y-44668866D01*
X137896428Y-44668866D02*
X137991666Y-44621247D01*
X137991666Y-44621247D02*
X138039285Y-44573628D01*
X138039285Y-44573628D02*
X138086904Y-44478390D01*
X146489819Y-84280357D02*
X146013628Y-84613690D01*
X146489819Y-84851785D02*
X145489819Y-84851785D01*
X145489819Y-84851785D02*
X145489819Y-84470833D01*
X145489819Y-84470833D02*
X145537438Y-84375595D01*
X145537438Y-84375595D02*
X145585057Y-84327976D01*
X145585057Y-84327976D02*
X145680295Y-84280357D01*
X145680295Y-84280357D02*
X145823152Y-84280357D01*
X145823152Y-84280357D02*
X145918390Y-84327976D01*
X145918390Y-84327976D02*
X145966009Y-84375595D01*
X145966009Y-84375595D02*
X146013628Y-84470833D01*
X146013628Y-84470833D02*
X146013628Y-84851785D01*
X146489819Y-83327976D02*
X146489819Y-83899404D01*
X146489819Y-83613690D02*
X145489819Y-83613690D01*
X145489819Y-83613690D02*
X145632676Y-83708928D01*
X145632676Y-83708928D02*
X145727914Y-83804166D01*
X145727914Y-83804166D02*
X145775533Y-83899404D01*
X145585057Y-82947023D02*
X145537438Y-82899404D01*
X145537438Y-82899404D02*
X145489819Y-82804166D01*
X145489819Y-82804166D02*
X145489819Y-82566071D01*
X145489819Y-82566071D02*
X145537438Y-82470833D01*
X145537438Y-82470833D02*
X145585057Y-82423214D01*
X145585057Y-82423214D02*
X145680295Y-82375595D01*
X145680295Y-82375595D02*
X145775533Y-82375595D01*
X145775533Y-82375595D02*
X145918390Y-82423214D01*
X145918390Y-82423214D02*
X146489819Y-82994642D01*
X146489819Y-82994642D02*
X146489819Y-82375595D01*
X139219819Y-53066904D02*
X140029342Y-53066904D01*
X140029342Y-53066904D02*
X140124580Y-53019285D01*
X140124580Y-53019285D02*
X140172200Y-52971666D01*
X140172200Y-52971666D02*
X140219819Y-52876428D01*
X140219819Y-52876428D02*
X140219819Y-52685952D01*
X140219819Y-52685952D02*
X140172200Y-52590714D01*
X140172200Y-52590714D02*
X140124580Y-52543095D01*
X140124580Y-52543095D02*
X140029342Y-52495476D01*
X140029342Y-52495476D02*
X139219819Y-52495476D01*
X140219819Y-51495476D02*
X140219819Y-52066904D01*
X140219819Y-51781190D02*
X139219819Y-51781190D01*
X139219819Y-51781190D02*
X139362676Y-51876428D01*
X139362676Y-51876428D02*
X139457914Y-51971666D01*
X139457914Y-51971666D02*
X139505533Y-52066904D01*
D13*
%TO.C,D4*%
X138525000Y-106070000D02*
X138525000Y-100260000D01*
X134225000Y-106070000D02*
X138525000Y-106070000D01*
X134225000Y-106070000D02*
X134225000Y-100260000D01*
%TO.C,R15*%
X167485000Y-129727064D02*
X167485000Y-129272936D01*
X166015000Y-129727064D02*
X166015000Y-129272936D01*
%TO.C,C4*%
X139510000Y-127260000D02*
X138310000Y-127260000D01*
X139510000Y-123804437D02*
X139510000Y-127260000D01*
X138445563Y-122740000D02*
X139510000Y-123804437D01*
X138445563Y-122740000D02*
X138310000Y-122740000D01*
X136054437Y-122740000D02*
X136190000Y-122740000D01*
X136054437Y-122740000D02*
X134990000Y-123804437D01*
X134990000Y-127260000D02*
X136190000Y-127260000D01*
X134990000Y-123804437D02*
X134990000Y-127260000D01*
%TO.C,R8*%
X158060000Y-63502064D02*
X158060000Y-63047936D01*
X156590000Y-63502064D02*
X156590000Y-63047936D01*
%TO.C,C6*%
X137063748Y-69010000D02*
X137586252Y-69010000D01*
X137063748Y-67540000D02*
X137586252Y-67540000D01*
%TO.C,C22*%
X156786252Y-109645000D02*
X156263748Y-109645000D01*
X156786252Y-108175000D02*
X156263748Y-108175000D01*
%TO.C,D12*%
X133900000Y-134010000D02*
X133900000Y-128500000D01*
X130600000Y-134010000D02*
X133900000Y-134010000D01*
X130600000Y-134010000D02*
X130600000Y-128500000D01*
%TO.C,J4_battery3*%
X159680000Y-118160000D02*
X159680000Y-117570000D01*
X159680000Y-115510000D02*
X159680000Y-115030000D01*
X159680000Y-112970000D02*
X159680000Y-112380000D01*
X159060000Y-118160000D02*
X159060000Y-117570000D01*
X159060000Y-115510000D02*
X159060000Y-115030000D01*
X159060000Y-112970000D02*
X159060000Y-112380000D01*
X153760000Y-118160000D02*
X153760000Y-112380000D01*
X153240000Y-118160000D02*
X159680000Y-118160000D01*
X153240000Y-118160000D02*
X153240000Y-112380000D01*
X153240000Y-112380000D02*
X159680000Y-112380000D01*
%TO.C,U4*%
X142725000Y-74450000D02*
X142395000Y-74690000D01*
X142395000Y-74210000D01*
X142725000Y-74450000D01*
G36*
X142725000Y-74450000D02*
G01*
X142395000Y-74690000D01*
X142395000Y-74210000D01*
X142725000Y-74450000D01*
G37*
X152790000Y-71750000D02*
X152790000Y-73700000D01*
X152790000Y-71750000D02*
X152790000Y-69800000D01*
X142670000Y-71750000D02*
X142670000Y-73700000D01*
X142670000Y-71750000D02*
X142670000Y-69800000D01*
%TO.C,R11*%
X163252064Y-108145000D02*
X162797936Y-108145000D01*
X163252064Y-106675000D02*
X162797936Y-106675000D01*
D14*
%TO.C,P1*%
X145675000Y-140462500D02*
G75*
G02*
X145475000Y-140462500I-100000J0D01*
G01*
X145475000Y-140462500D02*
G75*
G02*
X145675000Y-140462500I100000J0D01*
G01*
D10*
X153325000Y-142312500D02*
X153325000Y-149312500D01*
X144325000Y-149312500D02*
X144325000Y-142312500D01*
X144325000Y-142312500D02*
X153325000Y-142312500D01*
D13*
%TO.C,L1*%
X139010000Y-133260000D02*
X139010000Y-133110000D01*
X139010000Y-129740000D02*
X139010000Y-129890000D01*
X135490000Y-133260000D02*
X139010000Y-133260000D01*
X135490000Y-133260000D02*
X135490000Y-133110000D01*
X135490000Y-129740000D02*
X139010000Y-129740000D01*
X135490000Y-129740000D02*
X135490000Y-129890000D01*
%TO.C,R13*%
X151370000Y-83864564D02*
X151370000Y-83410436D01*
X149900000Y-83864564D02*
X149900000Y-83410436D01*
%TO.C,C21*%
X135786252Y-111145000D02*
X135263748Y-111145000D01*
X135786252Y-109675000D02*
X135263748Y-109675000D01*
%TO.C,Q2*%
X141725000Y-63265000D02*
X141485000Y-62935000D01*
X141965000Y-62935000D01*
X141725000Y-63265000D01*
G36*
X141725000Y-63265000D02*
G01*
X141485000Y-62935000D01*
X141965000Y-62935000D01*
X141725000Y-63265000D01*
G37*
X142887500Y-66335000D02*
X143537500Y-66335000D01*
X142887500Y-66335000D02*
X142237500Y-66335000D01*
X142887500Y-63215000D02*
X143537500Y-63215000D01*
X142887500Y-63215000D02*
X142237500Y-63215000D01*
%TO.C,D15*%
X139810000Y-116510000D02*
X139810000Y-114490000D01*
X139810000Y-116510000D02*
X136050000Y-116510000D01*
X139810000Y-114490000D02*
X136050000Y-114490000D01*
%TO.C,C18*%
X140113748Y-80510000D02*
X140636252Y-80510000D01*
X140113748Y-79040000D02*
X140636252Y-79040000D01*
%TO.C,D1*%
X138525000Y-98070000D02*
X138525000Y-92260000D01*
X134225000Y-98070000D02*
X138525000Y-98070000D01*
X134225000Y-98070000D02*
X134225000Y-92260000D01*
%TO.C,R21*%
X133235000Y-119772936D02*
X133235000Y-120227064D01*
X131765000Y-119772936D02*
X131765000Y-120227064D01*
%TO.C,D3*%
X132525000Y-106070000D02*
X132525000Y-100260000D01*
X128225000Y-106070000D02*
X132525000Y-106070000D01*
X128225000Y-106070000D02*
X128225000Y-100260000D01*
%TO.C,C7*%
X157086252Y-73510000D02*
X156563748Y-73510000D01*
X157086252Y-72040000D02*
X156563748Y-72040000D01*
%TO.C,Q6*%
X149635000Y-112365000D02*
X149165000Y-112025000D01*
X149635000Y-111685000D01*
X149635000Y-112365000D01*
G36*
X149635000Y-112365000D02*
G01*
X149165000Y-112025000D01*
X149635000Y-111685000D01*
X149635000Y-112365000D01*
G37*
X149475000Y-120175000D02*
X149475000Y-113755000D01*
X149475000Y-113755000D02*
X149205000Y-113755000D01*
X142575000Y-120175000D02*
X142575000Y-113755000D01*
X142575000Y-113755000D02*
X142845000Y-113755000D01*
%TO.C,C23*%
X139286252Y-90145000D02*
X138763748Y-90145000D01*
X139286252Y-88675000D02*
X138763748Y-88675000D01*
%TO.C,R22*%
X133235000Y-116185436D02*
X133235000Y-116639564D01*
X131765000Y-116185436D02*
X131765000Y-116639564D01*
%TO.C,R9*%
X147597936Y-65010000D02*
X148052064Y-65010000D01*
X147597936Y-63540000D02*
X148052064Y-63540000D01*
%TO.C,C20*%
X153086252Y-110010000D02*
X152563748Y-110010000D01*
X153086252Y-108540000D02*
X152563748Y-108540000D01*
%TO.C,C1*%
X163510000Y-125370563D02*
X163510000Y-121915000D01*
X163510000Y-121915000D02*
X162310000Y-121915000D01*
X162445563Y-126435000D02*
X163510000Y-125370563D01*
X162445563Y-126435000D02*
X162310000Y-126435000D01*
X160054437Y-126435000D02*
X160190000Y-126435000D01*
X160054437Y-126435000D02*
X158990000Y-125370563D01*
X158990000Y-125370563D02*
X158990000Y-121915000D01*
X158990000Y-121915000D02*
X160190000Y-121915000D01*
%TO.C,D9*%
X167710000Y-127247500D02*
X167710000Y-124562500D01*
X165790000Y-127247500D02*
X167710000Y-127247500D01*
X165790000Y-124562500D02*
X165790000Y-127247500D01*
%TO.C,U6*%
X143600000Y-123290000D02*
X143260000Y-122820000D01*
X143940000Y-122820000D01*
X143600000Y-123290000D01*
G36*
X143600000Y-123290000D02*
G01*
X143260000Y-122820000D01*
X143940000Y-122820000D01*
X143600000Y-123290000D01*
G37*
X147790000Y-132700000D02*
X146425000Y-132700000D01*
X147790000Y-122300000D02*
X146425000Y-122300000D01*
X146425000Y-132700000D02*
X146425000Y-131750000D01*
X146425000Y-122300000D02*
X146425000Y-123250000D01*
%TO.C,Q3*%
X130910000Y-122790000D02*
X130670000Y-122460000D01*
X131150000Y-122460000D01*
X130910000Y-122790000D01*
G36*
X130910000Y-122790000D02*
G01*
X130670000Y-122460000D01*
X131150000Y-122460000D01*
X130910000Y-122790000D01*
G37*
X132850000Y-126100000D02*
X132850000Y-125270000D01*
X132850000Y-123730000D02*
X132850000Y-122900000D01*
X131820000Y-126100000D02*
X132850000Y-126100000D01*
X131820000Y-122900000D02*
X132850000Y-122900000D01*
%TO.C,D8*%
X164175000Y-98220000D02*
X164175000Y-92410000D01*
X159875000Y-98220000D02*
X164175000Y-98220000D01*
X159875000Y-98220000D02*
X159875000Y-92410000D01*
%TO.C,C8*%
X161038748Y-130735000D02*
X161561252Y-130735000D01*
X161038748Y-129265000D02*
X161561252Y-129265000D01*
%TO.C,R10*%
X159639564Y-67510000D02*
X159185436Y-67510000D01*
X159639564Y-66040000D02*
X159185436Y-66040000D01*
%TO.C,C17*%
X144063748Y-80510000D02*
X144586252Y-80510000D01*
X144063748Y-79040000D02*
X144586252Y-79040000D01*
%TO.C,J2*%
X124430000Y-75500000D02*
X123820000Y-75940000D01*
X123820000Y-75060000D01*
X124430000Y-75500000D01*
G36*
X124430000Y-75500000D02*
G01*
X123820000Y-75940000D01*
X123820000Y-75060000D01*
X124430000Y-75500000D01*
G37*
X131220000Y-79660000D02*
X124780000Y-79660000D01*
X131220000Y-73880000D02*
X131220000Y-79660000D01*
X131220000Y-73880000D02*
X124780000Y-73880000D01*
X130700000Y-73880000D02*
X130700000Y-79660000D01*
X125400000Y-79070000D02*
X125400000Y-79660000D01*
X125400000Y-76530000D02*
X125400000Y-77010000D01*
X125400000Y-73880000D02*
X125400000Y-74470000D01*
X124780000Y-79070000D02*
X124780000Y-79660000D01*
X124780000Y-76530000D02*
X124780000Y-77010000D01*
X124780000Y-73880000D02*
X124780000Y-74470000D01*
D15*
%TO.C,SW2*%
X164575000Y-59775000D02*
G75*
G02*
X161075000Y-59775000I-1750000J0D01*
G01*
X161075000Y-59775000D02*
G75*
G02*
X164575000Y-59775000I1750000J0D01*
G01*
D16*
X160775000Y-64525000D02*
G75*
G02*
X160375000Y-64525000I-200000J0D01*
G01*
X160375000Y-64525000D02*
G75*
G02*
X160775000Y-64525000I200000J0D01*
G01*
D15*
X165825000Y-61775000D02*
X165825000Y-57775000D01*
X161825000Y-62775000D02*
X163825000Y-62775000D01*
X161825000Y-56775000D02*
X163825000Y-56775000D01*
X159825000Y-61775000D02*
X159825000Y-57775000D01*
D13*
%TO.C,C15*%
X139250000Y-42413748D02*
X139250000Y-42936252D01*
X137780000Y-42413748D02*
X137780000Y-42936252D01*
%TO.C,U2*%
D17*
X142252000Y-91775000D02*
G75*
G02*
X141998000Y-91775000I-127000J0D01*
G01*
X141998000Y-91775000D02*
G75*
G02*
X142252000Y-91775000I127000J0D01*
G01*
X154825000Y-106775000D02*
X150825000Y-106775000D01*
X154825000Y-90775000D02*
X154825000Y-106775000D01*
X154825000Y-90775000D02*
X150825000Y-90775000D01*
X147825000Y-106775000D02*
X143825000Y-106775000D01*
X147825000Y-90775000D02*
X143825000Y-90775000D01*
X143825000Y-106775000D02*
X143825000Y-90775000D01*
D13*
%TO.C,D7*%
X164175000Y-106220000D02*
X164175000Y-100410000D01*
X159875000Y-106220000D02*
X164175000Y-106220000D01*
X159875000Y-106220000D02*
X159875000Y-100410000D01*
%TO.C,D5*%
X170175000Y-106220000D02*
X170175000Y-100410000D01*
X165875000Y-106220000D02*
X170175000Y-106220000D01*
X165875000Y-106220000D02*
X165875000Y-100410000D01*
%TO.C,C16*%
X136750000Y-42413748D02*
X136750000Y-42936252D01*
X135280000Y-42413748D02*
X135280000Y-42936252D01*
%TO.C,Q1*%
X153790000Y-65565000D02*
X153310000Y-65565000D01*
X153550000Y-65235000D01*
X153790000Y-65565000D01*
G36*
X153790000Y-65565000D02*
G01*
X153310000Y-65565000D01*
X153550000Y-65235000D01*
X153790000Y-65565000D01*
G37*
X152387500Y-65285000D02*
X153037500Y-65285000D01*
X152387500Y-65285000D02*
X151737500Y-65285000D01*
X152387500Y-62165000D02*
X153037500Y-62165000D01*
X152387500Y-62165000D02*
X151737500Y-62165000D01*
%TO.C,J1*%
X155585000Y-59235000D02*
X155585000Y-57315000D01*
X155300000Y-59235000D02*
X155585000Y-59235000D01*
X154030000Y-57315000D02*
X155585000Y-57315000D01*
X152760000Y-59235000D02*
X154130000Y-59235000D01*
X151490000Y-57315000D02*
X152860000Y-57315000D01*
X150220000Y-59235000D02*
X151590000Y-59235000D01*
X148950000Y-57315000D02*
X150320000Y-57315000D01*
X147680000Y-59235000D02*
X149050000Y-59235000D01*
X146410000Y-57315000D02*
X147780000Y-57315000D01*
X145240000Y-57315000D02*
X145240000Y-56085000D01*
X144955000Y-59235000D02*
X146510000Y-59235000D01*
X144955000Y-59235000D02*
X144955000Y-57315000D01*
X144955000Y-57315000D02*
X145240000Y-57315000D01*
%TO.C,D2*%
X132525000Y-98070000D02*
X132525000Y-92260000D01*
X128225000Y-98070000D02*
X132525000Y-98070000D01*
X128225000Y-98070000D02*
X128225000Y-92260000D01*
%TO.C,J3*%
X172180000Y-78480000D02*
X171570000Y-78040000D01*
X172180000Y-77600000D01*
X172180000Y-78480000D01*
G36*
X172180000Y-78480000D02*
G01*
X171570000Y-78040000D01*
X172180000Y-77600000D01*
X172180000Y-78480000D01*
G37*
X171220000Y-79660000D02*
X171220000Y-79070000D01*
X171220000Y-77010000D02*
X171220000Y-76530000D01*
X171220000Y-74470000D02*
X171220000Y-73880000D01*
X170600000Y-79660000D02*
X170600000Y-79070000D01*
X170600000Y-77010000D02*
X170600000Y-76530000D01*
X170600000Y-74470000D02*
X170600000Y-73880000D01*
X165300000Y-79660000D02*
X165300000Y-73880000D01*
X164780000Y-79660000D02*
X171220000Y-79660000D01*
X164780000Y-79660000D02*
X164780000Y-73880000D01*
X164780000Y-73880000D02*
X171220000Y-73880000D01*
%TO.C,C2*%
X140370000Y-71463748D02*
X140370000Y-71986252D01*
X138900000Y-71463748D02*
X138900000Y-71986252D01*
%TO.C,D14*%
X139810000Y-119860000D02*
X139810000Y-117840000D01*
X139810000Y-119860000D02*
X136050000Y-119860000D01*
X139810000Y-117840000D02*
X136050000Y-117840000D01*
D16*
%TO.C,SW1*%
X139525000Y-55525000D02*
G75*
G02*
X139125000Y-55525000I-200000J0D01*
G01*
X139125000Y-55525000D02*
G75*
G02*
X139525000Y-55525000I200000J0D01*
G01*
D15*
X138825000Y-60275000D02*
G75*
G02*
X135325000Y-60275000I-1750000J0D01*
G01*
X135325000Y-60275000D02*
G75*
G02*
X138825000Y-60275000I1750000J0D01*
G01*
X140075000Y-58275000D02*
X140075000Y-62275000D01*
X138075000Y-63275000D02*
X136075000Y-63275000D01*
X138075000Y-57275000D02*
X136075000Y-57275000D01*
X134075000Y-58275000D02*
X134075000Y-62275000D01*
D13*
%TO.C,R14*%
X135385436Y-108645000D02*
X135839564Y-108645000D01*
X135385436Y-107175000D02*
X135839564Y-107175000D01*
%TO.C,U3*%
X150975000Y-78165000D02*
X150645000Y-77925000D01*
X150975000Y-77685000D01*
X150975000Y-78165000D01*
G36*
X150975000Y-78165000D02*
G01*
X150645000Y-77925000D01*
X150975000Y-77685000D01*
X150975000Y-78165000D01*
G37*
X150695000Y-79225000D02*
X150695000Y-80025000D01*
X150695000Y-79225000D02*
X150695000Y-78425000D01*
X147575000Y-79225000D02*
X147575000Y-80025000D01*
X147575000Y-79225000D02*
X147575000Y-78425000D01*
%TO.C,D6*%
X170175000Y-98220000D02*
X170175000Y-92410000D01*
X165875000Y-98220000D02*
X170175000Y-98220000D01*
X165875000Y-98220000D02*
X165875000Y-92410000D01*
%TO.C,C3*%
X140370000Y-75463748D02*
X140370000Y-75986252D01*
X138900000Y-75463748D02*
X138900000Y-75986252D01*
%TO.C,C19*%
X136563748Y-47010000D02*
X137086252Y-47010000D01*
X136563748Y-45540000D02*
X137086252Y-45540000D01*
%TO.C,R12*%
X148420000Y-83864564D02*
X148420000Y-83410436D01*
X146950000Y-83864564D02*
X146950000Y-83410436D01*
%TO.C,U1*%
X141155000Y-33965000D02*
X141155000Y-39775000D01*
X141155000Y-33965000D02*
X159375000Y-33965000D01*
X141155000Y-53885000D02*
X141155000Y-54185000D01*
X141155000Y-54185000D02*
X159375000Y-54185000D01*
X159375000Y-33965000D02*
X159375000Y-40465000D01*
X159375000Y-53885000D02*
X159375000Y-54185000D01*
X141165000Y-40475000D02*
X140665000Y-40475000D01*
X141165000Y-39975000D01*
X141165000Y-40475000D01*
G36*
X141165000Y-40475000D02*
G01*
X140665000Y-40475000D01*
X141165000Y-39975000D01*
X141165000Y-40475000D01*
G37*
%TD*%
M02*
